<svg width="30" height="30" viewBox="0 0 30 30" fill="none" xmlns="http://www.w3.org/2000/svg">
<path d="M14.9 29.8C23.129 29.8 29.8 23.129 29.8 14.9C29.8 6.67096 23.129 0 14.9 0C6.67096 0 0 6.67096 0 14.9C0 23.129 6.67096 29.8 14.9 29.8Z" fill="#E3E2DC"/>
<path d="M20.0974 15.6626C19.9588 15.5933 19.8202 15.4547 19.6816 15.3854C19.1272 15.1082 18.6421 14.831 18.0877 14.6231C20.7905 12.9598 21.2756 10.257 20.5825 8.24724C19.8895 6.09887 17.8798 4.64352 15.6621 4.57422C13.3058 4.57422 11.296 5.96027 10.5337 8.10864C9.84069 10.0491 10.2565 12.8905 13.0979 14.5538C11.9198 14.9696 10.9495 15.524 10.1179 16.2863C8.52394 17.811 7.62301 19.6821 7.55371 21.9691C7.55371 22.4542 7.69232 22.7314 8.03883 22.6621C8.38534 22.6621 8.52394 22.3849 8.52394 21.9691C8.52394 21.6919 8.59325 21.484 8.59325 21.2068C9.14766 16.7021 13.9295 13.93 18.0877 15.6626C18.5728 15.8705 18.9886 16.1477 19.4737 16.3556C19.7509 16.4942 19.9588 16.4942 20.1667 16.217C20.4439 16.1477 20.3746 15.8705 20.0974 15.6626ZM11.3653 9.9105C11.3653 7.55422 13.3058 5.68306 15.6621 5.68306C18.0184 5.68306 19.8895 7.62352 19.8895 9.9798C19.8895 12.2668 17.9491 14.2072 15.6621 14.2072C13.2365 14.1379 11.3653 12.2668 11.3653 9.9105Z" fill="#363B56"/>
<path d="M24.117 17.3253L22.3152 15.5928L17.1175 20.7904L15.5235 19.1272L13.7217 20.9291L17.3254 24.5328L24.117 17.3253Z" fill="#98AFDC"/>
</svg>
