<svg width="174" height="154" viewBox="0 0 174 154" fill="none" xmlns="http://www.w3.org/2000/svg">
<g clip-path="url(#clip0_136_849)">
<path d="M66.6236 151.146C71.0818 152.419 75.532 153.359 79.966 154H155.619C156.296 154 156.965 153.959 157.626 153.886H174V107.077H173.992V74.2553L174 74.2634C174 74.2553 174 74.2391 173.992 74.231C169.8 42.8926 144.356 14.2056 107.981 3.86756C83.9647 -2.95958 59.8516 -0.462241 40.503 9.08117C48.2827 11.0434 53.2408 15.8191 53.3295 15.9083L48.9277 20.4165C48.5326 20.0273 41.2608 13.0299 30.7159 14.7894C25.8545 18.1057 21.4285 21.9409 17.5427 26.2382C17.0025 26.8301 16.4705 27.4382 15.9626 28.0464C14.2776 30.041 12.7056 32.1248 11.2705 34.2978C11.2141 34.3708 11.1738 34.4357 11.1335 34.5086C9.04546 37.6465 7.22348 40.979 5.68365 44.4737V44.4899C5.08707 45.8278 4.54692 47.1818 4.03902 48.5684C4.02289 48.4954 4.01483 48.4224 4.00677 48.3413C3.4505 49.8819 2.95067 51.4549 2.50726 53.0522C-8.91646 93.8529 19.792 137.775 66.6236 151.146Z" fill="#F1949B"/>
<path d="M30.7145 14.7896C41.2514 13.0301 48.5232 20.0275 48.9263 20.4167L53.3281 15.9085C53.2394 15.8193 48.2814 11.0435 40.5016 9.07324C37.0834 10.7679 33.8103 12.6733 30.7145 14.7896Z" fill="#E2E1DB"/>
<path d="M15.7677 14.7572L19.4923 19.8411C23.4991 16.8735 27.2801 15.3653 30.7145 14.7897C41.2514 13.0302 48.5232 20.0276 48.9263 20.4168L53.3281 15.9086C53.2394 15.8194 48.2814 11.0436 40.5016 9.07334C33.8828 7.39493 25.2163 7.74359 15.7677 14.7572Z" fill="#191C36"/>
<path d="M20.0583 58.2009C11.3716 58.2009 4.32957 51.1184 4.32957 42.3817C4.32957 33.645 11.3716 26.5625 20.0583 26.5625C28.7451 26.5625 35.7871 33.645 35.7871 42.3817C35.7871 51.1184 28.7451 58.2009 20.0583 58.2009Z" fill="white"/>
<path d="M15.5511 43.4929C10.6757 43.4929 6.72334 39.5179 6.72334 34.6144C6.72334 29.7109 10.6757 25.7358 15.5511 25.7358C20.4266 25.7358 24.3789 29.7109 24.3789 34.6144C24.3789 39.5179 20.4266 43.4929 15.5511 43.4929Z" fill="#162A43"/>
<path d="M75.9587 78.4314C67.272 78.4314 60.23 71.3489 60.23 62.6122C60.23 53.8755 67.272 46.793 75.9587 46.793C84.6455 46.793 91.6875 53.8755 91.6875 62.6122C91.6875 71.3489 84.6455 78.4314 75.9587 78.4314Z" fill="white"/>
<path d="M71.4437 63.7229C66.5683 63.7229 62.6159 59.7478 62.6159 54.8444C62.6159 49.9409 66.5683 45.9658 71.4437 45.9658C76.3192 45.9658 80.2715 49.9409 80.2715 54.8444C80.2715 59.7478 76.3192 63.7229 71.4437 63.7229Z" fill="#162A43"/>
<path d="M80.7968 19.1193L81.7159 25.3708C86.6336 24.641 90.6807 25.0951 93.9861 26.2059C104.112 29.6276 107.272 39.2359 107.449 39.771L113.439 37.8656C113.399 37.744 111.247 31.1925 105.297 25.7843C100.226 21.1707 92.406 17.3922 80.7968 19.1193Z" fill="#191C36"/>
</g>
<defs>
<clipPath id="clip0_136_849">
<rect width="174" height="154" fill="white" transform="matrix(-1 0 0 1 174 0)"/>
</clipPath>
</defs>
</svg>
