<svg width="455" height="164" viewBox="0 0 455 164" fill="none" xmlns="http://www.w3.org/2000/svg">
<path d="M55.6926 17.5666C49.4114 10.5876 41.5949 6.9585 32.5222 6.9585C23.4495 6.9585 15.7726 10.5876 9.35188 17.5666C3.07077 24.406 0 32.7808 0 42.4119V85.5422C0 88.7525 2.37287 91.1254 5.58321 91.1254C8.79356 91.1254 11.1664 88.7525 11.1664 85.5422V58.8824H53.878V85.5422C53.878 88.7525 56.2509 91.1254 59.4612 91.1254C62.6716 91.1254 65.0444 88.7525 65.0444 85.5422V42.4119C65.0444 37.5266 64.2069 33.06 62.6716 28.8726C61.1362 24.8248 58.9029 21.0561 55.6926 17.5666ZM53.878 47.5764H11.1664V42.4119C11.1664 35.5725 13.2601 29.9892 17.5871 25.1039C21.7745 20.3582 26.6598 18.1249 32.5222 18.1249C38.3846 18.1249 43.2699 20.3582 47.4573 25.1039C51.7843 29.9892 53.878 35.5725 53.878 42.4119V47.5764Z" fill="#373B56"/>
<path d="M112.641 85.5422C112.641 88.7526 110.268 91.1255 107.058 91.1255C98.6828 91.1255 91.4247 88.0547 85.5623 82.1923C79.5603 76.1904 76.6292 68.9322 76.6292 60.697V12.6814C76.6292 9.47101 79.002 7.09814 82.2124 7.09814C85.4227 7.09814 87.7956 9.47101 87.7956 12.6814V30.2685H107.058C110.268 30.2685 112.641 32.6413 112.641 35.8517C112.641 39.062 110.268 41.4349 107.058 41.4349H87.656V60.697C87.656 66.001 89.4705 70.4676 93.3788 74.2363C97.1475 78.0049 101.614 79.8195 106.918 79.8195C110.268 79.9591 112.641 82.3319 112.641 85.5422Z" fill="#373B56"/>
<path d="M209.649 39.2012C203.648 33.1992 196.529 30.2681 188.154 30.2681C179.779 30.2681 172.521 33.3388 166.659 39.2012C160.657 45.2032 157.726 52.4613 157.726 60.6966C157.726 69.0714 160.796 76.3296 166.659 82.1919C172.521 88.1939 179.779 91.1251 188.154 91.1251C195.552 91.1251 201.973 88.7522 207.416 84.2856V85.5418C207.416 88.7522 209.789 91.1251 212.999 91.1251C216.21 91.1251 218.583 88.7522 218.583 85.5418V60.6966C218.722 52.3217 215.651 45.0636 209.649 39.2012ZM207.416 72.9796C206.718 72.7005 206.02 72.7005 205.602 72.7005C204.066 72.7005 202.81 73.3984 201.833 74.3754C198.064 78.1441 193.598 79.8191 188.294 79.8191C182.99 79.8191 178.523 78.0045 174.754 74.2359C170.846 70.4672 169.032 66.0006 169.032 60.6966C169.032 55.3925 170.846 50.9259 174.754 47.1573C178.523 43.3886 182.99 41.574 188.294 41.574C193.598 41.574 198.064 43.3886 201.833 47.1573C205.602 50.9259 207.416 55.3925 207.416 60.6966V72.9796Z" fill="#373B56"/>
<path d="M129.391 41.4349V60.6969C129.391 66.001 131.205 70.4676 135.114 74.2362C138.882 78.0049 143.349 79.959 148.793 79.959C152.003 79.959 154.376 82.3319 154.376 85.5422C154.376 88.7525 152.003 91.1254 148.793 91.1254C140.418 91.1254 133.16 88.0547 127.297 82.1923C121.295 76.1903 118.364 68.9322 118.364 60.6969V12.5417C118.364 9.33136 120.737 6.9585 123.947 6.9585C127.158 6.9585 129.53 9.33136 129.53 12.5417V30.1288H148.793C152.003 30.1288 154.376 32.5017 154.376 35.7121C154.376 38.9224 152.003 41.2953 148.793 41.2953H129.391V41.4349Z" fill="#373B56"/>
<path d="M277.765 78.5628C277.765 79.5399 277.347 80.9357 276.09 82.3315C270.089 88.1939 262.97 91.1251 254.735 91.1251C246.36 91.1251 239.102 88.0543 233.239 82.1919C227.237 76.19 224.306 68.9318 224.306 60.6966C224.306 52.3217 227.377 45.0636 233.239 39.2012C239.241 33.1992 246.499 30.2681 254.735 30.2681C262.97 30.2681 270.228 33.1992 276.09 39.0616C278.324 41.2949 278.463 44.6448 276.23 46.8781C273.857 49.1114 270.647 49.251 268.274 47.1573C264.505 43.3886 260.039 41.574 254.735 41.574C249.431 41.574 244.964 43.3886 241.195 47.1573C237.427 50.9259 235.473 55.3925 235.473 60.6966C235.473 66.0006 237.287 70.4672 241.056 74.3754C244.824 78.1441 249.291 79.9586 254.735 79.9586C260.039 79.9586 264.505 78.1441 268.274 74.515C269.809 72.9796 271.345 72.8401 272.182 72.8401C273.718 72.8401 275.113 73.3984 276.23 74.515C277.347 75.6317 277.905 77.0274 277.765 78.5628Z" fill="#373B56"/>
<path d="M307.775 33.7579V7.93556C307.775 4.02731 304.425 0.956543 300.377 0.956543C296.329 0.956543 292.979 4.16689 292.979 7.93556V41.714C292.979 43.1098 293.119 44.5056 293.398 45.9014C296.469 40.4577 301.633 36.1308 307.775 33.7579Z" fill="#373B56"/>
<path d="M343.368 41.714V7.93556C343.368 4.02731 340.018 0.956543 335.97 0.956543C331.922 0.956543 328.572 4.16689 328.572 7.93556V41.714C328.572 47.1576 323.966 51.6242 318.243 51.6242C314.196 51.6242 310.846 54.8345 310.846 58.6032V64.6051C313.219 65.303 315.731 65.7218 318.243 65.7218C332.062 65.5822 343.368 54.8345 343.368 41.714Z" fill="#373B56"/>
<path d="M318.243 48.6928C322.291 48.6928 325.641 45.4825 325.641 41.7138V35.7119C323.268 35.014 320.755 34.5952 318.243 34.5952C304.285 34.5952 292.979 45.3429 292.979 58.4635V92.2419C292.979 96.1502 296.329 99.2209 300.377 99.2209C304.425 99.2209 307.775 96.0106 307.775 92.2419V58.603C307.775 53.1594 312.52 48.6928 318.243 48.6928Z" fill="#97ADD9"/>
<path d="M380.216 28.314V86.1003C380.216 87.0774 380.216 88.0544 380.077 89.171C378.541 102.012 367.654 112.062 354.254 112.062C343.925 112.062 334.992 106.06 330.805 97.2667C329.967 95.4522 329.269 93.6376 328.851 91.5439C328.711 90.7064 328.572 90.0085 328.572 89.171V66.559C334.853 64.1862 339.878 59.8592 343.088 54.4155C343.367 55.8113 343.507 57.2071 343.507 58.603V87.4961C343.507 93.498 348.113 98.6625 354.115 98.8021H354.254C361.233 98.8021 366.817 93.0793 366.817 86.2398V28.5932C367.096 25.2433 369.887 22.5912 373.377 22.4517C373.516 22.4517 373.796 22.4517 373.935 22.4517C373.935 22.4517 373.935 22.4517 374.075 22.4517C377.006 22.5912 379.518 24.685 380.077 27.4766C380.077 27.6161 380.216 27.6161 380.216 27.7557C380.077 27.7557 380.077 28.0348 380.216 28.314Z" fill="#97ADD9"/>
<path d="M380.217 86.1016V89.1723H380.077C380.077 88.1952 380.217 87.0786 380.217 86.1016Z" fill="#97ADD9"/>
<path d="M381.194 8.63321C381.194 10.7269 380.356 12.681 378.96 14.2164C377.425 15.7518 375.471 16.4497 373.517 16.4497C371.284 16.4497 369.469 15.6122 367.934 14.0768C366.538 12.5415 365.7 10.7269 365.7 8.63321C365.7 6.67909 366.538 4.72494 367.934 3.32914C370.865 0.25837 375.89 0.118781 378.96 3.18955C380.356 4.72493 381.194 6.53951 381.194 8.63321Z" fill="#97ADD9"/>
<path d="M454.054 57.0663V87.6344C454.054 90.8448 451.682 93.2176 448.471 93.2176C445.261 93.2176 443.028 90.8448 443.028 87.6344V57.0663C443.028 50.0873 440.794 44.225 436.328 39.2001C431.861 34.3148 426.697 31.9419 420.555 31.9419C414.274 31.9419 409.11 34.3148 404.643 39.2001C400.176 44.0854 397.943 49.9477 397.943 57.0663V87.6344C397.943 90.8448 395.71 93.2176 392.499 93.2176C389.289 93.2176 386.916 90.8448 386.916 87.6344V26.4983C386.916 23.2879 389.289 20.915 392.499 20.915C395.71 20.915 397.943 23.2879 397.943 26.4983V30.2669C399.199 29.0107 400.735 27.7545 402.27 26.7774C407.853 22.8692 413.995 20.915 420.555 20.915C429.767 20.915 437.863 24.5441 444.284 31.6627C450.704 38.6418 454.054 47.1561 454.054 57.0663Z" fill="#97ADD9"/>
<path d="M143.233 147.8C143.233 151.499 141.625 154.715 138.408 157.61C135.192 160.504 131.815 161.952 127.956 161.952C122.649 161.952 118.628 159.861 116.055 155.68C113.965 152.303 113 147.639 113 141.85C113 136.061 114.286 130.754 116.699 125.929C119.754 120.14 123.774 117.246 129.081 117.246C131.654 117.246 133.906 117.889 135.996 119.015C138.087 120.462 139.534 122.392 140.017 124.804C140.499 126.734 140.66 127.698 140.66 127.698C140.66 133.327 139.373 136.061 136.8 136.061C135.996 136.061 135.353 135.739 134.71 135.257C134.067 134.774 133.745 134.131 133.745 133.327C133.745 132.844 133.906 132.362 134.388 131.558C134.871 130.754 135.031 130.111 135.031 129.628C135.031 127.216 134.71 125.608 134.227 124.643C133.423 123.357 131.976 122.874 129.725 122.874C127.473 122.874 125.383 124.321 123.453 127.055C121.845 129.467 120.88 131.88 120.237 134.453C119.754 137.186 119.433 139.759 119.433 142.011C119.433 146.031 119.754 148.926 120.397 150.695C121.362 153.589 123.453 155.519 126.508 156.323C127.473 156.645 128.116 156.645 128.76 156.645C130.207 156.645 131.815 156.002 133.584 154.715C135.031 153.589 136.157 152.142 136.961 150.695C137.444 149.73 137.765 148.765 137.765 147.318L137.444 147.157C134.388 147.157 132.137 147.478 130.529 148.283C130.046 148.604 129.564 148.765 129.081 149.087C128.438 149.408 127.956 149.569 127.473 149.569C126.347 149.569 125.543 149.087 125.061 148.283C124.418 147.318 124.096 146.353 124.096 145.227C124.096 144.262 124.579 143.619 125.543 142.976C126.187 142.654 128.116 142.172 131.493 141.85C134.549 141.528 136.639 141.207 137.926 141.207C141.464 141.368 143.233 143.458 143.233 147.8Z" fill="#373B56"/>
<path d="M168.32 155.036C168.32 157.127 166.873 158.735 163.978 160.022C161.727 160.987 159.475 161.469 156.902 161.469C150.47 161.469 147.093 157.77 147.093 150.373C147.093 147.317 147.897 143.94 149.344 140.242C151.113 135.739 153.364 133.327 155.937 133.327C158.189 133.327 160.762 134.292 163.495 136.382C166.229 138.473 167.516 140.563 167.516 142.815C167.516 145.548 166.229 147.8 163.817 149.408C161.566 150.855 158.993 151.659 155.937 151.659C155.294 151.659 154.329 151.338 153.043 150.534C153.203 154.554 154.329 156.484 156.58 156.484C158.51 156.484 160.279 156.001 162.048 154.876C163.817 153.75 164.943 153.267 165.425 153.267C167.355 153.428 168.32 153.911 168.32 155.036ZM161.405 142.975C161.405 141.85 161.083 140.885 160.44 139.92C159.797 138.955 158.993 138.473 158.028 138.473C156.58 138.473 155.616 139.116 154.812 140.242C154.168 141.367 153.847 142.493 153.847 143.94C153.847 144.744 154.168 145.388 154.651 145.87C155.133 146.353 155.937 146.674 156.741 146.674C159.958 146.835 161.405 145.548 161.405 142.975Z" fill="#373B56"/>
<path d="M185.366 137.83C185.366 138.956 183.597 139.76 180.22 140.242C180.059 141.207 180.059 143.298 180.059 146.514V150.695C180.059 151.499 180.22 152.786 180.38 154.394C180.702 156.002 180.702 157.288 180.702 158.092C180.702 158.736 180.38 159.379 179.737 159.861C179.094 160.344 178.451 160.665 177.647 160.665C176.521 160.665 175.717 159.7 174.913 157.932C174.43 156.484 174.109 155.198 174.109 153.911V140.564C172.179 140.242 171.053 140.081 170.732 139.92C169.606 139.599 169.124 139.116 169.124 138.473C169.124 138.312 169.124 138.152 169.284 137.83C170.41 136.222 171.536 135.418 172.983 135.418C173.144 135.418 173.144 135.418 173.305 135.418C173.465 135.418 173.626 135.418 173.626 135.418C174.591 135.418 174.913 134.453 174.913 132.362V127.699C174.752 127.216 174.591 126.895 174.591 126.573C174.591 126.091 174.913 125.608 175.556 125.126C176.199 124.643 176.843 124.482 177.486 124.482C178.29 124.482 179.255 124.965 180.059 125.769C180.863 126.573 181.185 127.538 181.185 128.342C181.185 129.307 181.024 130.433 180.702 131.397C180.38 132.362 180.22 133.488 180.22 134.453V134.774C183.758 135.096 185.366 136.222 185.366 137.83Z" fill="#373B56"/>
<path d="M232.806 149.248C232.806 151.338 231.841 152.303 230.072 152.303C230.233 153.268 230.715 154.554 231.519 156.163C231.519 157.127 231.037 157.931 230.394 158.414C229.75 159.057 228.785 159.379 227.821 159.379C227.016 159.379 226.212 159.218 225.087 158.736C224.604 157.61 224.283 156.323 224.283 154.876C224.283 154.554 224.283 153.911 224.283 153.268C224.283 152.625 224.283 151.981 224.283 151.66C224.283 151.981 223.639 152.142 222.192 152.142C219.78 152.142 217.046 152.303 213.83 152.464C209.166 152.785 206.593 153.107 206.272 153.589C205.95 154.072 205.628 156.323 205.467 160.344C204.985 161.148 204.181 161.469 203.377 161.469C202.412 161.469 201.608 161.148 200.643 160.344C199.678 159.54 199.196 158.736 199.196 157.931C199.196 157.61 199.517 156.484 200.321 154.394C201.126 151.338 202.573 146.835 204.503 140.885C210.131 125.447 214.795 117.567 218.654 117.567C222.353 117.567 225.087 121.588 227.177 129.789C228.142 133.488 228.946 139.116 229.589 146.675C230.715 146.996 231.358 147.157 231.68 147.318C232.323 147.961 232.806 148.443 232.806 149.248ZM223.8 146.996C221.87 132.201 220.262 124.965 218.815 124.965C217.689 124.965 215.599 128.503 212.543 135.418C210.453 140.403 208.845 144.745 207.558 148.443C208.845 148.122 210.935 147.8 213.508 147.318C216.081 146.835 219.458 146.675 223.8 146.996Z" fill="#373B56"/>
<path d="M253.068 137.83C253.068 138.956 251.299 139.76 247.922 140.242C247.761 141.207 247.761 143.298 247.761 146.514V150.695C247.761 151.499 247.922 152.786 248.083 154.394C248.404 156.002 248.404 157.288 248.404 158.092C248.404 158.736 248.083 159.379 247.44 159.861C246.796 160.344 246.153 160.665 245.349 160.665C244.223 160.665 243.419 159.7 242.615 157.932C242.133 156.484 241.811 155.198 241.811 153.911V140.564C239.881 140.242 238.756 140.081 238.434 139.92C237.308 139.599 236.826 139.116 236.826 138.473C236.826 138.312 236.826 138.152 236.987 137.83C238.112 136.222 239.238 135.418 240.685 135.418C240.846 135.418 240.846 135.418 241.007 135.418C241.168 135.418 241.329 135.418 241.329 135.418C242.294 135.418 242.615 134.453 242.615 132.362V127.699C242.454 127.216 242.294 126.895 242.294 126.573C242.294 126.091 242.615 125.608 243.258 125.126C243.902 124.643 244.545 124.482 245.188 124.482C245.992 124.482 246.957 124.965 247.761 125.769C248.565 126.573 248.887 127.538 248.887 128.342C248.887 129.307 248.726 130.433 248.404 131.397C248.083 132.362 247.922 133.488 247.922 134.453V134.774C251.299 135.096 253.068 136.222 253.068 137.83Z" fill="#373B56"/>
<path d="M268.667 137.83C268.667 138.956 266.898 139.76 263.521 140.242C263.36 141.207 263.36 143.298 263.36 146.514V150.695C263.36 151.499 263.521 152.786 263.682 154.394C264.004 156.002 264.004 157.288 264.004 158.092C264.004 158.736 263.682 159.379 263.039 159.861C262.395 160.344 261.752 160.665 260.948 160.665C259.822 160.665 259.018 159.7 258.214 157.932C257.732 156.484 257.41 155.198 257.41 153.911V140.564C255.48 140.242 254.355 140.081 254.033 139.92C252.907 139.599 252.425 139.116 252.425 138.473C252.425 138.312 252.425 138.152 252.586 137.83C253.712 136.222 254.837 135.418 256.285 135.418C256.445 135.418 256.445 135.418 256.606 135.418C256.767 135.418 256.928 135.418 256.928 135.418C257.893 135.418 258.214 134.453 258.214 132.362V127.699C258.053 127.216 257.893 126.895 257.893 126.573C257.893 126.091 258.214 125.608 258.858 125.126C259.501 124.643 260.144 124.482 260.787 124.482C261.591 124.482 262.556 124.965 263.36 125.769C264.164 126.573 264.486 127.538 264.486 128.342C264.486 129.307 264.325 130.433 264.004 131.397C263.682 132.362 263.521 133.488 263.521 134.453V134.774C267.059 135.096 268.667 136.222 268.667 137.83Z" fill="#373B56"/>
<path d="M291.342 149.73C291.342 155.198 291.181 159.057 290.859 161.309C290.699 162.595 289.734 163.239 288.126 163.239C285.713 163.239 284.748 162.113 284.909 159.701C282.819 160.665 280.567 161.148 278.316 161.148C276.065 161.148 273.974 160.666 272.044 159.54C269.632 158.253 268.506 156.484 268.506 154.555C268.506 152.625 269.793 150.695 272.527 148.926C274.939 147.318 277.351 146.514 279.442 146.514H284.748V145.067C284.748 140.725 283.462 138.473 280.889 138.473C277.512 138.473 275.904 140.081 275.904 143.137C275.904 144.102 275.26 144.745 274.135 144.745C273.492 144.745 272.687 144.423 271.883 143.78C271.079 143.137 270.758 142.494 270.758 141.69C270.758 139.277 271.562 137.348 273.331 135.9C274.939 134.453 277.029 133.649 279.442 133.649C287.321 133.649 291.342 138.956 291.342 149.73ZM284.909 151.982C284.909 151.178 284.266 150.695 282.98 150.695C277.673 150.695 275.1 151.982 275.1 154.394C275.1 155.68 276.225 156.484 278.638 156.484C280.085 156.484 281.371 156.163 282.658 155.359C284.266 154.394 284.909 153.429 284.909 151.982Z" fill="#373B56"/>
<path d="M318.198 153.429C318.198 154.715 317.233 156.324 315.142 158.093C313.373 159.701 311.765 160.826 310.318 161.148C308.87 161.63 307.584 161.791 306.297 161.791C302.92 161.791 300.347 160.666 298.418 158.575C296.488 156.484 295.523 153.751 295.523 150.374C295.523 147.157 296.327 143.459 298.096 139.438C300.187 134.614 302.599 132.202 305.333 132.202C306.78 132.202 308.71 132.845 310.8 133.971C313.052 135.257 314.338 136.544 314.821 137.83C315.142 138.956 315.303 140.242 315.303 141.69C315.303 142.976 314.981 144.423 314.499 146.192C313.856 148.283 313.052 149.409 311.926 149.409C311.283 149.409 310.479 149.248 309.835 148.765C309.031 148.283 308.71 147.8 308.71 146.996C308.71 146.996 308.87 146.514 309.353 145.549C309.514 145.067 309.674 143.941 309.674 142.011C309.674 140.403 309.675 139.438 309.514 138.956C309.192 137.669 308.71 137.026 307.745 137.026C305.654 137.026 304.046 138.795 302.92 142.333C302.116 144.906 301.634 147.64 301.634 150.374C301.634 154.876 303.081 157.128 305.976 157.128C307.101 157.128 308.388 156.484 309.835 155.359C311.122 154.233 312.087 153.107 312.73 151.982C313.373 150.695 314.177 149.891 315.142 149.891C315.785 149.891 316.429 150.213 316.911 151.017C317.876 151.982 318.198 152.786 318.198 153.429Z" fill="#373B56"/>
<path d="M341.837 161.469C341.033 162.274 339.907 162.595 338.621 162.595C337.656 162.595 336.852 162.113 335.887 160.987C335.887 157.288 335.887 154.394 335.887 152.303C335.887 142.976 334.6 138.312 331.867 138.312C329.133 138.312 327.685 142.011 327.685 149.569C327.685 150.052 327.685 150.534 327.685 151.338C327.685 152.142 327.685 152.786 327.685 153.107C327.685 153.75 327.846 154.715 328.007 156.002C328.168 157.288 328.329 158.253 328.329 158.896C328.329 159.379 328.007 159.861 327.364 160.344C326.721 160.826 326.077 160.987 325.595 160.987C324.469 160.987 323.665 160.505 322.861 159.701C322.057 158.896 321.735 157.932 321.735 156.806L322.057 120.141C322.057 119.98 322.057 119.819 322.057 119.658C322.057 119.497 322.057 119.337 322.057 119.176C322.057 117.728 322.861 116.924 324.63 116.924C325.434 116.924 326.399 117.246 327.364 118.05C328.489 118.854 328.972 119.497 328.972 120.301C328.972 121.266 328.811 122.553 328.329 124.482C328.007 126.251 327.685 127.699 327.685 128.664C327.685 129.789 327.685 131.719 327.846 134.292C328.811 133.81 329.615 133.488 330.258 133.488C331.867 133.488 333.636 133.81 335.565 134.614C337.977 135.739 339.746 137.348 340.711 139.76C341.355 141.529 341.837 143.941 341.837 147.157V161.469Z" fill="#373B56"/>
</svg>
