<svg width="24" height="24" viewBox="0 0 24 24" fill="none" xmlns="http://www.w3.org/2000/svg">
<path d="M11.8994 23.5C18.2507 23.5 23.3994 18.3513 23.3994 12C23.3994 5.64873 18.2507 0.5 11.8994 0.5C5.54814 0.5 0.399414 5.64873 0.399414 12C0.399414 18.3513 5.54814 23.5 11.8994 23.5Z" fill="#E3E2DC"/>
<path d="M15.3998 12.8C15.2998 12.7 15.1998 12.7 15.0998 12.6C14.6998 12.4 14.1998 12.2 13.7998 12C15.9998 10.7 16.3998 8.5 15.7998 6.9C15.1998 5.2 13.5998 4 11.7998 4C9.8998 4 8.29981 5.1 7.69981 6.9C7.19981 8.5 7.4998 10.8 9.7998 12.1C8.8998 12.4 8.09981 12.9 7.39981 13.5C6.09981 14.7 5.3998 16.3 5.2998 18.1C5.2998 18.5 5.39981 18.7 5.69981 18.7C5.99981 18.7 6.09981 18.5 6.09981 18.1C6.09981 17.9 6.09981 17.7 6.19981 17.5C6.69981 13.9 10.4998 11.6 13.8998 13C14.2998 13.2 14.5998 13.4 14.9998 13.6C15.1998 13.7 15.3998 13.7 15.4998 13.5C15.5998 13.2 15.5998 13 15.3998 12.8ZM8.2998 8.2C8.2998 6.3 9.8998 4.8 11.7998 4.8C13.6998 4.8 15.1998 6.4 15.1998 8.3C15.1998 10.2 13.5998 11.7 11.7998 11.7C9.8998 11.6 8.2998 10.1 8.2998 8.2Z" fill="#363B56"/>
<path d="M18.4994 14.3997L14.8994 16.7997C14.6994 16.8997 14.5994 17.1997 14.7994 17.3997C14.8994 17.5997 15.1994 17.6997 15.3994 17.4997L18.9994 15.0997C19.1994 14.9997 19.2994 14.6997 19.0994 14.4997C18.9994 14.2997 18.6994 14.2997 18.4994 14.3997Z" fill="#363B56"/>
<path d="M16.999 18.5C18.3797 18.5 19.499 17.3807 19.499 16C19.499 14.6193 18.3797 13.5 16.999 13.5C15.6183 13.5 14.499 14.6193 14.499 16C14.499 17.3807 15.6183 18.5 16.999 18.5Z" stroke="#363B56" stroke-miterlimit="10"/>
</svg>
