<svg width="30" height="30" viewBox="0 0 30 30" fill="none" xmlns="http://www.w3.org/2000/svg">
<path d="M29.8 14.9C29.8 23.147 23.147 29.8 14.9 29.8C9.42512 29.8 4.64326 26.82 2.00977 22.3847C0.693024 20.167 0 17.6028 0 14.9C0 6.65302 6.65302 0 14.9 0C17.4642 0 19.8898 0.623721 22.0381 1.80186C26.6814 4.36605 29.8 9.28651 29.8 14.9Z" fill="#E3E2DC"/>
<path d="M14.3457 21.3451C12.3359 21.1372 10.6033 20.5134 9.07868 19.3353C7.69263 18.2265 6.7224 16.8404 6.30658 14.9693C5.96007 13.4446 6.02937 12.0586 6.6531 10.6032C7.55403 8.38554 9.07868 6.93019 11.0884 6.02926C13.8605 4.85112 16.7019 4.92043 19.4047 6.30647C21.8303 7.48461 23.2164 9.63298 23.7015 12.4744C23.9787 14.2069 23.4243 15.8009 22.5233 17.2562C21.8303 18.3651 20.9294 19.1967 19.8205 19.8897C19.6819 19.959 19.5433 20.0976 19.474 20.2362C18.2959 22.5925 16.4247 23.7707 14.0684 24.2558C13.6526 24.3251 13.2368 24.3944 12.821 24.3944C12.6131 24.3944 12.2666 24.1865 12.1973 23.9786C12.128 23.7707 12.2666 23.4241 12.4052 23.2162C12.821 22.7311 13.3061 22.3846 13.7912 21.8995C13.9991 21.8302 14.1377 21.6223 14.3457 21.3451ZM14.7615 22.8004C16.0782 22.4539 17.187 21.7609 18.0187 20.6521C18.1573 20.4441 18.2959 20.2362 18.3652 20.0283C18.5731 19.5432 18.8503 19.1967 19.2661 18.9888C22.454 17.1176 24.1173 12.3358 20.5136 8.87066C17.5336 6.02926 12.5438 5.89066 9.42519 8.59345C6.37589 11.2269 6.37589 15.593 9.35589 18.2265C11.0191 19.6818 12.8903 20.2362 14.9694 20.2362C15.8703 20.2362 16.0782 20.7214 15.5931 21.553C15.4545 21.7609 15.3159 22.0381 15.108 22.246C15.108 22.3846 14.9001 22.5925 14.7615 22.8004Z" fill="#363B56"/>
<path d="M18.5038 12.613H10.9498C10.6726 12.613 10.3954 12.4051 10.3954 12.0586V11.92C10.3954 11.6428 10.6033 11.3656 10.9498 11.3656H18.5038C18.781 11.3656 19.0582 11.5735 19.0582 11.92V12.0586C19.0582 12.4051 18.8503 12.613 18.5038 12.613Z" fill="#363B56"/>
<path d="M18.5038 15.2465H10.9498C10.6726 15.2465 10.3954 15.0386 10.3954 14.692V14.5534C10.3954 14.2762 10.6033 13.999 10.9498 13.999H18.5038C18.781 13.999 19.0582 14.2069 19.0582 14.5534V14.692C19.0582 15.0386 18.8503 15.2465 18.5038 15.2465Z" fill="#363B56"/>
</svg>
