<svg width="182" height="101" viewBox="0 0 182 101" fill="none" xmlns="http://www.w3.org/2000/svg">
<path d="M17.7058 56.3745L23.1898 67.4734L35.4304 69.2515L26.5588 77.8798L28.655 90.083L17.7058 84.3183L6.75668 90.083L8.85292 77.8798L0 69.2515L12.2406 67.4734L17.7058 56.3745Z" fill="#F2959B"/>
<path d="M36.0483 15.0293L41.5135 26.1282L53.7542 27.9063L44.9012 36.5533L46.9975 48.7378L36.0483 42.9731L25.0991 48.7378L27.1767 36.5533L18.3237 27.9063L30.5644 26.1282L36.0483 15.0293Z" fill="#F2959B"/>
<path d="M164.276 56.3745L158.81 67.4734L146.57 69.2515L155.423 77.8798L153.326 90.083L164.276 84.3183L175.225 90.083L173.129 77.8798L182 69.2515L169.76 67.4734L164.276 56.3745Z" fill="#F2959B"/>
<path d="M145.952 15.0293L140.468 26.1282L128.228 27.9063L137.08 36.5533L135.003 48.7378L145.952 42.9731L156.901 48.7378L154.805 36.5533L163.658 27.9063L151.417 26.1282L145.952 15.0293Z" fill="#F2959B"/>
<path d="M90.9438 61.6709C85.2353 61.6335 80.631 56.9918 80.6497 51.2645C80.6871 45.556 85.3288 40.933 91.0561 40.9704C96.7647 40.9892 101.388 45.6496 101.35 51.3768C101.313 57.0854 96.6524 61.6897 90.9438 61.6709Z" fill="#162A44"/>
<path d="M117.896 41.9059C117.316 35.5235 110.054 41.0262 110.054 41.0262L108.294 53.061L104.252 58.7695L101.276 62.962C101.276 62.962 94.3318 66.1064 91.0003 66.3684C87.6687 66.1064 80.7249 62.962 80.7249 62.962L77.749 58.7695L73.6875 53.0797L71.9281 41.0449C71.9281 41.0449 64.6474 35.5235 64.0859 41.9246C63.5057 48.3069 65.7329 55.4567 66.2757 57.2909C66.8185 59.1251 70.6554 68.9326 71.011 69.1198C72.2089 69.7374 77.7302 77.7668 77.7302 77.7668L75.8399 100.807L106.142 100.826L104.252 77.7481C104.252 77.7481 109.941 70.6171 110.971 69.101C111.195 68.7641 115.182 59.0877 115.706 57.2722C116.249 55.4567 118.476 48.3069 117.896 41.9059Z" fill="#162A44"/>
<path d="M90.9997 0L96.465 11.0989L108.706 12.877L99.8526 21.5053L101.949 33.7085L90.9997 27.9438L80.0505 33.7085L82.1281 21.5053L73.2751 12.877L85.5158 11.0989L90.9997 0Z" fill="#F2959B"/>
</svg>
