<svg width="208" height="115" viewBox="0 0 208 115" fill="none" xmlns="http://www.w3.org/2000/svg">
<path d="M21.0168 64.2109L27.2347 76.7952L41.1135 78.8112L31.0545 88.5943L33.4313 102.431L21.0168 95.8945L8.60232 102.431L10.9791 88.5943L0.941406 78.8112L14.8202 76.7952L21.0168 64.2109Z" fill="#E3E2DC"/>
<path d="M41.8134 17.333L48.0101 29.9173L61.8889 31.9333L51.8511 41.7376L54.228 55.5527L41.8134 49.0165L29.3989 55.5527L31.7545 41.7376L21.7168 31.9333L35.5956 29.9173L41.8134 17.333Z" fill="#E3E2DC"/>
<path d="M187.2 64.2109L181.004 76.7952L167.125 78.8112L177.163 88.5943L174.786 102.431L187.2 95.8945L199.615 102.431L197.238 88.5943L207.297 78.8112L193.418 76.7952L187.2 64.2109Z" fill="#E3E2DC"/>
<path d="M166.425 17.333L160.207 29.9173L146.328 31.9333L156.366 41.7376L154.01 55.5527L166.425 49.0165L178.839 55.5527L176.462 41.7376L186.5 31.9333L172.621 29.9173L166.425 17.333Z" fill="#E3E2DC"/>
<path d="M104.055 70.2152C97.5821 70.1728 92.3617 64.9099 92.3829 58.4162C92.4253 51.9436 97.6882 46.702 104.182 46.7444C110.654 46.7656 115.896 52.0497 115.854 58.5435C115.811 65.016 110.527 70.2365 104.055 70.2152Z" fill="#162A44"/>
<path d="M134.612 47.8064C133.954 40.5699 125.72 46.809 125.72 46.809L123.725 60.4544L119.142 66.9269L115.767 71.6805C115.767 71.6805 107.894 75.2457 104.117 75.5428C100.34 75.2457 92.4664 71.6805 92.4664 71.6805L89.0922 66.9269L84.4872 60.4756L82.4924 46.8302C82.4924 46.8302 74.2373 40.5699 73.6006 47.8276C72.9428 55.0641 75.4681 63.1707 76.0835 65.2504C76.6989 67.3301 81.0493 78.4501 81.4525 78.6623C82.8107 79.3626 89.071 88.4666 89.071 88.4666L86.9276 114.59L121.285 114.611L119.142 88.4454C119.142 88.4454 125.593 80.36 126.76 78.6411C127.015 78.2591 131.535 67.2876 132.129 65.2292C132.745 63.1707 135.27 55.0641 134.612 47.8064Z" fill="#162A44"/>
<path d="M104.12 0.291992L110.317 12.8763L124.195 14.8923L114.158 24.6754L116.535 38.5117L104.12 31.9755L91.7056 38.5117L94.0611 24.6754L84.0234 14.8923L97.9022 12.8763L104.12 0.291992Z" fill="#E3E2DC"/>
</svg>
