<svg width="182" height="182" viewBox="0 0 182 182" fill="none" xmlns="http://www.w3.org/2000/svg">
<path d="M91.2899 181.25C141.276 181.25 181.798 140.728 181.798 90.7421C181.798 40.7558 141.276 0.233887 91.2899 0.233887C41.3036 0.233887 0.781738 40.7558 0.781738 90.7421C0.781738 140.728 41.3036 181.25 91.2899 181.25Z" fill="#373B56"/>
<path d="M87.9158 62.1112H84.7803V72.4176C84.7803 73.0112 84.6481 73.4531 84.3835 73.7434C84.119 74.0273 83.7771 74.1692 83.3577 74.1692C82.9319 74.1692 82.5835 74.0241 82.3126 73.7337C82.0481 73.4434 81.9158 73.0047 81.9158 72.4176V62.1112H78.7803C78.29 62.1112 77.9255 62.0047 77.6868 61.7918C77.4481 61.5725 77.3287 61.2854 77.3287 60.9305C77.3287 60.5628 77.4513 60.2725 77.6965 60.0596C77.9481 59.8467 78.3094 59.7402 78.7803 59.7402H87.9158C88.4126 59.7402 88.7803 59.8499 89.019 60.0693C89.2642 60.2886 89.3867 60.5757 89.3867 60.9305C89.3867 61.2854 89.2642 61.5725 89.019 61.7918C88.7738 62.0047 88.4061 62.1112 87.9158 62.1112Z" fill="white"/>
<path d="M93.219 61.1047V65.0241C93.5545 64.637 93.8803 64.3305 94.1964 64.1047C94.519 63.8789 94.8738 63.7112 95.2609 63.6015C95.648 63.4854 96.0641 63.4273 96.5093 63.4273C97.1803 63.4273 97.7738 63.5692 98.2899 63.8531C98.8125 64.137 99.2222 64.5499 99.519 65.0918C99.7061 65.408 99.8319 65.7628 99.8964 66.1563C99.9609 66.5434 99.9932 66.9918 99.9932 67.5015V72.5628C99.9932 73.0918 99.8706 73.4918 99.6254 73.7628C99.3867 74.0337 99.0674 74.1692 98.6674 74.1692C97.7964 74.1692 97.3609 73.6337 97.3609 72.5628V68.1015C97.3609 67.2563 97.2351 66.6079 96.9835 66.1563C96.7319 65.6983 96.2545 65.4692 95.5512 65.4692C95.0803 65.4692 94.6545 65.6047 94.2738 65.8757C93.8996 66.1402 93.619 66.5047 93.4319 66.9692C93.29 67.3628 93.219 68.0628 93.219 69.0692V72.5628C93.219 73.0853 93.0996 73.4853 92.8609 73.7628C92.6287 74.0337 92.3029 74.1692 91.8835 74.1692C91.0126 74.1692 90.5771 73.6337 90.5771 72.5628V61.1047C90.5771 60.5693 90.69 60.1693 90.9158 59.9047C91.148 59.6338 91.4706 59.4983 91.8835 59.4983C92.3029 59.4983 92.6287 59.6338 92.8609 59.9047C93.0996 60.1757 93.219 60.5757 93.219 61.1047Z" fill="white"/>
<path d="M109.99 69.4466H104.822C104.829 70.0466 104.948 70.5757 105.18 71.0337C105.419 71.4918 105.732 71.837 106.119 72.0692C106.513 72.3015 106.945 72.4176 107.416 72.4176C107.732 72.4176 108.019 72.3821 108.277 72.3112C108.542 72.2337 108.796 72.1176 109.042 71.9628C109.287 71.8015 109.512 71.6305 109.719 71.4499C109.925 71.2692 110.193 71.0241 110.522 70.7144C110.658 70.5983 110.851 70.5402 111.103 70.5402C111.374 70.5402 111.593 70.6144 111.761 70.7628C111.929 70.9112 112.012 71.1208 112.012 71.3918C112.012 71.6305 111.919 71.9112 111.732 72.2337C111.545 72.5499 111.261 72.8563 110.88 73.1531C110.506 73.4434 110.032 73.6853 109.458 73.8789C108.89 74.0724 108.235 74.1692 107.493 74.1692C105.796 74.1692 104.477 73.6853 103.535 72.7176C102.593 71.7499 102.122 70.437 102.122 68.7789C102.122 67.9983 102.238 67.2757 102.471 66.6112C102.703 65.9402 103.042 65.366 103.487 64.8886C103.932 64.4112 104.48 64.0467 105.132 63.7951C105.783 63.537 106.506 63.408 107.3 63.408C108.332 63.408 109.216 63.6273 109.951 64.066C110.693 64.4983 111.248 65.0596 111.616 65.7499C111.983 66.4402 112.167 67.1434 112.167 67.8596C112.167 68.5241 111.977 68.9563 111.596 69.1563C111.216 69.3499 110.68 69.4466 109.99 69.4466ZM104.822 67.9467H109.612C109.548 67.0434 109.303 66.3692 108.877 65.9241C108.458 65.4725 107.903 65.2467 107.213 65.2467C106.554 65.2467 106.013 65.4757 105.587 65.9338C105.167 66.3854 104.913 67.0563 104.822 67.9467Z" fill="white"/>
<path d="M61.8352 93.3601C61.8352 93.6892 61.7352 94.0408 61.5352 94.415C61.3417 94.7892 61.0417 95.1472 60.6352 95.4892C60.2352 95.8246 59.7288 96.0956 59.1159 96.3021C58.503 96.5085 57.8126 96.6117 57.0449 96.6117C55.4127 96.6117 54.1385 96.1375 53.2223 95.1892C52.3062 94.2343 51.8481 92.9569 51.8481 91.3569C51.8481 90.273 52.0578 89.315 52.4772 88.4827C52.8965 87.6505 53.503 87.0085 54.2965 86.5569C55.0901 86.0989 56.0385 85.8698 57.1417 85.8698C57.8255 85.8698 58.4514 85.9698 59.0191 86.1698C59.5933 86.3698 60.0772 86.6279 60.4707 86.944C60.8707 87.2601 61.1739 87.5989 61.3804 87.9601C61.5933 88.315 61.6997 88.6472 61.6997 88.9569C61.6997 89.273 61.5804 89.5408 61.3417 89.7601C61.1094 89.9795 60.8255 90.0892 60.4901 90.0892C60.2707 90.0892 60.0868 90.0343 59.9384 89.9247C59.7965 89.8085 59.6352 89.6247 59.4546 89.373C59.132 88.8827 58.7933 88.515 58.4384 88.2698C58.0901 88.0247 57.6449 87.9021 57.103 87.9021C56.3223 87.9021 55.6933 88.2085 55.2159 88.8214C54.7385 89.4279 54.4997 90.2601 54.4997 91.3182C54.4997 91.815 54.561 92.273 54.6836 92.6924C54.8062 93.1053 54.9836 93.4601 55.2159 93.7569C55.4481 94.0472 55.7288 94.2698 56.0578 94.4246C56.3868 94.573 56.7481 94.6472 57.1417 94.6472C57.6707 94.6472 58.1223 94.5246 58.4965 94.2795C58.8772 94.0343 59.2126 93.6601 59.503 93.1569C59.6643 92.8601 59.8384 92.6279 60.0255 92.4601C60.2126 92.2924 60.4417 92.2085 60.7126 92.2085C61.0352 92.2085 61.303 92.3311 61.5159 92.5763C61.7288 92.8214 61.8352 93.0827 61.8352 93.3601Z" fill="white"/>
<path d="M74.0384 91.2601C74.0384 92.0472 73.9158 92.773 73.6707 93.4375C73.4255 94.1021 73.0707 94.673 72.6061 95.1504C72.1416 95.6279 71.5868 95.9956 70.9416 96.2537C70.2965 96.5053 69.5707 96.6311 68.7642 96.6311C67.9642 96.6311 67.2449 96.5021 66.6062 96.244C65.9675 95.9859 65.4126 95.6182 64.9417 95.1408C64.4771 94.6569 64.1223 94.0892 63.8771 93.4375C63.6384 92.7795 63.5191 92.0537 63.5191 91.2601C63.5191 90.4601 63.6417 89.7279 63.8868 89.0634C64.132 88.3989 64.4836 87.8311 64.9417 87.3601C65.3997 86.8892 65.9546 86.5279 66.6062 86.2763C67.2578 86.0182 67.9771 85.8892 68.7642 85.8892C69.5642 85.8892 70.29 86.0182 70.9416 86.2763C71.5933 86.5343 72.1513 86.9021 72.6158 87.3795C73.0803 87.8569 73.432 88.4247 73.6707 89.0827C73.9158 89.7408 74.0384 90.4666 74.0384 91.2601ZM71.3868 91.2601C71.3868 90.1827 71.1481 89.344 70.6707 88.744C70.1997 88.144 69.5642 87.844 68.7642 87.844C68.2481 87.844 67.7933 87.9795 67.3997 88.2505C67.0062 88.515 66.7029 88.9085 66.49 89.4311C66.2771 89.9537 66.1707 90.5634 66.1707 91.2601C66.1707 91.9505 66.2739 92.5537 66.4804 93.0698C66.6933 93.5859 66.9933 93.9827 67.3804 94.2601C67.7739 94.5311 68.2352 94.6666 68.7642 94.6666C69.5642 94.6666 70.1997 94.3666 70.6707 93.7666C71.1481 93.1601 71.3868 92.3246 71.3868 91.2601Z" fill="white"/>
<path d="M84.9158 91.4537V94.9666C84.9158 95.5214 84.79 95.9375 84.5384 96.215C84.2868 96.4924 83.9545 96.6311 83.5416 96.6311C83.1416 96.6311 82.8158 96.4924 82.5642 96.215C82.319 95.9375 82.1964 95.5214 82.1964 94.9666V90.7569C82.1964 90.0924 82.1739 89.5763 82.1287 89.2085C82.0835 88.8408 81.961 88.5408 81.761 88.3085C81.561 88.0698 81.2448 87.9505 80.8126 87.9505C79.9481 87.9505 79.3771 88.2472 79.0997 88.8408C78.8287 89.4343 78.6932 90.2859 78.6932 91.3956V94.9666C78.6932 95.515 78.5674 95.9311 78.3158 96.215C78.0707 96.4924 77.7448 96.6311 77.3384 96.6311C76.9384 96.6311 76.6094 96.4924 76.3513 96.215C76.0997 95.9311 75.9739 95.515 75.9739 94.9666V87.4085C75.9739 86.9118 76.0868 86.5343 76.3126 86.2763C76.5448 86.0182 76.8481 85.8892 77.2223 85.8892C77.5836 85.8892 77.8836 86.0118 78.1223 86.2569C78.3674 86.4956 78.49 86.8279 78.49 87.2537V87.5053C78.9481 86.9569 79.4384 86.5537 79.961 86.2956C80.4835 86.0376 81.0642 85.9085 81.7029 85.9085C82.3674 85.9085 82.9384 86.0408 83.4158 86.3053C83.8932 86.5698 84.2868 86.9698 84.5964 87.5053C85.0416 86.9634 85.519 86.5634 86.0287 86.3053C86.5384 86.0408 87.1029 85.9085 87.7222 85.9085C88.4448 85.9085 89.0674 86.0505 89.59 86.3343C90.1126 86.6182 90.5029 87.0247 90.7609 87.5537C90.9867 88.0311 91.0996 88.7827 91.0996 89.8085V94.9666C91.0996 95.5214 90.9738 95.9375 90.7222 96.215C90.4706 96.4924 90.1384 96.6311 89.7255 96.6311C89.3255 96.6311 88.9964 96.4924 88.7384 96.215C88.4868 95.9311 88.3609 95.515 88.3609 94.9666V90.5247C88.3609 89.9569 88.3351 89.5021 88.2835 89.1601C88.2384 88.8182 88.1093 88.5311 87.8964 88.2989C87.6835 88.0666 87.3609 87.9505 86.9287 87.9505C86.5803 87.9505 86.248 88.0537 85.9319 88.2601C85.6222 88.4666 85.3803 88.744 85.2061 89.0924C85.0126 89.5376 84.9158 90.3247 84.9158 91.4537Z" fill="white"/>
<path d="M96.1029 87.3698V87.6892C96.5996 87.0763 97.1158 86.6279 97.6512 86.344C98.1867 86.0537 98.7932 85.9085 99.4706 85.9085C100.283 85.9085 101.032 86.1182 101.716 86.5376C102.4 86.9569 102.938 87.5698 103.332 88.3763C103.732 89.1827 103.932 90.1376 103.932 91.2408C103.932 92.0537 103.816 92.8021 103.583 93.4859C103.358 94.1633 103.045 94.7343 102.645 95.1988C102.245 95.6569 101.771 96.0117 101.222 96.2633C100.68 96.5085 100.096 96.6311 99.4706 96.6311C98.7158 96.6311 98.0803 96.4795 97.5641 96.1762C97.0545 95.873 96.5674 95.4279 96.1029 94.8408V98.8085C96.1029 99.9698 95.6803 100.55 94.8351 100.55C94.3383 100.55 94.0093 100.399 93.848 100.096C93.6867 99.7988 93.6061 99.3633 93.6061 98.7891V87.3892C93.6061 86.886 93.7158 86.5118 93.9351 86.2666C94.1545 86.015 94.4545 85.8892 94.8351 85.8892C95.2093 85.8892 95.5125 86.0182 95.7448 86.2763C95.9835 86.5279 96.1029 86.8924 96.1029 87.3698ZM101.28 91.2117C101.28 90.515 101.174 89.9182 100.961 89.4214C100.748 88.9182 100.451 88.5343 100.071 88.2698C99.6964 87.9989 99.2803 87.8634 98.8222 87.8634C98.0932 87.8634 97.477 88.1505 96.9738 88.7247C96.4771 89.2988 96.2287 90.144 96.2287 91.2601C96.2287 92.3117 96.4771 93.1311 96.9738 93.7182C97.4706 94.2988 98.0867 94.5892 98.8222 94.5892C99.2609 94.5892 99.6674 94.4633 100.042 94.2117C100.416 93.9537 100.716 93.5698 100.942 93.0601C101.167 92.5505 101.28 91.9343 101.28 91.2117Z" fill="white"/>
<path d="M112.729 95.1408C112.09 95.6375 111.471 96.0117 110.871 96.2633C110.277 96.5085 109.609 96.6311 108.867 96.6311C108.19 96.6311 107.593 96.4988 107.077 96.2343C106.567 95.9633 106.174 95.5988 105.896 95.1408C105.619 94.6827 105.48 94.1859 105.48 93.6504C105.48 92.9279 105.709 92.3117 106.167 91.8021C106.625 91.2924 107.254 90.9505 108.054 90.7763C108.222 90.7376 108.638 90.6505 109.303 90.515C109.967 90.3795 110.535 90.2569 111.006 90.1472C111.483 90.0311 112 89.8924 112.554 89.7311C112.522 89.0343 112.38 88.5247 112.129 88.2021C111.883 87.873 111.371 87.7085 110.59 87.7085C109.919 87.7085 109.412 87.8021 109.071 87.9892C108.735 88.1763 108.445 88.4569 108.2 88.8311C107.961 89.2053 107.79 89.4537 107.687 89.5763C107.59 89.6924 107.377 89.7505 107.048 89.7505C106.751 89.7505 106.493 89.6569 106.274 89.4698C106.061 89.2763 105.954 89.0311 105.954 88.7343C105.954 88.2698 106.119 87.8182 106.448 87.3795C106.777 86.9408 107.29 86.5795 107.987 86.2956C108.683 86.0118 109.551 85.8698 110.59 85.8698C111.751 85.8698 112.664 86.0085 113.329 86.286C113.993 86.5569 114.461 86.9892 114.732 87.5827C115.009 88.1763 115.148 88.9634 115.148 89.944C115.148 90.5634 115.145 91.0892 115.138 91.5214C115.138 91.9537 115.135 92.4343 115.129 92.9634C115.129 93.4601 115.209 93.9795 115.371 94.5214C115.538 95.0569 115.622 95.4021 115.622 95.5569C115.622 95.8279 115.493 96.0762 115.235 96.3021C114.983 96.5214 114.696 96.6311 114.374 96.6311C114.103 96.6311 113.835 96.5053 113.571 96.2537C113.306 95.9956 113.025 95.6246 112.729 95.1408ZM112.554 91.3182C112.167 91.4601 111.603 91.6117 110.861 91.773C110.125 91.9279 109.616 92.044 109.332 92.1214C109.048 92.1924 108.777 92.3376 108.519 92.5569C108.261 92.7698 108.132 93.0698 108.132 93.4569C108.132 93.8569 108.283 94.1988 108.587 94.4827C108.89 94.7601 109.287 94.8988 109.777 94.8988C110.3 94.8988 110.78 94.7859 111.219 94.5601C111.664 94.3279 111.99 94.0311 112.196 93.6698C112.435 93.2698 112.554 92.6117 112.554 91.6956V91.3182Z" fill="white"/>
<path d="M120.238 87.3505V87.6698C120.703 87.0569 121.209 86.6085 121.758 86.3247C122.312 86.0343 122.948 85.8892 123.664 85.8892C124.361 85.8892 124.983 86.0408 125.532 86.344C126.08 86.6472 126.49 87.0763 126.761 87.6311C126.935 87.9537 127.048 88.3021 127.1 88.6763C127.151 89.0505 127.177 89.5279 127.177 90.1085V95.0246C127.177 95.5537 127.054 95.9537 126.809 96.2246C126.571 96.4956 126.258 96.6311 125.871 96.6311C125.477 96.6311 125.158 96.4924 124.912 96.215C124.667 95.9375 124.545 95.5408 124.545 95.0246V90.6214C124.545 89.7505 124.422 89.0859 124.177 88.6279C123.938 88.1634 123.458 87.9311 122.735 87.9311C122.264 87.9311 121.835 88.073 121.448 88.3569C121.061 88.6343 120.777 89.0182 120.596 89.5085C120.467 89.9021 120.403 90.6376 120.403 91.715V95.0246C120.403 95.5601 120.277 95.9633 120.025 96.2343C119.78 96.4988 119.461 96.6311 119.067 96.6311C118.687 96.6311 118.374 96.4924 118.129 96.215C117.883 95.9375 117.761 95.5408 117.761 95.0246V87.3892C117.761 86.886 117.871 86.5118 118.09 86.2666C118.309 86.015 118.609 85.8892 118.99 85.8892C119.222 85.8892 119.432 85.944 119.619 86.0537C119.806 86.1634 119.954 86.3279 120.064 86.5472C120.18 86.7666 120.238 87.0343 120.238 87.3505Z" fill="white"/>
<path d="M132.258 96.9601L132.5 96.3698L129.248 88.1827C129.048 87.7118 128.948 87.3698 128.948 87.1569C128.948 86.9311 129.006 86.7214 129.122 86.5279C129.238 86.3343 129.396 86.1795 129.596 86.0634C129.803 85.9472 130.016 85.8892 130.235 85.8892C130.616 85.8892 130.903 86.0118 131.096 86.2569C131.29 86.4956 131.461 86.8408 131.609 87.2924L133.845 93.7956L135.964 87.7472C136.132 87.2569 136.283 86.873 136.419 86.5956C136.554 86.3182 136.696 86.1311 136.845 86.0343C137 85.9376 137.216 85.8892 137.493 85.8892C137.693 85.8892 137.883 85.944 138.064 86.0537C138.251 86.1569 138.393 86.2989 138.49 86.4795C138.593 86.6601 138.645 86.8505 138.645 87.0505C138.619 87.173 138.577 87.3472 138.519 87.573C138.461 87.7989 138.39 88.0279 138.306 88.2601L134.861 97.2795C134.564 98.073 134.274 98.6956 133.99 99.1472C133.706 99.5988 133.329 99.944 132.858 100.183C132.393 100.428 131.764 100.55 130.97 100.55C130.196 100.55 129.616 100.467 129.229 100.299C128.841 100.131 128.648 99.8246 128.648 99.3795C128.648 99.0762 128.738 98.8408 128.919 98.673C129.106 98.5117 129.38 98.4311 129.741 98.4311C129.883 98.4311 130.022 98.4504 130.158 98.4891C130.325 98.5279 130.47 98.5472 130.593 98.5472C130.896 98.5472 131.135 98.502 131.309 98.4117C131.483 98.3214 131.638 98.1633 131.774 97.9375C131.916 97.7182 132.077 97.3924 132.258 96.9601Z" fill="white"/>
<path d="M75.8481 117.487V106.028C75.8481 105.499 75.9642 105.099 76.1965 104.828C76.4352 104.558 76.7545 104.422 77.1545 104.422C77.5545 104.422 77.8771 104.558 78.1223 104.828C78.3674 105.093 78.49 105.493 78.49 106.028V117.487C78.49 118.022 78.3642 118.425 78.1126 118.696C77.8674 118.961 77.5481 119.093 77.1545 119.093C76.7674 119.093 76.4513 118.954 76.2061 118.677C75.9674 118.399 75.8481 118.003 75.8481 117.487Z" fill="white"/>
<path d="M91.119 113.722C91.119 114.509 90.9964 115.235 90.7513 115.899C90.5061 116.564 90.1513 117.135 89.6867 117.612C89.2222 118.09 88.6674 118.457 88.0222 118.716C87.3771 118.967 86.6513 119.093 85.8448 119.093C85.0448 119.093 84.3255 118.964 83.6868 118.706C83.0481 118.448 82.4932 118.08 82.0223 117.603C81.5577 117.119 81.2029 116.551 80.9577 115.899C80.719 115.241 80.5997 114.516 80.5997 113.722C80.5997 112.922 80.7223 112.19 80.9674 111.525C81.2126 110.861 81.5642 110.293 82.0223 109.822C82.4803 109.351 83.0352 108.99 83.6868 108.738C84.3384 108.48 85.0577 108.351 85.8448 108.351C86.6448 108.351 87.3706 108.48 88.0222 108.738C88.6738 108.996 89.2319 109.364 89.6964 109.841C90.1609 110.319 90.5126 110.887 90.7513 111.545C90.9964 112.203 91.119 112.928 91.119 113.722ZM88.4674 113.722C88.4674 112.645 88.2287 111.806 87.7513 111.206C87.2803 110.606 86.6448 110.306 85.8448 110.306C85.3287 110.306 84.8739 110.441 84.4803 110.712C84.0868 110.977 83.7835 111.37 83.5706 111.893C83.3577 112.416 83.2513 113.025 83.2513 113.722C83.2513 114.412 83.3545 115.016 83.561 115.532C83.7739 116.048 84.0739 116.445 84.461 116.722C84.8545 116.993 85.3158 117.128 85.8448 117.128C86.6448 117.128 87.2803 116.828 87.7513 116.228C88.2287 115.622 88.4674 114.787 88.4674 113.722Z" fill="white"/>
<path d="M102.925 110.287V117.961C102.925 118.838 102.832 119.593 102.645 120.225C102.458 120.857 102.158 121.38 101.745 121.793C101.332 122.206 100.79 122.512 100.119 122.712C99.4545 122.912 98.6254 123.012 97.6319 123.012C96.7222 123.012 95.9093 122.883 95.1932 122.625C94.4771 122.374 93.9254 122.045 93.5383 121.638C93.1513 121.238 92.9577 120.825 92.9577 120.399C92.9577 120.077 93.0674 119.812 93.2867 119.606C93.5061 119.406 93.7706 119.306 94.0803 119.306C94.4674 119.306 94.8061 119.477 95.0964 119.819C95.2383 119.993 95.3835 120.167 95.5319 120.341C95.6867 120.522 95.8545 120.674 96.0351 120.796C96.2222 120.925 96.4448 121.019 96.7029 121.077C96.9609 121.141 97.2577 121.174 97.5932 121.174C98.277 121.174 98.8061 121.077 99.1803 120.883C99.5609 120.696 99.8254 120.432 99.9738 120.09C100.129 119.748 100.219 119.38 100.245 118.987C100.271 118.599 100.29 117.974 100.303 117.109C99.8964 117.677 99.4254 118.109 98.8899 118.406C98.3609 118.703 97.7287 118.851 96.9932 118.851C96.1093 118.851 95.3351 118.625 94.6706 118.174C94.0125 117.722 93.5061 117.09 93.1513 116.277C92.7964 115.464 92.619 114.525 92.619 113.461C92.619 112.667 92.7254 111.951 92.9384 111.312C93.1577 110.674 93.4674 110.135 93.8674 109.696C94.2674 109.257 94.7287 108.928 95.2512 108.709C95.7738 108.483 96.348 108.37 96.9738 108.37C97.7222 108.37 98.3706 108.516 98.919 108.806C99.4674 109.09 99.977 109.538 100.448 110.151V109.793C100.448 109.335 100.561 108.98 100.787 108.728C101.013 108.477 101.303 108.351 101.658 108.351C102.167 108.351 102.506 108.519 102.674 108.854C102.842 109.183 102.925 109.661 102.925 110.287ZM95.2706 113.635C95.2706 114.706 95.5029 115.516 95.9674 116.064C96.4383 116.612 97.0448 116.887 97.7867 116.887C98.2254 116.887 98.6383 116.77 99.0254 116.538C99.419 116.299 99.7383 115.945 99.9835 115.474C100.229 114.996 100.351 114.419 100.351 113.741C100.351 112.664 100.113 111.825 99.6351 111.225C99.1641 110.625 98.5416 110.325 97.7674 110.325C97.0125 110.325 96.4061 110.612 95.948 111.187C95.4964 111.761 95.2706 112.577 95.2706 113.635Z" fill="white"/>
<path d="M114.983 113.722C114.983 114.509 114.861 115.235 114.616 115.899C114.371 116.564 114.016 117.135 113.551 117.612C113.087 118.09 112.532 118.457 111.887 118.716C111.242 118.967 110.516 119.093 109.709 119.093C108.909 119.093 108.19 118.964 107.551 118.706C106.913 118.448 106.358 118.08 105.887 117.603C105.422 117.119 105.067 116.551 104.822 115.899C104.583 115.241 104.464 114.516 104.464 113.722C104.464 112.922 104.587 112.19 104.832 111.525C105.077 110.861 105.429 110.293 105.887 109.822C106.345 109.351 106.9 108.99 107.551 108.738C108.203 108.48 108.922 108.351 109.709 108.351C110.509 108.351 111.235 108.48 111.887 108.738C112.538 108.996 113.096 109.364 113.561 109.841C114.025 110.319 114.377 110.887 114.616 111.545C114.861 112.203 114.983 112.928 114.983 113.722ZM112.332 113.722C112.332 112.645 112.093 111.806 111.616 111.206C111.145 110.606 110.509 110.306 109.709 110.306C109.193 110.306 108.738 110.441 108.345 110.712C107.951 110.977 107.648 111.37 107.435 111.893C107.222 112.416 107.116 113.025 107.116 113.722C107.116 114.412 107.219 115.016 107.425 115.532C107.638 116.048 107.938 116.445 108.325 116.722C108.719 116.993 109.18 117.128 109.709 117.128C110.509 117.128 111.145 116.828 111.616 116.228C112.093 115.622 112.332 114.787 112.332 113.722Z" fill="white"/>
</svg>
