<svg width="43" height="44" viewBox="0 0 43 44" fill="none" xmlns="http://www.w3.org/2000/svg">
<g clip-path="url(#clip0_196_1483)">
<path d="M21.5868 43.2683C33.347 43.2683 42.8806 33.7347 42.8806 21.9745C42.8806 10.2142 33.347 0.680664 21.5868 0.680664C9.82653 0.680664 0.292969 10.2142 0.292969 21.9745C0.292969 33.7347 9.82653 43.2683 21.5868 43.2683Z" fill="#E3E2DC"/>
<path d="M28.458 29.3847C27.4075 26.7869 26.0589 23.82 23.461 24.8704C22.6802 25.1828 22.0272 25.6654 21.5162 26.2616C20.0966 24.3168 19.1597 22.1306 18.7338 19.7173C18.7054 19.5612 18.677 19.405 18.6628 19.2489C19.4578 19.3341 20.2811 19.2347 21.0761 18.9082C23.674 17.8577 23.3333 16.6226 22.2828 14.0248C21.2323 11.4269 19.8837 8.46001 17.2858 9.51051C15.3694 10.2771 14.1911 12.0942 14.1201 14.0248C13.9498 15.3734 13.8078 17.6305 14.2479 20.2852C14.6738 22.7695 15.5255 25.126 16.789 27.2695C17.9672 29.2712 19.5146 31.0882 21.3742 32.6924C22.7228 34.4243 25.1077 35.1341 27.2513 34.2681C29.835 33.2318 29.5085 31.9826 28.458 29.3847Z" fill="#373B56"/>
</g>
<defs>
<clipPath id="clip0_196_1483">
<rect width="42.5876" height="42.5876" fill="white" transform="translate(0.292969 0.680664)"/>
</clipPath>
</defs>
</svg>
