<svg width="56" height="33" viewBox="0 0 56 33" fill="none" xmlns="http://www.w3.org/2000/svg">
<path d="M29.7844 0C22.5259 0 15.5178 0 8.50962 0C6.50729 0 5.25586 1.50175 5.25586 3.50408C5.25586 4.25496 5.25586 5.00584 5.25586 5.75671C5.25586 12.014 5.25586 18.5216 5.25586 24.7789C5.25586 26.0303 5.75647 27.2818 7.00793 28.0327C7.7588 28.5332 9.0102 28.5332 9.76108 28.5332C20.5236 28.5332 31.5364 28.5332 42.299 28.5332C42.7996 28.5332 43.5505 28.5332 44.051 28.2829C45.3025 28.0326 46.0534 27.0315 46.554 25.5297C33.5388 25.5297 20.7739 25.5297 8.00908 25.5297C8.00908 17.7707 8.00908 10.262 8.00908 2.50291C15.2675 2.50291 22.5259 2.50291 29.7844 2.50291C29.7844 1.75204 29.7844 1.00117 29.7844 0Z" fill="#3E3E3E"/>
<path d="M51.8104 30.2855C51.3098 30.2855 50.8092 30.2855 50.3086 30.2855C43.3004 30.7861 36.5426 29.7849 29.5344 30.7861C26.5309 31.2867 23.5274 30.5358 20.2736 30.2855C14.0163 29.7849 7.50874 30.0352 1.25146 30.0352C0.750874 30.0352 0.500583 30.0352 0 30.0352C0.500583 31.7873 1.25147 32.7884 2.75322 32.7884C18.021 32.7884 33.2888 32.7884 48.5565 32.7884C50.3086 33.0387 51.3098 32.0375 51.8104 30.2855Z" fill="#3E3E3E"/>
<path d="M51.5588 13.5159C50.3073 14.7674 49.8067 15.7686 49.8067 17.2703C50.057 18.7721 49.8067 20.5241 49.8067 22.0258C49.8067 23.027 49.5564 23.2773 48.5553 23.2773C43.7997 23.2773 38.7939 23.2773 34.0384 23.2773C33.0372 23.2773 32.7869 23.027 32.7869 22.0258C32.7869 15.7686 32.7869 9.51128 32.7869 3.254C32.7869 2.25283 33.0372 2.00254 34.0384 2.00254C38.7939 2.00254 43.5495 2.00254 48.305 2.00254C49.3062 2.00254 49.8068 2.50312 49.5565 3.50429C49.5565 4.75574 49.5565 6.0072 49.5565 7.50894C51.5588 6.25749 51.3085 4.25516 51.3085 2.50312C51.3085 1.25166 50.5576 0.50078 49.3062 0.250488C44.0501 0.250488 38.5437 0.250488 33.2875 0.250488C32.0361 0.250488 31.2852 1.00137 31.2852 2.50312C31.2852 9.26099 31.2852 16.2692 31.2852 23.027C31.2852 24.2785 32.0361 25.0294 33.2875 25.0294C38.5437 25.0294 44.0501 25.0294 49.3062 25.0294C50.5576 25.0294 51.3085 24.2785 51.3085 23.027C51.5588 19.7732 51.5588 16.7697 51.5588 13.5159Z" fill="#3E3E3E"/>
<path d="M43.8008 19.5224C45.5528 18.7715 46.8043 18.2709 47.8055 17.0194C50.0581 13.7657 52.3107 10.7622 54.8136 7.75867C53.8124 7.00779 53.0616 6.50722 52.3107 5.75635C49.5575 9.26043 47.0546 12.7645 44.5517 16.2686C43.8008 16.7692 44.0511 18.0206 43.8008 19.5224Z" fill="#3E3E3E"/>
<path d="M22.0254 7.50928C22.0254 10.2625 22.0254 13.0157 22.0254 16.0192C24.7786 14.5174 27.2815 13.266 30.0347 11.7642C27.2815 10.0122 24.5283 8.76073 22.0254 7.50928Z" fill="#3E3E3E"/>
<path d="M29.7844 20.7739C27.0312 20.7739 24.5283 20.7739 22.0254 20.7739C22.0254 21.2745 22.0254 21.7751 22.0254 22.2757C24.7786 22.2757 27.2815 22.2757 29.7844 22.2757C29.7844 21.7751 29.7844 21.2745 29.7844 20.7739Z" fill="#3E3E3E"/>
<path d="M15.0198 20.7739C13.2678 20.7739 11.5157 20.7739 9.76367 20.7739C9.76367 21.2745 9.76367 21.7751 9.76367 22.2757C11.5157 22.2757 13.2678 22.2757 15.0198 22.2757C15.0198 21.7751 15.0198 21.2745 15.0198 20.7739Z" fill="#3E3E3E"/>
<path d="M18.0196 19.7734C17.0185 19.7734 16.2676 20.5243 16.2676 21.7758C16.2676 22.7769 17.0185 23.5278 18.27 23.5278C19.5214 23.5278 20.022 22.7769 20.022 21.7758C20.022 20.5243 19.2711 19.7734 18.0196 19.7734Z" fill="#3E3E3E"/>
<path d="M52.8105 5.00553C53.8117 5.7564 54.5626 6.25699 55.3135 7.00787C56.0643 6.0067 56.0643 5.25583 55.0632 4.50495C54.062 3.75408 53.3111 4.00436 52.8105 5.00553Z" fill="#3E3E3E"/>
<path d="M47.0531 7.25809H35.79C35.2894 7.25809 35.0391 7.00779 35.0391 6.50721C35.0391 6.00663 35.2894 5.75635 35.79 5.75635H47.0531C47.5537 5.75635 47.8039 6.00663 47.8039 6.50721C47.8039 7.00779 47.3034 7.25809 47.0531 7.25809Z" fill="#3E3E3E"/>
<path d="M43.549 11.7645H35.79C35.2894 11.7645 35.0391 11.5142 35.0391 11.0136C35.0391 10.513 35.2894 10.2627 35.79 10.2627H43.549C44.0495 10.2627 44.2999 10.513 44.2999 11.0136C44.2999 11.5142 44.0495 11.7645 43.549 11.7645Z" fill="#3E3E3E"/>
<path d="M42.2975 16.2689H35.79C35.2894 16.2689 35.0391 16.0186 35.0391 15.518C35.0391 15.0174 35.2894 14.7671 35.79 14.7671H42.2975C42.7981 14.7671 43.0484 15.0174 43.0484 15.518C43.0484 16.0186 42.5478 16.2689 42.2975 16.2689Z" fill="#3E3E3E"/>
</svg>
