<svg width="24" height="24" viewBox="0 0 24 24" fill="none" xmlns="http://www.w3.org/2000/svg">
<path d="M11.8994 23.7998C18.2507 23.7998 23.3994 18.6511 23.3994 12.2998C23.3994 5.94853 18.2507 0.799805 11.8994 0.799805C5.54814 0.799805 0.399414 5.94853 0.399414 12.2998C0.399414 18.6511 5.54814 23.7998 11.8994 23.7998Z" fill="#E3E2DC"/>
<path d="M5.49902 8C9.09902 8 12.699 8 16.299 8C16.299 8.6 16.199 9.3 16.199 9.9C15.899 13.4 15.599 16.8 15.299 20.3C15.299 20.8 15.099 20.9 14.599 20.9C12.199 20.9 9.79902 20.9 7.49902 20.9C6.89902 20.9 6.69902 20.7 6.69902 20.2C6.39902 16.9 6.09902 13.6 5.79902 10.3C5.59902 9.5 5.59902 8.8 5.49902 8ZM5.99902 8.4C5.99902 8.5 5.99902 8.6 5.99902 8.7C6.29902 12.5 6.69902 16.3 6.99902 20.1C6.99902 20.5 7.19902 20.5 7.49902 20.5C9.79902 20.5 11.999 20.5 14.299 20.5C14.699 20.5 14.799 20.4 14.899 20C15.199 17 15.399 14.1 15.699 11.1C15.799 10.2 15.799 9.3 15.899 8.4C12.499 8.4 9.29902 8.4 5.99902 8.4Z" stroke="#363B56" stroke-width="0.5" stroke-miterlimit="10" stroke-linecap="round" stroke-linejoin="round"/>
<path d="M8.79929 4.79997C8.69929 3.49997 8.79929 3.49997 10.2993 3.09997C10.9993 2.89997 11.1993 3.09997 11.5993 4.09997C12.2993 3.89997 13.0993 3.69997 13.7993 3.49997C14.1993 3.39997 14.6993 3.29997 15.0993 3.19997C15.7993 2.99997 16.0993 3.19997 16.1993 3.89997C16.3993 4.59997 16.1993 4.89997 15.4993 4.99997C12.7993 5.69997 10.0993 6.39997 7.39929 7.09997C6.79929 7.29997 6.29929 7.39997 5.69929 7.59997C4.99929 7.79997 4.69929 7.59997 4.49929 6.89997C4.29929 6.29997 4.49929 5.99997 5.19929 5.79997C6.29929 5.49997 7.29929 5.19997 8.39929 4.99997C8.59929 4.89997 8.69929 4.79997 8.79929 4.79997ZM15.8993 4.29997C15.8993 3.59997 15.6993 3.39997 15.1993 3.49997C11.8993 4.39997 8.69929 5.19997 5.39929 6.09997C4.99929 6.19997 4.79929 6.39997 4.99929 6.79997C5.09929 7.19997 5.29929 7.29997 5.69929 7.19997C6.79929 6.89997 7.99929 6.59997 9.09929 6.29997C11.1993 5.79997 13.1993 5.19997 15.2993 4.69997C15.5993 4.59997 15.7993 4.39997 15.8993 4.29997ZM9.29929 4.59997C9.89929 4.39997 10.3993 4.29997 10.8993 4.09997C10.8993 3.59997 10.6993 3.39997 10.2993 3.59997C10.0993 3.69997 9.89929 3.69997 9.59929 3.79997C9.19929 3.89997 9.09929 4.09997 9.29929 4.59997Z" stroke="#363B56" stroke-width="0.5" stroke-miterlimit="10" stroke-linecap="round" stroke-linejoin="round"/>
<path d="M15.1992 6.3998C15.9992 5.6998 16.7992 4.9998 17.5992 4.2998V5.5998C18.0992 5.6998 18.7992 5.7998 19.4992 6.2998C21.0992 7.4998 21.2992 9.6998 21.0992 9.7998C20.8992 9.8998 20.5992 8.0998 18.9992 7.3998C18.4992 7.1998 17.9992 7.0998 17.5992 7.0998C17.5992 7.4998 17.5992 7.9998 17.5992 8.3998C16.7992 7.7998 15.9992 7.0998 15.1992 6.3998Z" stroke="#363B56" stroke-width="0.5" stroke-miterlimit="10" stroke-linecap="round" stroke-linejoin="round"/>
<path d="M8.49941 18.6996L7.89941 10.0996" stroke="#363B56" stroke-width="0.5" stroke-miterlimit="10" stroke-linecap="round" stroke-linejoin="round"/>
<path d="M10.8994 18.7002V10.2002" stroke="#363B56" stroke-width="0.5" stroke-miterlimit="10" stroke-linecap="round" stroke-linejoin="round"/>
<path d="M13.3994 18.7002L13.8994 10.2002" stroke="#363B56" stroke-width="0.5" stroke-miterlimit="10" stroke-linecap="round" stroke-linejoin="round"/>
</svg>
