<svg width="43" height="43" viewBox="0 0 43 43" fill="none" xmlns="http://www.w3.org/2000/svg">
<path d="M21.5888 42.5876C33.349 42.5876 42.8825 33.0541 42.8825 21.2938C42.8825 9.53358 33.349 0 21.5888 0C9.82852 0 0.294922 9.53358 0.294922 21.2938C0.294922 33.0541 9.82852 42.5876 21.5888 42.5876Z" fill="#E3E2DC"/>
<path d="M10.2988 31.4414C10.5847 30.1552 11.0134 28.869 11.2992 27.7257C11.585 26.5824 12.1567 25.582 13.0142 24.7245C16.587 21.2947 20.0168 17.7219 23.5896 14.292C23.7325 14.1491 23.8754 14.0062 23.8754 13.8633C25.7333 15.7211 27.4482 17.4361 29.1632 19.151C29.1632 19.151 29.0202 19.2939 28.8773 19.4368C25.3045 23.0096 21.7317 26.5824 18.159 30.1552C17.4444 30.8697 16.5869 31.4414 15.5866 31.5843C14.3004 31.8701 13.0141 32.2989 11.7279 32.5847C11.585 32.5847 11.5851 32.5847 11.4421 32.7276C11.0134 32.7276 10.5847 32.7276 10.2988 32.7276C10.2988 32.2989 10.2988 31.8701 10.2988 31.4414Z" stroke="#363B56" stroke-width="0.7585" stroke-miterlimit="10"/>
<path d="M33.0219 14.1487C32.7361 15.7207 31.5928 16.5782 30.5924 17.5785C28.8775 15.8636 27.0196 14.0058 25.3047 12.2908C26.1622 11.2904 27.1626 10.1472 28.7346 9.86133C29.0204 9.86133 29.3062 9.86133 29.592 9.86133C30.7353 10.1472 31.7357 10.5759 32.3074 11.7192C32.5932 12.1479 32.7361 12.7195 32.879 13.2912C33.0219 13.577 33.0219 13.8628 33.0219 14.1487Z" stroke="#363B56" stroke-width="0.7585" stroke-miterlimit="10"/>
</svg>
