<svg width="65" height="64" viewBox="0 0 65 64" fill="none" xmlns="http://www.w3.org/2000/svg">
<path d="M32.5105 63.8452C49.9737 63.8452 64.1304 49.6885 64.1304 32.2253C64.1304 14.7622 49.9737 0.605469 32.5105 0.605469C15.0474 0.605469 0.890625 14.7622 0.890625 32.2253C0.890625 49.6885 15.0474 63.8452 32.5105 63.8452Z" fill="#E3E2DC"/>
<path d="M15.7461 47.2927C16.1705 45.3828 16.8072 43.4729 17.2316 41.7752C17.656 40.0774 18.5049 38.5919 19.7782 37.3187C25.0835 32.2255 30.1767 26.9202 35.482 21.827C35.6942 21.6148 35.9064 21.4026 35.9064 21.1904C38.6652 23.9492 41.2118 26.4958 43.7583 29.0423C43.7583 29.0423 43.5461 29.2545 43.3339 29.4668C38.0285 34.7721 32.7232 40.0774 27.4178 45.3828C26.3568 46.4439 25.0835 47.2927 23.598 47.5049C21.6881 47.9293 19.7782 48.566 17.8682 48.9904C17.656 48.9904 17.6561 48.9904 17.4438 49.2026C16.8072 49.2026 16.1705 49.2026 15.7461 49.2026C15.7461 48.566 15.7461 47.9293 15.7461 47.2927Z" stroke="#363B56" stroke-width="0.7585" stroke-miterlimit="10"/>
<path d="M49.4869 21.6154C49.0625 23.9498 47.3648 25.2231 45.8793 26.7086C43.3327 24.162 40.5739 21.4032 38.0273 18.8567C39.3006 17.3712 40.7862 15.6735 43.1205 15.249C43.545 15.249 43.9693 15.249 44.3938 15.249C46.0915 15.6735 47.577 16.3101 48.4259 18.0078C48.8503 18.6444 49.0625 19.4933 49.2747 20.3421C49.4869 20.7666 49.4869 21.191 49.4869 21.6154Z" stroke="#363B56" stroke-width="0.7585" stroke-miterlimit="10"/>
</svg>
