<svg width="30" height="31" viewBox="0 0 30 31" fill="none" xmlns="http://www.w3.org/2000/svg">
<path d="M14.9 30.2004C23.1291 30.2004 29.8 23.5294 29.8 15.3004C29.8 7.07136 23.1291 0.400391 14.9 0.400391C6.67098 0.400391 0 7.07136 0 15.3004C0 23.5294 6.67098 30.2004 14.9 30.2004Z" fill="#E3E2DC"/>
<path d="M7 22.4006C7.2 21.5006 7.50001 20.6006 7.70001 19.8006C7.90001 19.0006 8.30002 18.3006 8.90002 17.7006C11.4 15.3006 13.8 12.8006 16.3 10.4006C16.4 10.3006 16.5 10.2006 16.5 10.1006C17.8 11.4006 19 12.6006 20.2 13.8006C20.2 13.8006 20.1 13.9006 20 14.0006C17.5 16.5006 15 19.0006 12.5 21.5006C12 22.0006 11.4 22.4006 10.7 22.5006C9.80001 22.7006 8.9 23.0006 8 23.2006C7.9 23.2006 7.90002 23.2006 7.80002 23.3006C7.50002 23.3006 7.2 23.3006 7 23.3006C7 23.0006 7 22.7006 7 22.4006Z" stroke="#363B56" stroke-width="0.7585" stroke-miterlimit="10"/>
<path d="M22.9 10.3008C22.7 11.4008 21.9 12.0008 21.2 12.7008C20 11.5008 18.7 10.2008 17.5 9.00078C18.1 8.30078 18.8 7.50078 19.9 7.30078C20.1 7.30078 20.3 7.30078 20.5 7.30078C21.3 7.50078 22 7.80078 22.4 8.60078C22.6 8.90078 22.7 9.30078 22.8 9.70078C22.9 9.90078 22.9 10.1008 22.9 10.3008Z" stroke="#363B56" stroke-width="0.7585" stroke-miterlimit="10"/>
</svg>
