<svg width="352" height="222" viewBox="0 0 352 222" fill="none" xmlns="http://www.w3.org/2000/svg">
<mask id="mask0_24_1722" style="mask-type:luminance" maskUnits="userSpaceOnUse" x="0" y="0" width="295" height="222">
<path d="M-9.15527e-05 0H294.579V221.855H-9.15527e-05V0Z" fill="white"/>
</mask>
<g mask="url(#mask0_24_1722)">
<path d="M40.7551 280.713C188.576 296.731 256.888 249.247 284.03 220.456C319.622 97.4203 224.642 -4.22885 82.4869 1.38078C-73.4756 7.51178 -167.179 258.169 40.7551 280.713Z" fill="#E3E2DC"/>
</g>
<mask id="mask1_24_1722" style="mask-type:luminance" maskUnits="userSpaceOnUse" x="0" y="0" width="295" height="222">
<path d="M-9.15527e-05 0H294.579V221.855H-9.15527e-05V0Z" fill="white"/>
</mask>
<g mask="url(#mask1_24_1722)">
<path d="M208.688 94.3691C208.688 94.3691 221.345 142.857 202.877 143.881C184.409 144.904 174.837 96.0781 174.837 96.0781C174.837 96.0781 192.966 143.543 202.877 141.158C212.798 138.763 204.25 94.3691 204.25 94.3691H208.688Z" fill="#04133A"/>
<path d="M158.37 97.4009C158.37 97.4009 171.027 145.889 152.559 146.912C134.091 147.936 124.518 99.1002 124.518 99.1002C124.518 99.1002 142.648 146.565 152.559 144.18C162.479 141.795 153.932 97.4009 153.932 97.4009H158.37Z" fill="#04133A"/>
<path d="M239.426 210.675C241.205 210.675 242.994 210.549 244.754 210.298C261.617 207.904 275.734 194.473 284.523 172.479C293.08 151.064 295.604 123.904 291.639 96.0202C283.759 40.6673 252.982 -1.07178 220.049 -1.07178C218.27 -1.07178 216.481 -0.946261 214.722 -0.695227C197.868 1.69924 183.742 15.1295 174.953 37.1239C166.396 58.539 163.872 85.6988 167.836 113.583C175.717 168.936 206.493 210.675 239.426 210.675ZM220.049 5.09785C249.434 5.09785 278.19 45.4177 285.519 96.8891C289.338 123.73 286.95 149.761 278.779 170.201C270.851 190.061 258.455 202.13 243.874 204.196C242.404 204.409 240.906 204.515 239.417 204.515C210.032 204.515 181.267 164.195 173.947 112.724C170.128 85.8823 172.516 59.8521 180.686 39.4122C188.615 19.5516 201.011 7.48266 215.592 5.41647C217.062 5.20405 218.57 5.09785 220.049 5.09785Z" fill="#F2959B"/>
<path d="M119.442 220.784C121.221 220.784 123.01 220.658 124.77 220.407C158.902 215.57 179.932 164.301 171.655 106.129C163.775 50.7762 133.008 9.03711 100.075 9.03711C98.2959 9.03711 96.5072 9.16263 94.7474 9.41366C60.6252 14.2509 39.5852 65.5196 47.8619 123.692C55.7326 179.035 86.5093 220.784 119.442 220.784ZM100.065 15.1971C129.45 15.1971 158.206 55.5169 165.535 106.988C173.338 161.791 154.657 209.931 123.9 214.295C122.43 214.508 120.931 214.614 119.442 214.614C90.0579 214.614 61.2923 174.294 53.9728 122.823C46.1795 68.0203 64.8602 19.8798 95.6176 15.5157C97.0776 15.3033 98.586 15.1971 100.065 15.1971Z" fill="#F2959B"/>
<path d="M50.8113 125.092L-74.6936 140.019V158.006L-39.4594 152.223L-42.6695 143.9L52.1553 130.808L50.8113 125.092Z" fill="#F2959B"/>
</g>
<path d="M276.613 204.071C277.841 205.239 295.062 221.296 303.184 216.391C303.813 216.014 304.402 215.493 304.944 214.798C304.76 217.144 304.576 219.5 304.393 221.846H271.373C273.123 215.918 274.873 209.999 276.613 204.071Z" fill="#E3E2DC"/>
<path d="M277.426 194.367C277.899 196.057 286.195 224.578 305.437 221.604C319.912 219.365 319.09 190.235 317.591 174.632C319.196 174.758 320.85 174.825 322.542 174.825C338.592 174.825 351.607 169.013 351.607 161.849C351.607 154.675 338.592 148.872 322.542 148.872C317.997 148.872 313.694 149.336 309.865 150.166C309.024 135.471 306.481 104.555 299.964 104.816C293.544 105.067 299.665 136.552 303.116 152.194C297.189 154.569 293.467 158.016 293.467 161.849C293.467 166.377 298.659 170.365 306.539 172.672C309.479 186.653 313.897 214.711 302.362 215.57C287.481 216.661 278.044 195.767 277.426 194.367Z" fill="#E3E2DC"/>
</svg>
