<svg width="1440" height="2054" viewBox="0 0 1440 2054" fill="none" xmlns="http://www.w3.org/2000/svg">
<path d="M1440 2581.82V2733.62H0V2581.82H0.780488C0.780488 1858.31 0.390244 1134.79 0 411.672C11.7073 390.989 23.4146 377.331 32 368.355C37.8537 362.502 47.2195 353.136 51.9024 348.843C58.5366 342.599 65.561 336.355 72.5854 329.721L72.9756 329.331L87.8049 316.063C90.5366 313.721 93.2683 311.38 96 309.038C98.3415 307.087 100.293 305.526 102.634 303.575C107.707 299.282 112.78 295.38 117.854 291.087C121.366 288.355 124.488 286.014 128 283.282C231.415 202.111 374.244 122.111 556.488 90.5017C565.854 88.9407 575.219 87.3797 584.976 85.8187C589.659 85.0383 594.341 84.648 599.024 83.8675C604.878 83.087 610.732 82.3065 616.585 81.9163C618.927 81.5261 621.268 81.5261 624 81.1358C648.585 78.7944 673.561 77.2334 699.317 76.4529C700.878 76.4529 702.049 76.4529 703.61 76.4529C731.317 76.0626 759.024 76.4529 786.732 78.4041C813.268 79.9651 839.415 83.0871 865.171 86.5992C866.341 86.5992 867.512 86.9895 868.293 86.9895C872.585 87.77 877.268 88.1602 881.561 88.9407C885.073 89.7212 888.195 90.1114 891.317 90.5017L914.341 94.4041C904.976 104.55 895.61 115.868 886.634 128.746C870.634 151.77 855.805 179.477 843.317 213.038C819.122 277.038 813.659 350.794 828.098 420.648C842.927 493.233 878.829 554.892 928.781 593.916C958.829 617.331 1008 645.819 1073.17 647.77C1128.98 649.331 1185.56 630.209 1232.78 593.526C1287.41 551.38 1326.05 484.648 1342.05 405.428C1346.34 384.746 1348.68 364.063 1349.07 342.989C1349.46 329.721 1349.46 316.453 1348.29 303.185C1348.68 303.185 1348.68 303.575 1349.07 303.575C1355.71 309.038 1361.95 314.502 1368.2 320.355C1368.2 320.355 1368.59 320.746 1369.37 321.526C1393.56 344.16 1409.95 371.087 1409.95 371.087C1430.63 405.428 1437.66 441.721 1439.61 454.209C1439.61 1164.06 1439.61 1873.14 1440 2581.82Z" fill="#E2E1DB"/>
<path d="M1368.97 323.087C1368.19 271.966 1357.27 220.453 1335.41 174.014C1317.46 135.77 1295.61 103.38 1269.85 77.2338C1244.1 51.4777 1214.44 31.9655 1181.27 18.6972C1155.51 8.55089 1086.83 -12.1321 1008.78 12.0631C973.267 22.9899 929.56 45.6241 890.145 91.6728C881.17 102.209 872.194 113.527 863.999 126.795C849.17 149.429 835.511 175.966 823.804 207.575C805.072 256.746 797.267 311.38 799.999 365.624C800.389 372.258 800.779 378.892 801.56 385.136C803.121 398.795 805.072 412.453 807.804 426.112C823.804 503.38 862.048 568.941 915.511 611.088C961.95 647.38 1015.8 667.283 1071.61 669.234C1073.95 669.234 1076.29 669.234 1078.63 669.234C1136.39 669.234 1194.93 648.551 1243.71 610.697C1316.29 554.502 1360 460.063 1367.41 361.331C1368.97 348.453 1369.36 335.575 1368.97 323.087ZM1348.68 344.161C1347.9 364.844 1345.56 385.917 1341.66 406.6C1325.66 485.819 1287.02 552.551 1232.39 594.697C1185.17 631.38 1128.19 650.502 1072.39 648.941C1007.22 646.99 958.048 618.502 927.999 595.088C878.048 556.063 842.145 494.405 827.316 421.819C812.877 351.966 818.34 278.209 842.535 214.209C855.023 180.648 869.852 152.941 885.852 129.917C894.828 117.039 904.194 105.722 913.56 95.9655C948.292 59.2826 984.974 40.5509 1015.41 31.185C1040 23.3801 1063.41 20.6485 1084.88 20.6485C1105.56 20.6485 1123.9 23.3802 1139.51 26.5021C1154.73 30.0143 1167.22 33.9167 1175.02 37.0387C1236.68 61.2338 1284.68 110.014 1318.24 182.209C1329.95 207.185 1338.15 234.502 1343.22 262.6C1344.39 269.234 1345.56 275.478 1346.34 282.112C1347.12 289.527 1347.9 296.941 1348.68 304.356C1349.07 317.624 1349.46 330.892 1348.68 344.161Z" fill="#373B56"/>
<path d="M1348.68 344.161C1347.9 364.844 1345.56 385.918 1341.66 406.6C1325.66 485.82 1287.02 552.552 1232.39 594.698C1185.17 631.381 1128.19 650.503 1072.39 648.942C1007.22 646.991 958.048 618.503 927.999 595.088C878.048 556.064 842.146 494.405 827.316 421.82C812.877 351.966 818.341 278.21 842.536 214.21C855.024 180.649 869.853 152.942 885.853 129.918C894.829 117.039 904.194 105.722 913.56 95.9663C1031.41 119.381 1142.63 163.869 1241.37 225.918C1249.95 230.991 1258.15 236.454 1266.34 242.308C1276.1 248.942 1285.46 255.576 1294.83 262.21C1303.8 268.844 1312.39 275.478 1320.97 282.113C1330.34 289.527 1339.71 296.942 1348.68 304.747C1349.07 317.625 1349.46 330.893 1348.68 344.161Z" fill="#E2E1DB"/>
<path d="M721.17 361.722C719.609 307.869 707.122 255.576 684.097 209.137C664.195 169.332 640 135.771 611.512 109.235C602.926 101.04 593.951 93.6249 584.195 86.6005C562.731 70.6005 539.317 58.1127 513.561 48.7469C485.073 38.2103 409.756 16.3566 324.292 41.3322C260.682 59.6737 173.658 109.625 120.585 242.698C112.78 262.601 106.536 283.283 102.243 304.357C99.1215 319.186 96.78 334.405 95.6093 350.015C94.8288 356.649 94.4386 362.893 94.4386 369.527C93.2679 402.698 96.3898 436.259 103.414 469.04C121.365 549.039 163.902 616.942 223.219 660.649C274.341 698.113 333.658 719.186 394.926 720.747C397.658 720.747 400.78 720.747 403.512 720.747C466.731 720.747 530.731 699.674 584.195 661.039C648.585 614.6 693.853 541.235 712.195 454.6C717.268 430.405 720 405.82 720.78 381.625C721.17 374.6 721.17 367.966 721.17 361.722ZM693.463 450.308C676.292 532.259 633.365 601.332 573.268 645.039C520.975 682.893 457.756 702.796 396.097 700.844C338.731 699.283 283.317 679.771 235.317 644.259C179.902 603.283 140.097 539.674 123.317 464.357C110.048 404.259 111.609 341.04 128 283.283C131.122 271.576 135.024 260.259 139.317 249.332C189.658 123.674 270.829 76.8444 330.146 59.6737C357.073 51.8688 383.219 49.1371 406.634 49.1371C429.658 49.1371 450.341 51.8688 467.902 55.381C485.463 58.8932 498.731 63.5761 507.707 66.6981C524.878 72.942 541.268 81.1371 556.487 90.503C602.146 118.991 639.219 161.527 666.926 217.722C700.487 285.625 710.244 370.698 693.463 450.308Z" fill="#373B56"/>
<path d="M712.126 361.128L711.251 380.621L807.545 384.945L808.42 365.452L712.126 361.128Z" fill="#373B56"/>
<path d="M1352.98 262.6L1352.58 282.112H1345.95L1320.58 281.722C1312 275.088 1303.02 268.453 1294.44 261.819L1343.22 262.6H1352.98Z" fill="#373B56"/>
<path d="M110.048 349.235L109.658 368.747H103.024H94.4384L31.6091 368.356C37.853 362.113 44.4872 355.478 51.5116 348.844L95.6091 349.235H99.9018H110.048Z" fill="#373B56"/>
<path d="M983.414 433.528C1034.92 433.528 1076.68 391.77 1076.68 340.26C1076.68 288.749 1034.92 246.991 983.414 246.991C931.903 246.991 890.146 288.749 890.146 340.26C890.146 391.77 931.903 433.528 983.414 433.528Z" fill="white"/>
<path d="M965.072 429.235C993.952 429.235 1017.36 405.823 1017.36 376.942C1017.36 348.062 993.952 324.649 965.072 324.649C936.191 324.649 912.779 348.062 912.779 376.942C912.779 405.823 936.191 429.235 965.072 429.235Z" fill="black"/>
<path d="M542.828 433.528C594.339 433.528 636.097 391.77 636.097 340.26C636.097 288.749 594.339 246.991 542.828 246.991C491.318 246.991 449.56 288.749 449.56 340.26C449.56 391.77 491.318 433.528 542.828 433.528Z" fill="white"/>
<path d="M524.097 429.235C552.977 429.235 576.389 405.823 576.389 376.942C576.389 348.062 552.977 324.649 524.097 324.649C495.216 324.649 471.804 348.062 471.804 376.942C471.804 405.823 495.216 429.235 524.097 429.235Z" fill="black"/>
</svg>
