<svg width="530" height="596" viewBox="0 0 530 596" fill="none" xmlns="http://www.w3.org/2000/svg">
<path d="M585.008 275.061C630.165 379.538 580.779 511.104 474.739 568.93C368.682 626.739 246.1 588.919 200.943 484.441C155.786 379.963 205.172 248.398 311.229 190.589C417.269 132.762 539.851 170.583 585.008 275.061Z" fill="#F2959B"/>
<path d="M306.712 281.684C306.712 281.684 285.789 390.866 319.738 396.861C353.686 402.839 365.846 288.376 365.846 288.376C365.846 288.376 337.621 394.382 320.077 391.359C302.534 388.336 315.696 280.699 315.696 280.699L306.712 281.684Z" fill="#04133A"/>
<path d="M379.891 292.807C379.891 292.807 358.968 401.989 392.899 407.967C426.848 413.945 439.008 299.482 439.008 299.482C439.008 299.482 410.782 405.488 393.239 402.465C375.696 399.442 388.875 291.805 388.875 291.805L379.891 292.807Z" fill="#04133A"/>
<path d="M307.781 238.139C307.781 238.139 308.019 238.207 308.444 238.343C308.817 238.445 309.259 238.632 310.091 238.819C311.636 239.243 313.929 239.719 316.697 240.16C318.09 240.381 319.584 240.517 321.198 240.704C322.76 240.755 324.492 240.959 326.208 240.891C327.94 240.874 329.74 240.857 331.506 240.602C333.34 240.483 335.089 240.092 336.873 239.702C338.707 239.379 340.303 238.598 342.069 238.071C343.632 237.256 345.296 236.526 346.74 235.541C348.047 234.403 349.661 233.571 350.697 232.246C351.75 230.939 353.057 229.869 353.804 228.476C354.62 227.101 355.367 225.827 356.029 224.706C356.573 223.483 356.929 222.328 357.286 221.394C357.982 219.492 358.373 218.406 358.373 218.406C358.373 218.406 358.288 219.611 358.135 221.734C358.033 222.787 357.999 224.146 357.795 225.64C357.439 227.101 357.048 228.748 356.624 230.531C356.233 232.399 355.248 234.047 354.467 236.051C353.686 238.088 352.31 239.668 351.121 241.655C349.813 243.472 348.234 245.068 346.655 246.801C344.939 248.193 343.241 249.925 341.356 251.114C339.488 252.388 337.586 253.662 335.616 254.613C333.68 255.716 331.71 256.532 329.791 257.33C327.872 258.179 325.97 258.706 324.17 259.351C322.352 259.86 320.637 260.387 319.024 260.743C315.797 261.491 313.063 261.949 311.076 262.187C310.125 262.323 309.191 262.374 308.613 262.425C308.104 262.476 307.832 262.493 307.832 262.493L307.781 238.139Z" fill="#04133A"/>
<path d="M392.1 189.145C392.1 189.145 392.1 189.467 392.083 190.045C392.083 190.69 392.117 191.743 392.168 193.102C392.304 195.819 392.627 199.81 393.323 204.599C394.733 214.126 397.824 227.05 404.022 238.191C405.517 241.01 407.283 243.608 409.1 246.122C410.017 247.361 411.019 248.482 411.97 249.688C413.006 250.741 413.991 251.879 415.027 252.881C417.116 254.885 419.273 256.651 421.413 258.162C422.517 258.876 423.569 259.572 424.605 260.251C425.675 260.829 426.711 261.406 427.713 261.95C429.734 262.918 431.636 263.784 433.368 264.395C435.084 264.938 436.595 265.567 437.869 265.839C440.399 266.467 441.86 266.807 441.86 266.807C441.86 266.807 440.399 266.824 437.852 266.875C436.561 266.925 434.999 266.705 433.182 266.603C431.365 266.45 429.327 266.059 427.068 265.601C425.947 265.295 424.775 264.989 423.552 264.667C422.347 264.225 421.107 263.784 419.816 263.308C417.269 262.272 414.603 260.931 411.902 259.283C410.561 258.451 409.236 257.483 407.86 256.549C406.57 255.479 405.194 254.46 403.903 253.288C401.322 250.945 398.741 248.38 396.431 245.527C391.693 239.889 387.719 233.402 384.475 227.05C381.232 220.681 378.786 214.398 376.918 208.912C375.067 203.427 373.827 198.723 373.029 195.343C372.638 193.645 372.35 192.286 372.163 191.301C371.976 190.248 371.874 189.705 371.874 189.705L392.1 189.145Z" fill="#04133A"/>
<path d="M154.631 375.122C154.631 375.122 161.797 358.835 150.742 360.585L146.547 340.936C146.547 340.936 171.24 328.691 177.014 347.117C182.771 365.527 157.212 383.698 157.212 383.698L211.387 417.952L146.853 395.943" fill="#F2959B"/>
<path d="M51.6987 42.7876L82.4545 93.7528C82.7092 98.8306 81.011 103.569 77.6144 107.186C74.5575 110.43 70.4647 112.298 66.3549 112.332C59.4259 112.383 52.7177 107.441 49.9156 100.257L51.6987 42.7876Z" fill="#482717"/>
<path d="M86.9722 101.207L128.24 169.58C119.97 176.373 106.451 184.966 87.8383 188.77C74.6257 191.47 60.581 191.334 47.1647 188.379L49.6271 109.63C54.0257 114.555 60.2074 117.595 66.5589 117.527C71.2292 117.493 75.8655 115.744 79.6017 112.653C80.315 112.076 80.9773 111.448 81.6057 110.768C84.1531 108.051 85.9702 104.773 86.9722 101.207Z" fill="#F8A87D"/>
<path d="M73.2336 195.7L128.461 418.241C126.237 417.936 124.012 417.443 121.821 416.764L49.169 193.984C57.1 195.479 65.2177 196.056 73.2336 195.7Z" fill="#98AFDC"/>
<path d="M101.882 190.231L145.698 416.899C145.63 416.916 145.545 416.95 145.477 416.967C143.864 417.443 142.165 417.851 140.365 418.139C139.499 418.275 138.599 418.394 137.682 418.479C136.425 418.598 135.168 418.649 133.912 418.632L78.5141 195.343C82.0804 195.003 85.5959 194.477 89.0773 193.763C93.6287 192.829 97.8914 191.624 101.882 190.231Z" fill="#98AFDC"/>
<path d="M128.903 175.727L160.066 409.019C157.909 410.853 154.733 413.129 150.658 414.997L106.842 188.345C108.286 187.751 109.678 187.14 111.02 186.511C118.237 183.149 124.198 179.311 128.903 175.727Z" fill="#98AFDC"/>
<path opacity="0.22" d="M160.065 409.019L128.902 175.727C127.135 177.069 125.199 178.444 123.077 179.82L155.599 412.297C157.382 411.176 158.876 410.038 160.065 409.019Z" fill="black"/>
<path opacity="0.22" d="M128.223 169.581L98.8937 120.993C106.57 138.757 114.246 156.538 121.939 174.302C124.3 172.688 126.389 171.092 128.223 169.581Z" fill="black"/>
<path d="M47.2657 25.3115C48.8621 27.8589 50.4585 30.4233 52.0379 32.9708C78.7857 77.3636 105.533 121.773 132.298 166.166L132.961 167.287L133.164 168.663L165.652 411.091L164.684 411.957C164.243 412.365 163.733 412.807 163.19 413.265C160.541 415.456 156.668 418.139 151.659 420.245L150.725 420.619C147.124 422.045 142.98 423.149 138.31 423.557C131.789 424.134 125.25 423.319 118.882 421.128L117.557 420.67L117.167 419.362L42.4426 189.636L41.8143 187.531L41.8312 187.123C43.4955 136.497 45.1768 85.8719 46.8412 35.2464C46.977 31.9517 47.1299 28.6401 47.2657 25.3115ZM128.46 418.241L73.2323 195.716C65.2165 196.073 57.0987 195.495 49.1508 193.984L121.803 416.764C124.011 417.443 126.235 417.935 128.46 418.241ZM101.882 190.231C97.9082 191.623 93.6286 192.829 89.0772 193.763C85.6127 194.477 82.0803 195.003 78.5139 195.343L133.912 418.632C135.168 418.632 136.425 418.581 137.682 418.479C138.599 418.394 139.482 418.292 140.365 418.139C142.165 417.85 143.863 417.46 145.477 416.967C145.545 416.95 145.63 416.916 145.698 416.899L101.882 190.231ZM150.657 415.014C152.491 414.165 154.138 413.248 155.599 412.314C157.382 411.176 158.876 410.038 160.065 409.036L128.902 175.744C127.136 177.086 125.199 178.462 123.077 179.837C119.544 182.13 115.519 184.423 111.019 186.529C109.677 187.157 108.285 187.768 106.841 188.363L150.657 415.014ZM86.9714 101.207C85.9864 104.757 84.1522 108.034 81.6218 110.735C80.9935 111.414 80.3141 112.042 79.6009 112.62C75.8647 115.711 71.2283 117.46 66.5581 117.494C60.1896 117.545 54.0248 114.522 49.6263 109.597L47.1638 188.346C60.5802 191.301 74.6249 191.437 87.8374 188.736C102.324 185.781 113.702 179.922 121.956 174.267C124.299 172.654 126.405 171.057 128.239 169.546L98.9102 120.958L86.9714 101.207ZM51.6982 42.7867L49.898 100.239C52.7002 107.423 59.3914 112.382 66.3374 112.314C70.4472 112.28 74.557 110.412 77.5969 107.168C80.9934 103.551 82.7087 98.8128 82.437 93.7349L51.6982 42.7867Z" fill="#482717"/>
<path d="M13.3863 43.6868C12.8768 44.3151 11.9258 44.417 11.2465 43.9075L0.598322 35.7727C-0.0640049 35.2633 -0.199838 34.3293 0.309644 33.7009C0.819126 33.0725 1.77012 32.9706 2.44943 33.4801L13.0976 41.6148C13.76 42.1073 13.8788 43.0414 13.3863 43.6868Z" fill="#482717"/>
<path d="M76.8849 19.555C77.6321 19.9456 78.5492 19.6739 78.9228 18.9606L84.9177 7.56517C85.2913 6.8519 84.9856 5.95183 84.2384 5.56122C83.4911 5.17062 82.5741 5.4423 82.2005 6.15558L76.2056 17.551C75.832 18.2643 76.1376 19.1814 76.8849 19.555Z" fill="#482717"/>
<path d="M42.0017 14.3578C41.2715 14.7315 40.3374 14.4258 39.9298 13.7125L33.5443 2.14724C33.1367 1.41699 33.4254 0.533913 34.1557 0.160293C34.886 -0.213327 35.82 0.0923702 36.2276 0.805645L42.6131 12.3709C43.0037 13.1011 42.732 13.9842 42.0017 14.3578Z" fill="#482717"/>
<path d="M113.923 394.227C92.5082 396.316 68.6135 364.015 77.0709 327.111C85.5283 290.191 107.181 313.219 107.181 313.219L114.637 369.551" fill="#F2959B"/>
<path d="M118.084 392.835L107.623 314.765C107.623 314.765 88.2288 291.465 80.2639 319.215C80.2639 319.215 91.1498 300.024 105.687 315.75L112.514 396.164L118.084 392.835Z" fill="#04133A"/>
<path d="M78.2596 345.657L74.5913 343.789C77.2236 334.703 81.5712 328.98 87.5491 326.823C97.9086 323.053 109.185 331.494 109.661 331.85L107.81 335.722C107.708 335.654 97.6369 328.131 88.9417 331.29C84.1017 333.073 80.5183 337.913 78.2596 345.657Z" fill="#04133A"/>
<path d="M86.3951 371.08L82.557 369.977C83.6948 361.027 86.6668 355.626 91.371 353.928C100.644 350.582 112.956 363.625 113.466 364.168L111.037 367.531C107.98 364.253 98.7755 356.288 92.7806 358.411C89.4689 359.617 87.3122 363.88 86.3951 371.08Z" fill="#04133A"/>
</svg>
