<svg width="777" height="1003" viewBox="0 0 777 1003" fill="none" xmlns="http://www.w3.org/2000/svg">
<path d="M863.303 316.014C731.544 113.857 468.829 42.0619 276.23 155.573C268.769 160.206 261.308 164.838 254.242 169.669C247.488 174.41 241.046 179.061 235 183.91C219.341 196.499 204.638 210.059 191.515 224.411C191.202 224.5 190.972 224.878 190.743 225.255C181.709 235.008 173.235 245.534 165.239 256.546C162.776 259.744 160.395 263.229 158.014 266.714C70.8055 396.342 68.3226 577.282 166.718 728.01C188.907 762 229 803 271 824" stroke="#D5545D" stroke-width="8"/>
<path d="M255.732 298.043C256.055 304.999 255.398 311.421 253.983 317.122C256.793 316.822 259.812 317.745 262.24 319.84C265.358 317.292 268.436 313.796 271.161 309.389C267.633 303.864 262.135 299.822 255.732 298.043Z" fill="#D5545D"/>
<path d="M290.641 361.642C298.55 362.368 305.808 366.678 310.404 373.436C312.879 372.089 315.353 370.741 317.808 369.396C313.189 359.245 304.156 351.629 293.161 348.678C292.327 353.014 291.478 357.324 290.641 361.642Z" fill="#40455E"/>
<path d="M336.737 393.266C356.913 400.181 371.295 415.858 376.746 433.755C379.026 432.9 381.342 432.089 383.68 431.293C381.073 410.447 367.117 389.599 343.986 378.615C341.301 383.47 338.881 388.351 336.737 393.266Z" fill="#D5545D"/>
<path d="M227.106 396.028C230.755 394.354 234.866 393.168 239.313 392.596C236.816 386.372 231.912 381.061 225.414 378.042C222.46 380.776 220.093 383.757 218.353 386.796C222.724 388.726 225.761 392.203 227.106 396.028Z" fill="#D5545D"/>
<path d="M334.047 521.867C337.697 520.193 341.807 519.007 346.254 518.435C343.757 512.211 338.854 506.899 332.356 503.88C329.401 506.615 327.035 509.596 325.295 512.635C329.666 514.564 332.703 518.041 334.047 521.867Z" fill="#D5545D"/>
<g opacity="0.9">
<path d="M386.677 504.942C383.159 499.725 377.517 496.631 371.692 496.278C371.782 498.667 371.725 500.982 371.527 503.194C375.863 502.841 380.482 504.752 383.556 508.657C384.623 507.566 385.666 506.324 386.677 504.942Z" fill="#40455E"/>
</g>
<path d="M321.077 437.049C317.558 431.832 311.917 428.739 306.092 428.385C306.181 430.774 306.125 433.089 305.926 435.301C310.263 434.949 314.881 436.859 317.956 440.765C319.03 439.662 320.073 438.42 321.077 437.049Z" fill="#40455E"/>
<path d="M222.244 463.068C218.725 457.851 213.084 454.758 207.259 454.404C207.348 456.793 207.291 459.108 207.093 461.32C211.429 460.968 216.048 462.878 219.123 466.784C220.197 465.681 221.24 464.439 222.244 463.068Z" fill="#40455E"/>
<path opacity="0.9" d="M237.524 341.39C238.687 339.801 238.343 337.577 236.754 336.414C235.166 335.251 232.941 335.595 231.778 337.184C230.615 338.772 230.959 340.997 232.548 342.16C234.137 343.323 236.361 342.979 237.524 341.39Z" fill="#D75E67"/>
<path opacity="0.9" d="M366.011 459.335C367.175 457.746 366.831 455.522 365.242 454.359C363.653 453.196 361.429 453.54 360.266 455.128C359.102 456.717 359.446 458.941 361.035 460.105C362.624 461.268 364.848 460.924 366.011 459.335Z" fill="#D75E67"/>
<g opacity="0.9">
<path d="M268.021 455.851C268.212 460.02 267.815 463.874 266.975 467.304C268.664 467.12 270.478 467.679 271.928 468.941C273.804 467.406 275.641 465.307 277.288 462.669C275.173 459.348 271.872 456.916 268.021 455.851Z" fill="#D5545D"/>
</g>
<path d="M229.357 542.666C248.825 530.418 276.721 533.356 295.485 552.975C297.57 543.781 298.892 533.038 298.806 520.989C281.503 510.603 261.452 508.515 244.111 514.101C238.391 522.779 233.426 532.34 229.357 542.666Z" fill="#40455E"/>
<path d="M662.954 191.778C664.676 198.525 667.181 204.476 670.199 209.514C667.424 210.048 664.807 211.812 663.097 214.525C659.37 213 655.405 210.555 651.512 207.136C653.272 200.823 657.35 195.35 662.954 191.778Z" fill="#D5545D"/>
<path d="M648.147 262.801C640.795 265.806 635.113 272.048 632.691 279.855C629.931 279.288 627.171 278.722 624.43 278.154C625.882 267.095 632.296 257.173 641.949 251.139C644.014 255.042 646.085 258.916 648.147 262.801Z" fill="#40455E"/>
<path d="M613.3 306.512C596.024 319.02 586.849 338.214 586.864 356.923C584.434 356.771 581.982 356.672 579.514 356.593C575.917 335.895 583.174 311.88 602.087 294.618C606.073 298.476 609.813 302.437 613.3 306.512Z" fill="#D5545D"/>
<path d="M718.956 277.127C714.976 276.591 710.699 276.658 706.278 277.41C706.848 270.728 709.986 264.216 715.319 259.43C718.944 261.182 722.078 263.342 724.629 265.74C721.013 268.862 719.124 273.075 718.956 277.127Z" fill="#D5545D"/>
<path d="M653.441 428.717C649.462 428.182 645.184 428.248 640.763 429.001C641.333 422.318 644.471 415.806 649.804 411.021C653.429 412.773 656.563 414.933 659.114 417.33C655.498 420.453 653.609 424.665 653.441 428.717Z" fill="#D5545D"/>
<g opacity="0.9">
<path d="M598.163 427.905C600.004 421.888 604.495 417.281 609.963 415.241C610.575 417.552 611.306 419.75 612.142 421.807C607.892 422.737 604.033 425.913 602.233 430.547C600.894 429.814 599.534 428.931 598.163 427.905Z" fill="#40455E"/>
</g>
<path d="M641.067 343.81C642.908 337.793 647.4 333.186 652.868 331.146C653.48 333.457 654.211 335.655 655.047 337.712C650.796 338.642 646.937 341.818 645.138 346.451C643.788 345.711 642.428 344.828 641.067 343.81Z" fill="#40455E"/>
<path d="M743.19 339.822C745.031 333.804 749.523 329.198 754.991 327.158C755.603 329.469 756.334 331.666 757.17 333.724C752.92 334.653 749.06 337.83 747.261 342.463C745.911 341.723 744.551 340.84 743.19 339.822Z" fill="#40455E"/>
<path opacity="0.9" d="M693.03 227.915C691.454 226.735 691.133 224.508 692.313 222.931C693.492 221.354 695.72 221.034 697.297 222.213C698.873 223.393 699.194 225.621 698.014 227.197C696.834 228.774 694.607 229.095 693.03 227.915Z" fill="#D75E67"/>
<path opacity="0.9" d="M604.603 378.25C603.027 377.071 602.706 374.843 603.886 373.266C605.066 371.69 607.293 371.369 608.87 372.549C610.446 373.729 610.767 375.956 609.587 377.533C608.408 379.109 606.18 379.43 604.603 378.25Z" fill="#D75E67"/>
<g opacity="0.9">
<path d="M697.301 346.293C698.336 350.335 699.843 353.905 701.648 356.94C699.978 357.258 698.407 358.322 697.389 359.952C695.147 359.032 692.777 357.562 690.43 355.52C691.484 351.727 693.929 348.436 697.301 346.293Z" fill="#D5545D"/>
</g>
<path d="M759.64 418.026C737.443 411.999 711.622 422.958 699.409 447.203C694.729 439.019 690.326 429.13 686.888 417.582C700.403 402.594 718.969 394.739 737.185 395.017C745.191 401.645 752.732 409.338 759.64 418.026Z" fill="#40455E"/>
<path d="M472.252 308.005L528.322 400.919C528.787 410.177 525.69 418.815 519.498 425.409C513.925 431.323 506.464 434.729 498.971 434.791C486.339 434.884 474.109 425.874 469.001 412.778L472.252 308.005Z" fill="#482717"/>
<path d="M536.559 414.509L611.794 539.158C596.716 551.543 572.071 567.209 538.138 574.144C514.05 579.067 488.446 578.819 463.986 573.432L468.476 429.866C476.495 438.845 487.764 444.387 499.344 444.263C507.858 444.201 516.31 441.012 523.122 435.377C524.422 434.324 525.63 433.179 526.775 431.94C531.419 426.987 534.732 421.011 536.559 414.509Z" fill="#F8A87D"/>
<path d="M511.512 586.777L612.197 992.491C608.141 991.933 604.085 991.035 600.091 989.797L467.64 583.65C482.099 586.375 496.898 587.427 511.512 586.777Z" fill="#98AFDC"/>
<path d="M563.741 576.807L643.621 990.044C643.497 990.075 643.342 990.137 643.218 990.168C640.277 991.035 637.181 991.778 633.899 992.304C632.32 992.552 630.679 992.768 629.007 992.923C626.716 993.14 624.425 993.233 622.134 993.202L521.139 586.126C527.641 585.507 534.05 584.547 540.397 583.247C548.694 581.544 556.465 579.346 563.741 576.807Z" fill="#98AFDC"/>
<path d="M613.001 550.367L669.814 975.678C665.882 979.022 660.093 983.171 652.662 986.576L572.782 573.371C575.414 572.287 577.953 571.172 580.399 570.027C593.557 563.897 604.425 556.899 613.001 550.367Z" fill="#98AFDC"/>
<path opacity="0.22" d="M669.813 975.677L613 550.366C609.78 552.812 606.25 555.319 602.38 557.827L661.671 981.653C664.921 979.609 667.646 977.535 669.813 975.677Z" fill="black"/>
<path opacity="0.22" d="M611.762 539.16L558.293 450.58C572.287 482.965 586.282 515.382 600.307 547.767C604.611 544.825 608.419 541.915 611.762 539.16Z" fill="black"/>
<path d="M464.171 276.145C467.081 280.789 469.991 285.464 472.871 290.108C521.634 371.041 570.398 452.004 619.192 532.936L620.4 534.979L620.771 537.487L680 979.455L678.235 981.034C677.43 981.777 676.501 982.582 675.51 983.418C670.681 987.412 663.621 992.304 654.488 996.143L652.785 996.824C646.221 999.425 638.667 1001.44 630.153 1002.18C618.263 1003.23 606.343 1001.75 594.733 997.753L592.318 996.917L591.606 994.533L455.378 575.724L454.232 571.884L454.263 571.141C457.297 478.847 460.362 386.552 463.397 294.257C463.644 288.251 463.923 282.213 464.171 276.145ZM612.195 992.49L511.51 586.808C496.896 587.458 482.097 586.405 467.607 583.65L600.058 989.796C604.083 991.035 608.139 991.933 612.195 992.49ZM563.741 576.807C556.496 579.346 548.694 581.544 540.397 583.247C534.081 584.548 527.641 585.507 521.139 586.127L622.134 993.202C624.425 993.202 626.716 993.109 629.007 992.923C630.679 992.769 632.289 992.583 633.899 992.304C637.181 991.778 640.277 991.066 643.218 990.168C643.342 990.137 643.497 990.075 643.621 990.044L563.741 576.807ZM652.661 986.607C656.005 985.059 659.008 983.387 661.671 981.685C664.922 979.61 667.646 977.536 669.814 975.709L613 550.398C609.78 552.843 606.251 555.351 602.38 557.859C595.941 562.039 588.603 566.219 580.398 570.058C577.952 571.203 575.413 572.318 572.782 573.402L652.661 986.607ZM536.557 414.51C534.762 420.981 531.418 426.956 526.805 431.879C525.659 433.117 524.421 434.263 523.12 435.316C516.309 440.95 507.857 444.139 499.342 444.201C487.732 444.294 476.493 438.783 468.474 429.805L463.985 573.371C488.444 578.758 514.049 579.006 538.136 574.083C564.546 568.696 585.29 558.014 600.337 547.704C604.61 544.763 608.449 541.852 611.793 539.097L558.323 450.517L536.557 414.51ZM472.251 308.004L468.969 412.745C474.078 425.842 486.277 434.882 498.94 434.758C506.432 434.696 513.925 431.291 519.467 425.377C525.659 418.782 528.786 410.144 528.291 400.887L472.251 308.004Z" fill="#482717"/>
<path d="M402.404 309.645C401.475 310.791 399.741 310.976 398.503 310.048L379.09 295.217C377.883 294.288 377.635 292.586 378.564 291.44C379.493 290.294 381.226 290.109 382.465 291.038L401.877 305.868C403.085 306.766 403.302 308.469 402.404 309.645Z" fill="#482717"/>
<path d="M518.169 265.65C519.531 266.363 521.203 265.867 521.884 264.567L532.813 243.792C533.494 242.492 532.937 240.851 531.575 240.139C530.213 239.427 528.541 239.922 527.86 241.222L516.93 261.997C516.249 263.297 516.807 264.969 518.169 265.65Z" fill="#482717"/>
<path d="M454.574 256.176C453.243 256.857 451.54 256.299 450.797 254.999L439.156 233.915C438.413 232.583 438.939 230.973 440.27 230.292C441.602 229.611 443.305 230.168 444.048 231.469L455.689 252.553C456.401 253.885 455.906 255.494 454.574 256.176Z" fill="#482717"/>
</svg>
