<svg width="48" height="48" viewBox="0 0 48 48" fill="none" xmlns="http://www.w3.org/2000/svg">
<path d="M24 48C37.2548 48 48 37.2548 48 24C48 10.7452 37.2548 0 24 0C10.7452 0 0 10.7452 0 24C0 37.2548 10.7452 48 24 48Z" fill="#E2E1DB"/>
<path d="M22.1001 25.5C19.5001 25.5 17.0001 25.5 14.6001 25.5C13.3001 25.5 12.2001 25.2 12.1001 23.6C12.0001 22 13.1001 21.5 14.6001 21.5C17.0001 21.5 19.5001 21.5 22.1001 21.5C22.1001 19 22.1001 16.6 22.1001 14.3C22.1001 12.8 22.4001 11.5 24.1001 11.5C25.8001 11.5 26.1001 12.9 26.1001 14.3C26.1001 16.6 26.1001 18.9 26.1001 21.5C28.6001 21.5 31.0001 21.5 33.3001 21.5C34.7001 21.5 36.1001 21.8 36.1001 23.5C36.1001 25.3 34.8001 25.5 33.3001 25.5C31.0001 25.5 28.7001 25.5 26.1001 25.5C26.1001 28 26.2001 30.5 26.1001 32.9C26.1001 33.6 25.9 34.5 25.4 35C25 35.4 23.9001 35.6 23.5001 35.4C22.9001 35.1 22.3001 34.2 22.2001 33.5C22.0001 31 22.1001 28.4 22.1001 25.5Z" fill="#373B56" stroke="#373B56" stroke-width="0.75" stroke-miterlimit="10"/>
</svg>
