<svg width="61" height="61" viewBox="0 0 61 61" fill="none" xmlns="http://www.w3.org/2000/svg">
<path d="M30.5 61C47.3447 61 61 47.3447 61 30.5C61 13.6553 47.3447 0 30.5 0C13.6553 0 0 13.6553 0 30.5C0 47.3447 13.6553 61 30.5 61Z" fill="#E2E1DB"/>
<path d="M39.7775 32.7873C39.5233 32.5331 39.2691 32.4061 38.8879 32.279C37.7441 31.6436 36.6004 31.1353 35.4566 30.6269C41.3025 27.0686 42.1921 21.2227 40.7941 17.029C39.2691 12.454 35.0754 9.27686 30.2462 9.27686C25.1629 9.27686 20.8421 12.1998 19.3171 16.9019C17.9191 21.0956 18.8087 27.0686 24.7816 30.754C22.3671 31.6436 20.2066 32.7873 18.4275 34.5665C14.9962 37.8706 13.09 41.8102 12.9629 46.6394C12.9629 47.6561 13.3441 48.1644 14.1066 48.1644C14.7421 48.1644 15.1233 47.6561 15.2504 46.6394C15.2504 46.1311 15.3775 45.4957 15.3775 44.9873C16.6483 35.4561 26.815 29.4832 35.7108 33.1686C36.7275 33.5498 37.6171 34.1852 38.6337 34.6935C39.1421 34.9477 39.7775 34.9478 40.0316 34.4394C40.4129 33.6769 40.2858 33.1685 39.7775 32.7873ZM21.0962 20.4603C21.0962 15.504 25.1629 11.4373 30.2462 11.4373C35.2025 11.4373 39.2691 15.504 39.2691 20.5873C39.2691 25.5436 35.2025 29.6102 30.2462 29.6102C25.1629 29.6102 21.0962 25.5436 21.0962 20.4603Z" fill="#373B56" stroke="#373B56" stroke-width="0.25" stroke-miterlimit="10"/>
<path d="M50.7073 41.048C50.5802 41.8105 50.0719 42.0647 49.3094 42.0647C47.9115 42.0647 46.3865 42.0647 44.8615 42.0647V45.7501C44.8615 46.1314 44.8615 46.3855 44.8615 46.7668C44.7344 47.4022 44.4802 47.9105 43.8448 47.9105C43.0823 47.9105 42.701 47.4022 42.701 46.7668C42.701 45.2418 42.701 43.7168 42.701 42.0647C41.176 42.0647 39.7781 42.0647 38.3802 42.0647H38.2531C38.126 42.0647 38.126 42.0647 37.999 42.0647C37.7448 42.0647 37.4906 41.9376 37.3635 41.6834C37.3635 41.6834 37.3635 41.5564 37.2365 41.5564C37.1094 41.4293 37.1094 41.1751 37.1094 40.9209C37.1094 40.5397 37.3635 40.1584 37.6177 40.0314C37.6177 40.0314 37.6177 40.0314 37.7448 40.0314C37.7448 40.0314 37.7448 40.0314 37.8719 40.0314C37.8719 40.0314 37.8719 40.0314 37.999 40.0314H38.126C39.2698 39.9043 40.5406 40.0314 41.6844 40.0314H42.701C42.701 38.5063 42.701 37.1085 42.701 35.7106C42.701 34.6939 43.0823 34.1855 43.7177 34.1855C44.4802 34.1855 44.8615 34.6939 44.8615 35.7106C44.8615 37.1085 44.8615 38.5063 44.8615 40.0314C46.3865 40.0314 47.9115 40.0314 49.4365 40.0314C50.199 40.0314 50.7073 40.4126 50.7073 41.048Z" fill="#373B56" stroke="#373B56" stroke-width="0.25" stroke-miterlimit="10"/>
<path d="M34.4397 42.1919C34.3126 42.1919 34.1855 42.1919 34.1855 42.1919C34.3126 42.1919 34.3126 42.1919 34.4397 42.1919Z" fill="#373B56" stroke="#1D1E1B" stroke-width="0.25" stroke-miterlimit="10"/>
</svg>
