<svg width="59" height="59" viewBox="0 0 59 59" fill="none" xmlns="http://www.w3.org/2000/svg">
<path d="M29.5 59C45.7924 59 59 45.7924 59 29.5C59 13.2076 45.7924 0 29.5 0C13.2076 0 0 13.2076 0 29.5C0 45.7924 13.2076 59 29.5 59Z" fill="#E2E1DB"/>
<path d="M49.1677 27.7794C48.676 27.1648 48.0615 26.5502 47.5698 25.9357C46.2177 24.4607 44.7427 23.1085 43.2677 21.7565C42.776 21.3877 42.6531 20.896 42.6531 20.2814C42.6531 17.7002 42.6531 15.1189 42.6531 12.6606C42.6531 11.1856 42.1615 10.8169 40.8094 10.694C40.0719 10.694 39.4573 10.694 38.7198 10.694C37.7365 10.694 37.2448 11.1856 37.2448 12.169C37.2448 13.1523 37.2448 14.2586 37.2448 15.4877C36.876 15.119 36.6302 14.996 36.5073 14.7502C34.7865 13.1523 33.1885 11.4314 31.4677 9.83353C31.3448 9.71061 31.3448 9.7106 31.2219 9.58768L29.624 7.98978L29.501 7.86689C29.1323 7.49814 28.5177 7.49814 28.149 7.86689L9.58854 26.6731C9.46563 26.796 9.34271 26.9189 9.21979 27.0419C8.85104 27.4106 8.60521 27.7794 8.35938 28.271V29.0086C9.21979 30.2377 9.95729 30.2377 11.0635 29.2544C11.4323 28.8856 11.801 28.394 12.1698 27.9023C12.2927 27.9023 12.2927 28.0252 12.4156 28.0252C12.4156 28.271 12.4156 28.6398 12.4156 28.8856C12.4156 33.0648 12.4156 37.244 12.4156 41.4231C12.4156 44.496 13.1531 45.6023 15.9802 46.5856H41.7927C42.2844 46.3398 42.899 46.2169 43.2677 45.9711C44.7427 45.1106 45.3573 43.7585 45.3573 42.0377C45.3573 37.7356 45.3573 33.3107 45.3573 29.0086V28.0252C45.4802 28.0252 45.4802 27.9023 45.6031 27.9023C45.9719 28.394 46.3406 28.8856 46.8323 29.2544C47.9385 30.3606 48.676 30.2377 49.5365 29.0086V28.271C49.5365 28.0252 49.2906 27.9023 49.1677 27.7794ZM40.9323 43.6356C32.9427 43.6356 24.9531 43.6356 17.0865 43.6356C15.7344 43.6356 15.3656 43.2669 15.3656 41.7919C15.3656 36.7523 15.3656 31.8356 15.3656 26.796C15.3656 26.4273 15.3656 26.0585 15.3656 25.5669C15.3656 25.1981 15.4885 24.8294 15.7344 24.5835C17.9469 22.371 20.1594 20.1586 22.249 17.9461C24.3385 15.8565 26.3052 13.7669 28.3948 11.6773C28.7635 11.3085 29.3781 11.3085 29.7469 11.6773C30.8531 12.7835 31.9594 14.0127 33.0656 15.1189C34.2948 16.471 35.6469 17.7002 36.876 18.9294C38.7198 20.7731 40.5635 22.4939 42.2844 24.3377C42.5302 24.5835 42.776 25.0752 42.776 25.444C42.776 26.0585 42.776 26.796 42.776 27.4106C42.776 32.0814 42.776 36.8752 42.776 41.546C42.776 43.1439 42.2844 43.6356 40.9323 43.6356Z" fill="#373B56"/>
</svg>
