<svg width="59" height="59" viewBox="0 0 59 59" fill="none" xmlns="http://www.w3.org/2000/svg">
<path d="M29.5 59C45.7924 59 59 45.7924 59 29.5C59 13.2076 45.7924 0 29.5 0C13.2076 0 0 13.2076 0 29.5C0 45.7924 13.2076 59 29.5 59Z" fill="#E2E1DB"/>
<path d="M31.4625 14.8736C31.0938 15.6111 30.848 16.3486 30.4792 16.9632C29.8646 16.8402 29.2501 16.8403 28.7584 16.8403C25.9313 16.8403 23.7188 18.0695 22.2438 20.4049C21.6292 21.3882 21.2605 22.4944 21.1375 23.7236C21.0146 25.4444 20.7688 27.1653 20.6459 28.7632C20.523 29.6236 20.5229 30.607 20.4 31.4674C20.2771 32.9424 19.5396 34.0486 18.1875 34.7861C17.6959 35.0319 17.3271 35.4007 17.2042 35.8924C17.0813 36.384 17.0813 36.8757 17.2042 37.3674C17.3271 37.859 17.6959 38.2278 18.3104 38.2278C18.4334 38.2278 18.4334 38.2278 18.5563 38.2278C25.3167 38.2278 32.0771 38.2278 38.8375 38.2278C39.4521 38.2278 40.0667 37.982 40.0667 37.3674C40.3125 36.2611 40.0667 35.4007 39.0834 34.909C37.9771 34.2945 37.2396 33.3111 36.8709 32.082C36.7479 31.4674 36.748 30.8528 36.6251 30.2382C36.5021 29.5007 36.5021 28.7632 36.3792 28.0257C37.1167 28.1486 37.9771 28.2716 38.8375 28.3945C38.8375 28.8861 38.9605 29.3778 38.9605 29.9924C38.9605 30.484 39.0834 30.8528 39.0834 31.3444C39.2063 31.959 39.575 32.4507 40.0667 32.8194C40.9271 33.3111 41.5417 33.9257 42.0334 34.7861C42.4021 35.6465 42.4021 36.384 42.4021 37.2444C42.2792 38.8423 41.173 40.1944 39.575 40.5632C39.3292 40.5632 39.0834 40.6861 38.7146 40.6861C36.8709 40.6861 35.0271 40.6861 33.1834 40.6861C33.0604 40.6861 32.9375 40.6861 32.8146 40.6861C32.8146 41.0549 32.8146 41.4236 32.8146 41.7924C32.6917 43.759 31.0938 45.4799 29.1271 45.7257C26.7917 45.9715 24.825 44.6195 24.2105 42.284C24.0875 41.9153 24.0875 41.5465 24.0875 41.1778C24.0875 40.9319 24.0875 40.809 24.0875 40.5632C23.9646 40.5632 23.8417 40.5632 23.8417 40.5632C21.998 40.5632 20.1542 40.5632 18.3104 40.5632C17.2042 40.5632 16.3438 40.1944 15.6063 39.334C15.1146 38.8424 14.8688 38.2278 14.7459 37.6132C14.623 36.507 14.6229 35.4007 15.2375 34.4174C15.6063 33.8028 15.975 33.3111 16.5896 33.0653C16.8355 32.9424 17.0813 32.8194 17.3271 32.5736C17.8188 32.2048 17.9417 31.7132 18.0646 31.0986C18.1875 29.5007 18.3104 27.7798 18.5563 26.1819C18.6792 24.9527 18.6792 23.6007 19.048 22.3715C19.9084 18.4382 22.3667 15.9799 26.1771 14.8736C27.775 14.2591 29.6188 14.382 31.4625 14.8736ZM26.5459 40.6861C26.5459 41.0549 26.5459 41.3007 26.5459 41.6695C26.6688 42.407 27.0375 43.0215 27.775 43.2674C28.5125 43.5132 29.1271 43.5132 29.7417 43.0215C30.4792 42.4069 30.4792 41.5466 30.4792 40.6861C29.1271 40.6861 27.8979 40.6861 26.5459 40.6861Z" fill="#373B56"/>
<path d="M44.3691 19.5444C44.3691 22.6174 41.9108 25.0757 38.8379 25.0757C35.8879 25.0757 33.3066 22.7403 33.3066 19.5444C33.3066 16.4715 35.765 14.0132 38.8379 14.0132C41.9108 14.1361 44.2462 16.5944 44.3691 19.5444Z" fill="#F76161"/>
</svg>
