<svg width="59" height="59" viewBox="0 0 59 59" fill="none" xmlns="http://www.w3.org/2000/svg">
<path d="M29.5 59C45.7924 59 59 45.7924 59 29.5C59 13.2076 45.7924 0 29.5 0C13.2076 0 0 13.2076 0 29.5C0 45.7924 13.2076 59 29.5 59Z" fill="#E2E1DB"/>
<path d="M27.1591 21.5123C27.7737 20.5289 28.0195 20.406 29.0029 21.1435C29.7404 21.6352 30.232 22.4956 30.232 23.356C30.232 25.0769 30.232 26.7977 30.232 28.6414C30.232 29.3789 29.8633 29.7477 29.1258 29.7477C26.0529 29.7477 22.9799 29.7477 19.907 29.7477C19.1695 29.7477 18.8008 29.3789 18.8008 28.6414C18.8008 26.9206 18.8008 25.3227 18.8008 23.6019C18.8008 22.6185 19.1695 21.881 19.907 21.2664C20.7674 20.5289 21.1362 20.6519 21.7508 21.5123C21.382 21.6352 20.7674 21.7581 20.5216 22.004C20.1529 22.3727 19.7841 22.8644 19.7841 23.356C19.6612 25.1998 19.7841 26.9206 19.7841 28.7644C22.9799 28.7644 26.0529 28.7644 29.2487 28.7644C29.2487 26.9206 29.2487 25.0769 29.2487 23.2331C29.1258 22.2498 28.3883 21.6352 27.1591 21.5123Z" fill="#373B56"/>
<path d="M24.4579 15.8574C22.86 15.8574 21.5079 17.0866 21.6308 18.6845C21.6308 20.2824 22.86 21.5116 24.4579 21.5116C26.0558 21.5116 27.4079 20.2824 27.285 18.6845C27.285 17.0866 26.0558 15.8574 24.4579 15.8574ZM24.4579 20.5282C23.4746 20.5282 22.6142 19.6679 22.6142 18.5616C22.6142 17.4554 23.4746 16.7179 24.4579 16.7179C25.4413 16.7179 26.3017 17.5783 26.4246 18.5616C26.3017 19.6679 25.4413 20.5282 24.4579 20.5282Z" fill="#373B56"/>
<path d="M23.2263 22.3724C23.5951 22.4953 23.8409 22.4953 24.2096 22.6182C24.0867 23.2328 24.0867 23.8474 23.8409 24.339C23.718 24.9536 23.8409 25.4453 24.4555 25.814C24.9472 25.4453 25.193 25.0765 25.0701 24.339C24.9472 23.7245 24.8242 23.2328 24.7013 22.4953C24.9471 22.4953 25.3159 22.3724 25.6847 22.2495C25.8076 23.2328 26.0534 24.2162 26.1763 25.0766C26.1763 25.1995 26.0534 25.4453 26.0534 25.4453C25.6846 25.8141 25.3159 26.1828 24.9472 26.6745C24.7013 26.9203 24.4555 26.9203 24.0867 26.6745C23.718 26.3057 23.3492 25.937 22.9805 25.4453C22.8576 25.3224 22.7346 25.0765 22.8576 24.9536C22.9805 24.2161 23.1034 23.2328 23.2263 22.3724Z" fill="#373B56"/>
<path d="M27.1602 32.0837C27.1602 32.3296 26.9143 32.5753 26.6685 32.5753C26.5456 32.5753 26.4227 32.5753 26.1768 32.5753C24.2102 32.5753 22.2435 32.5753 20.2769 32.5753C20.031 32.5753 19.7852 32.3296 19.7852 32.0837C19.7852 31.8379 20.031 31.592 20.2769 31.592C22.3664 31.592 24.456 31.592 26.5456 31.592C26.9143 31.4691 27.1602 31.715 27.1602 32.0837Z" fill="#373B56"/>
<path d="M27.1603 34.6636C27.1603 34.9094 26.9145 35.1553 26.6686 35.1553H20.3999C20.154 35.1553 19.9082 34.9094 19.9082 34.6636C19.9082 34.4177 20.154 34.1719 20.3999 34.1719C22.4894 34.1719 24.579 34.1719 26.6686 34.1719C26.9145 34.1719 27.1603 34.4177 27.1603 34.6636Z" fill="#373B56"/>
<path d="M27.1602 37.3684C27.1602 37.6142 26.9143 37.86 26.6685 37.86H26.1768C24.2102 37.86 22.2435 37.86 20.2769 37.86C20.031 37.86 19.7852 37.6142 19.7852 37.3684C19.7852 37.1226 20.031 36.8767 20.2769 36.8767C21.9977 36.8767 25.3164 36.8767 26.5456 36.8767C26.9143 36.7538 27.1602 36.9996 27.1602 37.3684Z" fill="#373B56"/>
<path d="M27.1603 39.9496C27.1603 40.1955 26.9145 40.4413 26.6686 40.4413H25.0707C23.4728 40.4413 21.8749 40.4413 20.3999 40.4413C20.154 40.4413 19.9082 40.1955 19.9082 39.9496C19.9082 39.7038 20.154 39.458 20.3999 39.458C21.629 39.458 22.7353 39.458 23.9645 39.458H26.6686C26.9145 39.458 27.1603 39.7038 27.1603 39.9496Z" fill="#373B56"/>
<path d="M26.9147 45.9726C17.9418 45.358 10.9355 37.983 10.9355 28.8871C10.9355 19.4225 18.5564 11.8018 28.021 11.8018C36.3793 11.8018 43.3856 17.8246 44.8606 25.8142" stroke="#373B56" stroke-width="1.5" stroke-miterlimit="10"/>
<path d="M47.693 30.2379H47.57H45.6034C45.6034 29.7462 45.6034 29.3775 45.6034 29.0087C45.6034 27.9025 44.8659 27.1649 43.7596 27.042C42.0388 27.042 40.318 27.042 38.5971 27.042C37.6138 27.042 36.8763 27.7795 36.7534 28.8857C36.7534 29.2545 36.7534 29.7462 36.7534 30.2379H31.0992C29.6242 30.2379 28.8867 30.9754 28.8867 32.4504C28.8867 36.5066 28.8867 40.6858 28.8867 44.742C28.8867 45.8483 29.2554 46.7087 30.3617 47.2004H34.9096C36.7534 47.2004 36.3846 45.9712 35.8929 45.9712H30.9763C30.4846 45.9712 30.1159 45.8482 30.1159 45.2336C30.1159 42.5295 30.1159 39.9483 30.1159 37.1212H32.943C32.943 37.6128 32.943 38.2274 32.943 38.7191C32.943 39.3337 33.1888 39.5795 33.8034 39.5795H35.8929C36.3846 39.5795 36.7534 39.3337 36.7534 38.7191V37.1212H44.9888C45.3575 37.1212 45.7263 36.7525 45.7263 36.3837C45.7263 36.015 45.3575 35.7691 44.9888 35.7691H30.2388V32.2045C30.2388 31.467 30.7305 31.467 31.2221 31.467C35.4013 31.467 39.4576 31.467 43.6367 31.467H47.57C47.9388 31.467 48.1846 31.2212 48.1846 30.8525C48.1846 30.4837 47.9388 30.2379 47.693 30.2379ZM34.295 37.1212H35.4013V38.2275H34.295V37.1212ZM44.2513 30.1149H37.9825C37.9825 29.992 37.9825 29.992 37.9825 29.8691C37.8596 28.2711 37.9825 28.2712 39.5804 28.2712H43.0221C44.2513 28.2712 44.2513 28.3941 44.2513 29.6233C44.2513 29.7462 44.2513 29.8691 44.2513 30.1149Z" fill="#373B56"/>
</svg>
