<svg width="48" height="53" viewBox="0 0 48 53" fill="none" xmlns="http://www.w3.org/2000/svg">
<path d="M24 52.423C37.2548 52.423 48 40.8707 48 26.6202C48 12.3697 37.2548 0.817383 24 0.817383C10.7452 0.817383 0 12.3697 0 26.6202C0 40.8707 10.7452 52.423 24 52.423Z" fill="#E2E1DB"/>
<path d="M22.1001 28.2328C19.5001 28.2328 17.0001 28.2328 14.6001 28.2328C13.3001 28.2328 12.2001 27.9103 12.1001 26.1901C12.0001 24.4699 13.1001 23.9323 14.6001 23.9323C17.0001 23.9323 19.5001 23.9323 22.1001 23.9323C22.1001 21.2445 22.1001 18.6642 22.1001 16.1915C22.1001 14.5788 22.4001 13.1812 24.1001 13.1812C25.8001 13.1812 26.1001 14.6863 26.1001 16.1915C26.1001 18.6642 26.1001 21.137 26.1001 23.9323C28.6001 23.9323 31.0001 23.9323 33.3001 23.9323C34.7001 23.9323 36.1001 24.2549 36.1001 26.0826C36.1001 28.0178 34.8001 28.2328 33.3001 28.2328C31.0001 28.2328 28.7001 28.2328 26.1001 28.2328C26.1001 30.9206 26.2001 33.6084 26.1001 36.1887C26.1001 36.9413 25.9 37.9089 25.4 38.4464C25 38.8765 23.9001 39.0915 23.5001 38.8765C22.9001 38.554 22.3001 37.5863 22.2001 36.8337C22.0001 34.1459 22.1001 31.3506 22.1001 28.2328Z" fill="#373B56" stroke="#373B56" stroke-width="0.75" stroke-miterlimit="10"/>
</svg>
