<svg width="43" height="44" viewBox="0 0 43 44" fill="none" xmlns="http://www.w3.org/2000/svg">
<path d="M21.5888 43.4997C33.349 43.4997 42.8825 33.9662 42.8825 22.2059C42.8825 10.4457 33.349 0.912109 21.5888 0.912109C9.82852 0.912109 0.294922 10.4457 0.294922 22.2059C0.294922 33.9662 9.82852 43.4997 21.5888 43.4997Z" fill="#E3E2DC"/>
<g clip-path="url(#clip0_196_1496)">
<path fill-rule="evenodd" clip-rule="evenodd" d="M12.1908 20.9575C11.1028 21.2839 10.2324 22.2631 10.2324 23.4599V35.2104C10.2324 36.6248 11.4292 37.8216 12.9524 37.8216H29.3813C30.9045 37.8216 32.1013 36.6248 32.1013 35.2104V34.4488H28.5109V33.0344H32.1013V31.076H28.5109V29.6616H32.1013V27.5943H28.5109V26.1799H32.1013V23.4599C32.1013 22.2631 31.3397 21.2839 30.2517 20.9575V17.1495C30.2517 14.6471 29.3813 12.5799 27.6405 10.7303C25.8997 8.88066 23.7237 8.01025 21.2213 8.01025C18.7189 8.01025 16.5429 8.88066 14.802 10.7303C13.0612 12.4711 12.1908 14.6471 12.1908 17.1495V20.9575ZM26.4437 20.7399H15.9988V17.1495C15.9988 15.6263 16.5429 14.4295 17.5221 13.4503C18.5013 12.4711 19.6981 11.9271 21.1125 11.9271C22.6357 11.9271 23.8325 12.4711 24.8117 13.4503C25.8997 14.4295 26.3349 15.7351 26.3349 17.1495V20.7399H26.4437ZM22.2005 30.6408V32.4904C22.2005 32.9256 21.7653 33.252 21.2213 33.252C20.6773 33.252 20.2421 32.9256 20.2421 32.4904V30.6408C19.5893 30.3144 19.0453 29.5528 19.0453 28.6824C19.0453 27.4855 20.0245 26.5063 21.2213 26.5063C22.4181 26.5063 23.3973 27.4855 23.3973 28.6824C23.3973 29.5528 22.9621 30.3144 22.2005 30.6408Z" fill="#373B56"/>
</g>
<defs>
<clipPath id="clip0_196_1496">
<rect width="21.8689" height="29.8113" fill="white" transform="translate(10.2324 8.01025)"/>
</clipPath>
</defs>
</svg>
