<svg width="208" height="51" viewBox="0 0 208 51" fill="none" xmlns="http://www.w3.org/2000/svg">
<path d="M25.5422 7.63668C22.645 4.43732 19.0524 2.81445 14.9267 2.81445C10.801 2.81445 7.23156 4.46051 4.28794 7.63668C1.43704 10.7897 0 14.6381 0 19.0431V38.7956C0 40.2793 1.08937 41.369 2.57277 41.369C4.05616 41.369 5.12235 40.2793 5.12235 38.7956V26.5546H24.7078V38.7956C24.7078 40.2793 25.7972 41.369 27.2574 41.369C28.7408 41.369 29.8302 40.2793 29.8302 38.7956V19.0431C29.8302 16.8406 29.4593 14.7773 28.7408 12.8762C28.0455 10.9519 26.9793 9.21317 25.5422 7.63668ZM24.7078 21.4078H5.12235V19.0431C5.12235 15.9132 6.09583 13.3167 8.06597 11.1374C9.98975 8.98133 12.238 7.93805 14.9035 7.93805C17.569 7.93805 19.7941 8.98133 21.741 11.1374C23.7112 13.3399 24.6846 15.9364 24.6846 19.0431V21.4078H24.7078Z" fill="#363B56"/>
<path d="M51.6175 38.7956C51.6175 40.2793 50.5281 41.369 49.0216 41.369C45.174 41.369 41.8595 40.0011 39.1709 37.2654C36.459 34.5529 35.0684 31.2145 35.0684 27.3892V5.38782C35.0684 3.90407 36.1577 2.79126 37.6411 2.79126C39.1245 2.79126 40.1907 3.88088 40.1907 5.38782V13.4326H49.0447C50.5281 13.4326 51.6407 14.5222 51.6407 16.006C51.6407 17.4897 50.5513 18.6025 49.0447 18.6025H40.1675V27.3892C40.1675 29.8235 41.0251 31.8868 42.7867 33.6256C44.5018 35.3876 46.5647 36.2222 49.0216 36.2222C50.505 36.199 51.6175 37.3118 51.6175 38.7956Z" fill="#363B56"/>
<path d="M96.0729 17.5361C93.3611 14.8236 90.0466 13.4326 86.2222 13.4326C82.3979 13.4326 79.0602 14.8004 76.3716 17.5361C73.6597 20.2486 72.269 23.5871 72.269 27.3892C72.269 31.2145 73.6366 34.553 76.3716 37.2655C79.0834 39.978 82.3747 41.369 86.2222 41.369C89.5831 41.369 92.5267 40.3025 95.0299 38.216V38.7956C95.0299 40.2794 96.1193 41.369 97.6027 41.369C99.0861 41.369 100.199 40.2794 100.199 38.7956V27.3892C100.175 23.5639 98.7848 20.2486 96.0729 17.5361ZM95.0299 33.046C94.7286 32.9301 94.4041 32.9069 94.1723 32.9069C93.5002 32.9069 92.8512 33.2083 92.4108 33.672C90.6493 35.3644 88.6328 36.199 86.1991 36.199C83.7422 36.199 81.7025 35.3644 79.9642 33.6024C78.2026 31.8637 77.345 29.8235 77.345 27.366C77.345 24.9317 78.2026 22.8916 79.9642 21.1296C81.7025 19.3908 83.7422 18.5562 86.1991 18.5562C88.6328 18.5562 90.6956 19.3908 92.434 21.1296C94.1955 22.8684 95.0299 24.9085 95.0299 27.366V33.046Z" fill="#363B56"/>
<path d="M59.2661 18.5794V27.4124C59.2661 29.8467 60.1237 31.8868 61.8621 33.6256C63.6004 35.3876 65.6401 36.2222 68.097 36.2222C69.5804 36.2222 70.6697 37.3118 70.6697 38.7956C70.6697 40.2793 69.5804 41.369 68.097 41.369C64.2726 41.369 60.935 40.0011 58.2231 37.2654C55.5113 34.5529 54.1206 31.2145 54.1206 27.4124V5.38784C54.1206 3.90408 55.21 2.81445 56.6934 2.81445C58.1768 2.81445 59.243 3.90408 59.243 5.38784V13.4558H68.097C69.5804 13.4558 70.6697 14.5454 70.6697 16.0292C70.6697 17.5129 69.5804 18.6026 68.097 18.6026H59.2661V18.5794Z" fill="#363B56"/>
<path d="M127.294 35.5731C127.271 36.0136 127.132 36.6859 126.506 37.335C123.794 40.0011 120.503 41.369 116.701 41.369C112.877 41.369 109.539 40.0011 106.828 37.2655C104.116 34.553 102.725 31.2145 102.725 27.3892C102.725 23.5639 104.093 20.2486 106.828 17.5361C109.563 14.8236 112.877 13.4326 116.701 13.4326C120.503 13.4326 123.794 14.7773 126.483 17.4434C127.526 18.4635 127.549 19.9936 126.552 21.0369C125.486 22.0801 123.956 22.1265 122.913 21.1296C121.152 19.3908 119.135 18.5794 116.701 18.5794C114.245 18.5794 112.205 19.414 110.467 21.1528C108.705 22.9147 107.871 24.9317 107.871 27.3892C107.871 29.8235 108.728 31.8868 110.467 33.6256C112.228 35.3644 114.245 36.199 116.701 36.199C119.135 36.199 121.152 35.3876 122.867 33.6952C123.539 32.9997 124.281 32.9069 124.652 32.9069C125.347 32.9069 125.973 33.162 126.506 33.6952C127.039 34.2284 127.317 34.9007 127.294 35.5731Z" fill="#363B56"/>
<path d="M141.016 15.0553V3.23158C141.016 1.44643 139.486 0.0090332 137.608 0.0090332C135.731 0.0090332 134.201 1.44643 134.201 3.23158V18.6951C134.201 19.3442 134.271 19.9934 134.387 20.6194C135.847 18.1155 138.188 16.1449 141.016 15.0553Z" fill="#363B56"/>
<path d="M157.356 18.7183V3.25477C157.356 1.46962 155.826 0.0322266 153.949 0.0322266C152.071 0.0322266 150.541 1.46962 150.541 3.25477V18.7183C150.541 21.1989 148.409 23.2159 145.79 23.2159C143.913 23.2159 142.383 24.6533 142.383 26.4385V29.1742C143.472 29.4987 144.608 29.661 145.79 29.661C152.164 29.661 157.356 24.7461 157.356 18.7183Z" fill="#363B56"/>
<path d="M145.79 21.9409C147.667 21.9409 149.197 20.5035 149.197 18.7184V15.9827C148.108 15.6581 146.972 15.4958 145.79 15.4958C139.416 15.4958 134.224 20.4108 134.224 26.4386V41.9021C134.224 43.6872 135.754 45.1246 137.631 45.1246C139.509 45.1246 141.038 43.6872 141.038 41.9021V26.4386C141.015 23.9579 143.148 21.9409 145.79 21.9409Z" fill="#363B56"/>
<path d="M174.16 12.5516V39.0506C174.16 39.5143 174.137 39.9779 174.09 40.4416C173.395 46.3535 168.365 50.9438 162.269 50.9438C157.518 50.9438 153.439 48.1618 151.515 44.151C151.121 43.3396 150.843 42.4818 150.634 41.5544C150.564 41.2067 150.518 40.8357 150.518 40.4648V30.0785C153.369 29.012 155.71 27.0182 157.17 24.4912C157.286 25.1172 157.332 25.7663 157.332 26.4155V39.6302C157.332 42.3659 159.465 44.7538 162.2 44.8001H162.246C165.422 44.8001 167.994 42.2036 167.994 39.0506V12.6212C168.157 11.091 169.408 9.88548 170.984 9.83911C171.077 9.83911 171.147 9.83911 171.239 9.86229C171.262 9.86229 171.262 9.86229 171.286 9.86229C172.653 9.95502 173.742 10.8824 174.044 12.1343C174.067 12.1807 174.09 12.2038 174.09 12.227C174.137 12.3198 174.16 12.4357 174.16 12.5516Z" fill="#363B56"/>
<path d="M174.16 39.0505V40.4416H174.09C174.137 39.9779 174.16 39.5142 174.16 39.0505Z" fill="#363B56"/>
<path d="M174.623 3.53306C174.623 4.50677 174.276 5.38775 173.58 6.08326C172.885 6.75559 172.004 7.12653 171.054 7.12653C170.057 7.12653 169.177 6.73242 168.504 6.03691C167.855 5.36458 167.508 4.50677 167.508 3.53306C167.508 2.60571 167.855 1.74792 168.504 1.07559C169.826 -0.315435 172.143 -0.384975 173.557 1.02923L173.58 1.05241C174.253 1.72474 174.623 2.58252 174.623 3.53306Z" fill="#363B56"/>
<path d="M208 25.7199V39.7229C208 41.2067 206.934 42.2731 205.474 42.2731C204.014 42.2731 202.971 41.2067 202.971 39.7229V25.7199C202.971 22.4974 201.974 19.8313 199.888 17.5593C197.848 15.3336 195.484 14.2672 192.656 14.2672C189.805 14.2672 187.441 15.3336 185.402 17.5593C183.339 19.8313 182.342 22.5206 182.319 25.7431V39.7229C182.319 41.2067 181.276 42.2731 179.816 42.2731C178.332 42.2731 177.266 41.2067 177.266 39.7229V11.7401C177.266 10.2564 178.332 9.18994 179.816 9.18994C181.276 9.18994 182.319 10.2564 182.319 11.7401V13.5021C182.922 12.9225 183.571 12.3661 184.289 11.8792C186.839 10.1173 189.643 9.21312 192.656 9.21312C196.898 9.21312 200.56 10.8592 203.55 14.1281C206.517 17.3043 208 21.2223 208 25.7199Z" fill="#363B56"/>
</svg>
