<svg width="228" height="56" viewBox="0 0 228 56" fill="none" xmlns="http://www.w3.org/2000/svg">
<path d="M27.9505 8.40643C24.789 4.88567 20.8372 3.08936 16.3105 3.08936C11.7838 3.08936 7.90375 4.88567 4.6704 8.40643C1.58075 11.8553 0 16.0946 0 20.9087V42.5363C0 44.1889 1.14964 45.3385 2.80224 45.3385C4.38299 45.3385 5.60448 44.1889 5.60448 42.5363V29.1717H27.0883V42.5363C27.0883 44.1889 28.238 45.3385 29.8906 45.3385C31.5432 45.3385 32.6928 44.1889 32.6928 42.5363V20.9087C32.6928 18.4657 32.3335 16.2383 31.5432 14.1546C30.6809 11.999 29.5313 10.1309 27.9505 8.40643ZM27.0883 23.4954H5.60448V20.9087C5.60448 17.4598 6.68226 14.6576 8.83783 12.2146C10.9215 9.84348 13.4364 8.69384 16.3105 8.69384C19.1846 8.69384 21.6994 9.84348 23.7831 12.2146C25.9387 14.6576 27.0165 17.4598 27.0165 20.9087V23.4954H27.0883Z" fill="#373B56"/>
<path d="M56.4758 42.4648C56.4758 44.1174 55.2544 45.2671 53.6736 45.2671C49.4343 45.2671 45.8417 43.7582 42.8958 40.8122C39.9498 37.8663 38.4409 34.2018 38.4409 30.0344V5.96386C38.4409 4.31125 39.5906 3.16162 41.2432 3.16162C42.8239 3.16162 44.0454 4.38311 44.0454 5.96386V14.8017H53.6736C55.3262 14.8017 56.4758 15.9513 56.4758 17.6039C56.4758 19.2565 55.2544 20.4062 53.6736 20.4062H43.9735V30.0344C43.9735 32.6929 44.9076 34.9203 46.8476 36.8603C48.7158 38.8004 50.9432 39.6626 53.6736 39.6626C55.3262 39.6626 56.4758 40.8841 56.4758 42.4648Z" fill="#373B56"/>
<path d="M105.192 19.1843C102.246 16.2384 98.5815 14.7295 94.4141 14.7295C90.2466 14.7295 86.5822 16.2384 83.6362 19.1843C80.6903 22.1303 79.1814 25.7947 79.1814 29.9622C79.1814 34.1296 80.6903 37.7941 83.6362 40.74C86.5822 43.686 90.2466 45.1949 94.4141 45.1949C98.0785 45.1949 101.312 44.0452 104.042 41.7459V42.3926C104.042 44.0452 105.192 45.1949 106.845 45.1949C108.497 45.1949 109.647 44.0452 109.647 42.3926V29.8903C109.719 25.7947 108.138 22.2021 105.192 19.1843ZM104.042 36.2133C103.683 36.0696 103.396 36.0696 103.108 36.0696C102.39 36.0696 101.671 36.357 101.168 36.9318C99.2282 38.8 97.0726 39.6622 94.3422 39.6622C91.6837 39.6622 89.4563 38.7282 87.5163 36.86C85.5763 34.9918 84.6422 32.6926 84.6422 30.034C84.6422 27.3755 85.5763 25.1481 87.5163 23.2081C89.3844 21.3399 91.6837 20.4058 94.3422 20.4058C97.0008 20.4058 99.2282 21.3399 101.168 23.2081C103.108 25.0762 103.97 27.3755 103.97 30.034V36.2133H104.042Z" fill="#373B56"/>
<path d="M64.8827 20.3343V30.0344C64.8827 32.6929 65.8168 34.9203 67.7568 36.8603C69.625 38.8004 71.9243 39.7344 74.5828 39.7344C76.2354 39.7344 77.385 40.8841 77.385 42.5367C77.385 44.1893 76.2354 45.3389 74.5828 45.3389C70.4154 45.3389 66.7509 43.83 63.8049 40.8841C60.859 37.9381 59.3501 34.2737 59.3501 30.1062V5.96386C59.3501 4.31125 60.4997 3.16162 62.1523 3.16162C63.8049 3.16162 64.9546 4.31125 64.9546 5.96386V14.8017H74.6546C76.3072 14.8017 77.4569 15.9513 77.4569 17.6039C77.4569 19.2565 76.3072 20.4062 74.6546 20.4062H64.8827V20.3343Z" fill="#373B56"/>
<path d="M139.393 38.9441C139.393 39.4471 139.25 40.1656 138.531 40.8841C135.585 43.8301 131.921 45.2671 127.825 45.2671C123.658 45.2671 119.993 43.7582 117.047 40.8123C114.101 37.8663 112.593 34.2019 112.593 30.0344C112.593 25.867 114.101 22.2025 117.047 19.2566C120.065 16.3107 123.658 14.8018 127.825 14.8018C131.993 14.8018 135.585 16.2388 138.531 19.1848C139.681 20.2625 139.681 21.987 138.603 23.1366C137.453 24.2863 135.801 24.2863 134.651 23.2085C132.711 21.3403 130.556 20.4062 127.825 20.4062C125.167 20.4062 122.939 21.3403 120.999 23.2085C119.059 25.1485 118.125 27.3759 118.125 30.0344C118.125 32.693 119.059 34.9204 120.927 36.8604C122.867 38.7286 125.095 39.6627 127.753 39.6627C130.412 39.6627 132.639 38.8004 134.507 36.9323C135.226 36.2137 136.016 36.07 136.447 36.07C137.238 36.07 137.885 36.3575 138.459 36.9323C139.106 37.5071 139.393 38.2256 139.393 38.9441Z" fill="#373B56"/>
<path d="M154.411 16.526V3.59255C154.411 1.65253 152.758 0.0717773 150.674 0.0717773C148.591 0.0717773 146.938 1.65253 146.938 3.59255V20.5497C146.938 21.2682 147.01 21.9867 147.154 22.6334C148.734 19.8312 151.321 17.6756 154.411 16.526Z" fill="#373B56"/>
<path d="M172.302 20.4779V3.52076C172.302 1.58075 170.649 0 168.566 0C166.482 0 164.829 1.58075 164.829 3.52076V20.4779C164.829 23.2083 162.458 25.4357 159.584 25.4357C157.5 25.4357 155.848 27.0165 155.848 28.9565V31.9743C156.997 32.3335 158.291 32.4772 159.584 32.4772C166.554 32.4772 172.302 27.0883 172.302 20.4779Z" fill="#373B56"/>
<path d="M159.584 23.9986C161.668 23.9986 163.32 22.4178 163.32 20.4778V17.46C162.171 17.1007 160.877 16.957 159.584 16.957C152.614 16.957 146.938 22.346 146.938 28.9564V45.9135C146.938 47.8535 148.591 49.4343 150.674 49.4343C152.758 49.4343 154.411 47.8535 154.411 45.9135V28.9564C154.411 26.226 156.71 23.9986 159.584 23.9986Z" fill="#97ADD9"/>
<path d="M190.696 13.7956V42.8239C190.696 43.3269 190.696 43.8299 190.624 44.3329C189.834 50.7996 184.373 55.8292 177.691 55.8292C172.517 55.8292 167.991 52.8114 165.907 48.3566C165.476 47.4943 165.188 46.4884 164.973 45.5543C164.901 45.1951 164.829 44.764 164.829 44.3329V32.9802C167.919 31.8306 170.505 29.6031 172.086 26.8727C172.23 27.5913 172.302 28.2379 172.302 28.9565V43.3988C172.302 46.4166 174.601 49.0032 177.619 49.0751H177.691C181.14 49.0751 184.014 46.2729 184.014 42.7521V13.7956C184.157 12.143 185.594 10.7778 187.319 10.7778C187.391 10.7778 187.534 10.7778 187.606 10.7778C187.606 10.7778 187.606 10.7778 187.678 10.7778C189.187 10.8497 190.409 11.9275 190.696 13.2927C190.696 13.3645 190.768 13.3645 190.768 13.4364C190.624 13.5082 190.696 13.6519 190.696 13.7956Z" fill="#97ADD9"/>
<path d="M190.696 42.752V44.2608H190.624C190.624 43.7579 190.696 43.2549 190.696 42.752Z" fill="#97ADD9"/>
<path d="M191.199 3.88C191.199 4.95778 190.84 5.89186 190.049 6.68223C189.259 7.40076 188.325 7.83187 187.319 7.83187C186.241 7.83187 185.307 7.40076 184.517 6.61039C183.798 5.89187 183.439 4.95778 183.439 3.88C183.439 2.87407 183.798 1.93999 184.517 1.22147C185.954 -0.287432 188.54 -0.359289 190.049 1.14961C190.768 1.93998 191.199 2.87407 191.199 3.88Z" fill="#97ADD9"/>
<path d="M227.7 28.1659V43.4704C227.7 45.0512 226.55 46.2726 224.97 46.2726C223.389 46.2726 222.239 45.123 222.239 43.4704V28.1659C222.239 24.6451 221.162 21.6991 218.862 19.2562C216.635 16.8132 214.048 15.6636 210.959 15.6636C207.869 15.6636 205.21 16.8132 202.983 19.2562C200.756 21.771 199.606 24.6451 199.606 28.2377V43.5422C199.606 45.123 198.456 46.3445 196.875 46.3445C195.295 46.3445 194.073 45.1949 194.073 43.5422V12.8613C194.073 11.2806 195.223 10.0591 196.875 10.0591C198.456 10.0591 199.606 11.2087 199.606 12.8613V14.8013C200.253 14.1547 200.971 13.5798 201.761 13.005C204.564 11.065 207.653 10.0591 210.959 10.0591C215.629 10.0591 219.653 11.8554 222.886 15.448C226.119 18.9688 227.7 23.2799 227.7 28.1659Z" fill="#97ADD9"/>
</svg>
