<svg width="767" height="189" viewBox="0 0 767 189" fill="none" xmlns="http://www.w3.org/2000/svg">
<path d="M94.1424 28.4264C83.4939 16.5679 70.1833 10.5176 54.9366 10.5176C39.6898 10.5176 26.6212 16.5679 15.7307 28.4264C5.32425 40.043 0 54.3216 0 70.5364V143.382C0 148.948 3.87218 152.82 9.43844 152.82C14.7627 152.82 18.8769 148.948 18.8769 143.382V98.3677H91.2383V143.382C91.2383 148.948 95.1104 152.82 100.677 152.82C106.243 152.82 110.115 148.948 110.115 143.382V70.5364C110.115 62.308 108.905 54.8057 106.243 47.7873C103.339 40.527 99.4666 34.2347 94.1424 28.4264ZM91.2383 79.2488H18.8769V70.5364C18.8769 58.9198 22.507 49.4814 29.7674 41.253C36.7857 33.2667 45.2561 29.3945 54.9366 29.3945C64.617 29.3945 73.0874 33.2667 80.1057 41.253C87.3661 49.4814 90.9962 58.9198 90.9962 70.5364V79.2488H91.2383Z" fill="#373B56"/>
<path d="M190.221 143.14C190.221 148.707 186.107 152.579 180.783 152.579C166.504 152.579 154.404 147.497 144.481 137.574C134.559 127.652 129.477 115.309 129.477 101.272V20.1987C129.477 14.6324 133.349 10.7603 138.915 10.7603C144.239 10.7603 148.353 14.8744 148.353 20.1987V49.9661H180.783C186.349 49.9661 190.221 53.8383 190.221 59.4045C190.221 64.9708 186.107 68.843 180.783 68.843H148.111V101.272C148.111 110.227 151.258 117.729 157.792 124.264C164.084 130.798 171.587 133.702 180.783 133.702C186.349 133.702 190.221 137.816 190.221 143.14Z" fill="#373B56"/>
<path d="M354.305 64.7288C344.383 54.8064 332.04 49.7241 318.004 49.7241C303.967 49.7241 291.624 54.8064 281.702 64.7288C271.779 74.6513 266.697 86.9938 266.697 101.031C266.697 115.067 271.779 127.41 281.702 137.332C291.624 147.255 303.967 152.337 318.004 152.337C330.346 152.337 341.237 148.465 350.433 140.72V142.898C350.433 148.465 354.305 152.337 359.872 152.337C365.438 152.337 369.31 148.465 369.31 142.898V100.788C369.552 86.9938 364.228 74.8933 354.305 64.7288ZM350.433 122.085C349.223 121.601 348.255 121.601 347.287 121.601C344.867 121.601 342.447 122.569 340.753 124.506C334.218 130.798 326.958 133.702 317.762 133.702C308.807 133.702 301.305 130.556 294.771 124.264C288.236 117.971 285.09 110.227 285.09 101.272C285.09 92.3181 288.236 84.8157 294.771 78.2814C301.063 71.9891 308.807 68.843 317.762 68.843C326.716 68.843 334.218 71.9891 340.753 78.2814C347.287 84.5737 350.191 92.3181 350.191 101.272V122.085H350.433Z" fill="#373B56"/>
<path d="M218.537 68.6009V101.272C218.537 110.227 221.683 117.729 228.217 124.264C234.509 130.798 242.254 133.944 251.208 133.944C256.775 133.944 260.647 137.816 260.647 143.382C260.647 148.949 256.775 152.821 251.208 152.821C237.172 152.821 224.829 147.739 214.907 137.816C204.984 127.894 199.902 115.551 199.902 101.514V20.1987C199.902 14.6324 203.774 10.7603 209.34 10.7603C214.907 10.7603 218.779 14.6324 218.779 20.1987V49.9661H251.45C257.017 49.9661 260.889 53.8383 260.889 59.4045C260.889 64.9708 257.017 68.8429 251.45 68.8429H218.537V68.6009Z" fill="#373B56"/>
<path d="M469.502 131.282C469.502 132.976 469.018 135.396 466.598 137.816C456.675 147.738 444.332 152.579 430.538 152.579C416.501 152.579 404.159 147.496 394.236 137.574C384.314 127.651 379.231 115.309 379.231 101.272C379.231 87.2355 384.314 74.893 394.236 64.9705C404.401 55.048 416.501 49.9658 430.538 49.9658C444.574 49.9658 456.675 54.8061 466.598 64.7285C470.47 68.3587 470.47 74.167 466.84 78.0391C462.967 81.9113 457.401 81.9113 453.529 78.2811C446.995 71.9888 439.734 68.8427 430.538 68.8427C421.583 68.8427 414.081 71.9888 407.547 78.2811C401.012 84.8154 397.866 92.3178 397.866 101.272C397.866 110.227 401.012 117.729 407.305 124.263C413.839 130.556 421.341 133.702 430.296 133.702C439.25 133.702 446.753 130.798 453.045 124.505C455.465 122.085 458.127 121.601 459.579 121.601C462.241 121.601 464.419 122.569 466.355 124.505C468.534 126.441 469.502 128.862 469.502 131.282Z" fill="#373B56"/>
<path d="M520.083 55.7751V12.2131C520.083 5.67876 514.516 0.354492 507.498 0.354492C500.48 0.354492 494.914 5.67876 494.914 12.2131V69.3277C494.914 71.7478 495.156 74.1679 495.64 76.346C500.964 66.9076 509.676 59.6473 520.083 55.7751Z" fill="#373B56"/>
<path d="M580.343 69.0845V11.9699C580.343 5.43556 574.777 0.111328 567.758 0.111328C560.74 0.111328 555.174 5.43556 555.174 11.9699V69.0845C555.174 78.281 547.187 85.7833 537.507 85.7833C530.489 85.7833 524.922 91.1075 524.922 97.6418V107.806C528.795 109.016 533.151 109.5 537.507 109.5C560.982 109.5 580.343 91.3496 580.343 69.0845Z" fill="#373B56"/>
<path d="M537.508 80.9437C544.526 80.9437 550.092 75.6194 550.092 69.0851V58.9206C546.22 57.7106 541.864 57.2266 537.508 57.2266C514.032 57.2266 494.914 75.3774 494.914 97.6424V154.757C494.914 161.291 500.48 166.616 507.498 166.616C514.516 166.616 520.083 161.291 520.083 154.757V97.6424C520.083 88.446 527.827 80.9437 537.508 80.9437Z" fill="#97ADD9"/>
<path d="M642.298 46.5771V144.35C642.298 146.044 642.298 147.738 642.056 149.432C639.394 171.213 621.001 188.154 598.494 188.154C581.069 188.154 565.822 177.989 558.804 162.984C557.352 160.08 556.384 156.692 555.658 153.546C555.416 152.336 555.174 150.884 555.174 149.432V111.194C565.58 107.322 574.293 99.8195 579.617 90.6231C580.101 93.0432 580.343 95.2213 580.343 97.6414V146.286C580.343 156.45 588.087 165.163 598.252 165.405H598.494C610.11 165.405 619.791 155.966 619.791 144.108V46.5771C620.275 41.0108 625.115 36.4126 630.923 36.4126C631.165 36.4126 631.649 36.4126 631.891 36.4126C631.891 36.4126 631.891 36.4126 632.133 36.4126C637.216 36.6546 641.33 40.2848 642.298 44.883C642.298 45.125 642.54 45.125 642.54 45.367C642.056 45.609 642.298 46.093 642.298 46.5771Z" fill="#97ADD9"/>
<path d="M642.298 144.108V149.19H642.056C642.056 147.496 642.298 145.802 642.298 144.108Z" fill="#97ADD9"/>
<path d="M643.992 13.1803C643.992 16.8104 642.782 19.9566 640.12 22.6187C637.458 25.0388 634.312 26.4909 630.924 26.4909C627.293 26.4909 624.147 25.0388 621.485 22.3767C619.065 19.9566 617.855 16.8104 617.855 13.1803C617.855 9.79212 619.065 6.64598 621.485 4.22587C626.325 -0.85637 635.038 -1.0984 640.12 3.98384C642.54 6.64596 643.992 9.79212 643.992 13.1803Z" fill="#97ADD9"/>
<path d="M766.933 94.98V146.528C766.933 151.853 763.061 155.967 757.737 155.967C752.412 155.967 748.54 152.095 748.54 146.528V94.98C748.54 83.1214 744.91 73.199 737.166 64.9706C729.663 56.7422 720.951 52.87 710.545 52.87C700.138 52.87 691.184 56.7422 683.681 64.9706C676.179 73.441 672.307 83.1214 672.307 95.222V146.77C672.307 152.095 668.435 156.209 663.11 156.209C657.786 156.209 653.672 152.337 653.672 146.77V43.4316C653.672 38.1073 657.544 33.9932 663.11 33.9932C668.435 33.9932 672.307 37.8653 672.307 43.4316V49.9659C674.485 47.7878 676.905 45.8517 679.567 43.9156C689.006 37.3813 699.412 33.9932 710.545 33.9932C726.275 33.9932 739.828 40.0434 750.718 52.144C761.609 64.0026 766.933 78.5232 766.933 94.98Z" fill="#97ADD9"/>
</svg>
