<svg width="30" height="33" viewBox="0 0 30 33" fill="none" xmlns="http://www.w3.org/2000/svg">
<path d="M29.9998 3.7V24.5C29.9998 26.3 28.7998 27.7 27.0998 28.1C27.1998 27.8 27.1998 27.5 27.1998 27.2V6.39999C27.1998 4.39999 25.4998 2.7 23.4998 2.7H4.59979C4.29979 2.7 3.9998 2.7 3.7998 2.8C4.1998 1.2 5.69981 0 7.39981 0H26.2998C28.2998 0 29.9998 1.7 29.9998 3.7Z" fill="#373B56"/>
<path d="M5.29999 32.2H21C23.9 32.2 26.3 29.8 26.3 26.9V9.3C26.3 6.4 23.9 4 21 4H5.29999C2.39999 4 0 6.4 0 9.3V26.9C0 29.8 2.39999 32.2 5.29999 32.2Z" fill="#373B56"/>
<path d="M4.59979 6.2998L6.49982 9.1998V6.2998C6.49982 6.0998 6.49979 5.9998 6.59979 5.8998C6.69979 5.7998 6.79981 5.7998 6.89981 5.7998C6.99981 5.7998 7.1998 5.7998 7.1998 5.8998C7.2998 5.9998 7.2998 6.0998 7.2998 6.2998V10.1998C7.2998 10.5998 7.0998 10.7998 6.7998 10.7998C6.6998 10.7998 6.59979 10.7998 6.59979 10.7998C6.49979 10.7998 6.49981 10.6998 6.39981 10.6998C6.29981 10.5998 6.2998 10.5998 6.1998 10.4998C6.0998 10.3998 6.09982 10.2998 5.99982 10.2998L4.09979 7.3998V10.2998C4.09979 10.4998 4.09982 10.5998 3.99982 10.6998C3.89982 10.7998 3.7998 10.7998 3.6998 10.7998C3.5998 10.7998 3.39981 10.7998 3.39981 10.6998C3.29981 10.5998 3.2998 10.4998 3.2998 10.2998V6.4998C3.2998 6.2998 3.29981 6.19981 3.39981 6.09981C3.39981 5.99981 3.49979 5.8998 3.59979 5.8998C3.69979 5.7998 3.79981 5.7998 3.89981 5.7998C3.99981 5.7998 4.09979 5.7998 4.09979 5.7998C4.19979 5.7998 4.1998 5.8998 4.2998 5.8998C4.2998 5.8998 4.39981 5.99981 4.39981 6.09981C4.49981 6.09981 4.49979 6.1998 4.59979 6.2998Z" fill="#E3E2DC"/>
<path d="M11.7 6.4998H9.5V7.6998H11.6C11.8 7.6998 11.9 7.6998 11.9 7.7998C12 7.8998 12 7.99981 12 8.09981C12 8.19981 12 8.2998 11.9 8.3998C11.8 8.4998 11.7 8.4998 11.6 8.4998H9.5V9.8998H11.8C12 9.8998 12.1 9.8998 12.2 9.9998C12.3 10.0998 12.3 10.1998 12.3 10.2998C12.3 10.3998 12.3 10.4998 12.2 10.5998C12.1 10.6998 12 10.6998 11.8 10.6998H9.09998C8.89998 10.6998 8.69998 10.6998 8.59998 10.5998C8.49998 10.4998 8.5 10.2998 8.5 10.0998V6.3998C8.5 6.2998 8.49998 6.09981 8.59998 6.09981C8.59998 5.99981 8.69999 5.8998 8.79999 5.8998C8.89999 5.8998 8.99998 5.7998 9.09998 5.7998H11.7C11.9 5.7998 12 5.7998 12.1 5.8998C12.2 5.9998 12.2 6.0998 12.2 6.1998C12.2 6.2998 12.2 6.3998 12.1 6.4998C12 6.4998 11.9 6.4998 11.7 6.4998Z" fill="#E3E2DC"/>
<path d="M16.6002 9.8998L15.8002 6.9998L15.0002 9.8998C14.9002 10.0998 14.9002 10.2998 14.9002 10.3998C14.9002 10.4998 14.8002 10.5998 14.7002 10.6998C14.6002 10.7998 14.5002 10.7998 14.3002 10.7998C14.2002 10.7998 14.1002 10.7998 14.0002 10.6998C13.9002 10.6998 13.9002 10.5998 13.8002 10.4998C13.8002 10.3998 13.7002 10.2998 13.7002 10.1998C13.7002 10.0998 13.6002 9.9998 13.6002 9.8998L12.8002 6.59981C12.8002 6.39981 12.7002 6.2998 12.7002 6.1998C12.7002 6.0998 12.7002 5.9998 12.8002 5.8998C12.9002 5.7998 13.0002 5.7998 13.1002 5.7998C13.3002 5.7998 13.4002 5.8998 13.5002 5.9998C13.6002 6.0998 13.6002 6.2998 13.7002 6.4998L14.3002 9.3998L15.0002 6.6998C15.1002 6.4998 15.1002 6.2998 15.1002 6.1998C15.1002 6.0998 15.2002 5.9998 15.3002 5.8998C15.4002 5.7998 15.5002 5.7998 15.7002 5.7998C15.9002 5.7998 16.0002 5.7998 16.1002 5.8998C16.2002 5.9998 16.3002 6.0998 16.3002 6.1998C16.3002 6.2998 16.4002 6.4998 16.4002 6.6998L17.1002 9.3998L17.7002 6.4998C17.7002 6.3998 17.8002 6.19981 17.8002 6.09981C17.8002 5.99981 17.9002 5.8998 17.9002 5.8998C18.0002 5.7998 18.1002 5.7998 18.2002 5.7998C18.3002 5.7998 18.4002 5.7998 18.5002 5.8998C18.6002 5.9998 18.6002 6.0998 18.6002 6.1998C18.6002 6.2998 18.6002 6.39981 18.5002 6.59981L17.7002 9.8998C17.6002 10.0998 17.6002 10.2998 17.6002 10.3998C17.6002 10.4998 17.5002 10.5998 17.4002 10.6998C17.3002 10.7998 17.2002 10.7998 17.0002 10.7998C16.8002 10.7998 16.7002 10.7998 16.6002 10.6998C16.5002 10.5998 16.4002 10.4998 16.4002 10.3998C16.7002 10.2998 16.6002 10.0998 16.6002 9.8998Z" fill="#E3E2DC"/>
<path d="M23.1994 9.1998C23.1994 9.4998 23.0994 9.7998 22.9994 9.9998C22.7994 10.1998 22.5994 10.3998 22.2994 10.5998C21.9994 10.7998 21.6994 10.7998 21.2994 10.7998C20.7994 10.7998 20.3994 10.6998 20.0994 10.4998C19.8994 10.3998 19.6994 10.1998 19.5994 9.9998C19.4994 9.7998 19.3994 9.5998 19.3994 9.3998C19.3994 9.2998 19.3994 9.19981 19.4994 9.09981C19.5994 8.99981 19.6994 8.9998 19.7994 8.9998C19.8994 8.9998 19.9994 8.99981 20.0994 9.09981C20.1994 9.19981 20.1994 9.2998 20.2994 9.3998C20.3994 9.5998 20.3994 9.6998 20.4994 9.7998C20.5994 9.8998 20.6994 9.99981 20.7994 10.0998C20.8994 10.1998 21.0994 10.1998 21.2994 10.1998C21.5994 10.1998 21.7994 10.0998 21.9994 9.9998C22.1994 9.8998 22.2994 9.6998 22.2994 9.4998C22.2994 9.2998 22.2994 9.19981 22.1994 9.09981C22.0994 8.99981 21.9994 8.8998 21.7994 8.8998C21.5994 8.7998 21.3994 8.7998 21.1994 8.6998C20.7994 8.5998 20.5994 8.4998 20.2994 8.3998C20.0994 8.2998 19.8994 8.0998 19.6994 7.8998C19.5994 7.6998 19.4994 7.4998 19.4994 7.1998C19.4994 6.8998 19.5994 6.6998 19.6994 6.4998C19.7994 6.2998 20.0994 6.0998 20.2994 5.9998C20.5994 5.8998 20.8994 5.7998 21.2994 5.7998C21.5994 5.7998 21.8994 5.7998 22.0994 5.8998C22.2994 5.9998 22.4994 6.0998 22.5994 6.1998C22.6994 6.2998 22.8994 6.49981 22.8994 6.59981C22.9994 6.69981 22.9994 6.8998 22.9994 6.9998C22.9994 7.0998 22.9994 7.1998 22.8994 7.2998C22.7994 7.3998 22.6994 7.3998 22.5994 7.3998C22.4994 7.3998 22.3994 7.3998 22.2994 7.2998C22.1994 7.1998 22.1994 7.0998 22.0994 6.9998C21.9994 6.7998 21.8994 6.69981 21.7994 6.59981C21.6994 6.49981 21.4994 6.3998 21.1994 6.3998C20.8994 6.3998 20.6994 6.49981 20.5994 6.59981C20.3994 6.69981 20.3994 6.7998 20.3994 6.9998C20.3994 7.0998 20.3994 7.1998 20.4994 7.2998C20.5994 7.3998 20.5994 7.3998 20.6994 7.4998C20.7994 7.5998 20.8994 7.59981 20.9994 7.59981C21.0994 7.59981 21.2994 7.6998 21.4994 7.6998C21.7994 7.7998 21.9994 7.7998 22.2994 7.8998C22.4994 7.9998 22.6994 8.0998 22.8994 8.1998C23.0994 8.2998 23.1994 8.49981 23.2994 8.59981C23.1994 8.79981 23.1994 8.9998 23.1994 9.1998Z" fill="#E3E2DC"/>
<path d="M22.5004 16.7002H3.90039C3.10039 16.7002 2.40039 16.0002 2.40039 15.2002C2.40039 14.4002 3.10039 13.7002 3.90039 13.7002H22.5004C23.3004 13.7002 24.0004 14.4002 24.0004 15.2002C24.0004 16.0002 23.3004 16.7002 22.5004 16.7002Z" fill="#E3E2DC"/>
<path d="M22.5004 21.0996H3.90039C3.10039 21.0996 2.40039 20.3996 2.40039 19.5996C2.40039 18.7996 3.10039 18.0996 3.90039 18.0996H22.5004C23.3004 18.0996 24.0004 18.7996 24.0004 19.5996C24.0004 20.3996 23.3004 21.0996 22.5004 21.0996Z" fill="#E3E2DC"/>
<path d="M22.5004 25.4004H3.90039C3.10039 25.4004 2.40039 24.7004 2.40039 23.9004C2.40039 23.1004 3.10039 22.4004 3.90039 22.4004H22.5004C23.3004 22.4004 24.0004 23.1004 24.0004 23.9004C24.0004 24.8004 23.3004 25.4004 22.5004 25.4004Z" fill="#E3E2DC"/>
<path d="M22.5004 29.7998H3.90039C3.10039 29.7998 2.40039 29.0998 2.40039 28.2998C2.40039 27.4998 3.10039 26.7998 3.90039 26.7998H22.5004C23.3004 26.7998 24.0004 27.4998 24.0004 28.2998C24.0004 29.1998 23.3004 29.7998 22.5004 29.7998Z" fill="#E3E2DC"/>
</svg>
