<svg width="1440" height="2269" viewBox="0 0 1440 2269" fill="none" xmlns="http://www.w3.org/2000/svg">
<path d="M1446 0H-6V2047H1446V0Z" fill="#E2E1DB"/>
<path d="M1443.21 1343.93C1441.64 1360.83 1440.86 1377.73 1440.46 1394.63V2697.63H-6V1204.39H-0.104089C7.75713 1141.89 25.8379 1082.93 55.7105 1031.05C213.721 756.694 653.556 753.943 715.66 753.943C783.266 753.549 1201.09 761.804 1373.25 1025.15C1438.5 1124.6 1453.04 1237.01 1443.21 1343.93Z" fill="#97AEDA"/>
<path d="M855.589 1083.72C934.824 1083.72 999.056 1019.49 999.056 940.253C999.056 861.019 934.824 796.786 855.589 796.786C776.354 796.786 712.122 861.019 712.122 940.253C712.122 1019.49 776.354 1083.72 855.589 1083.72Z" fill="white"/>
<path d="M577.302 1083.72C656.537 1083.72 720.769 1019.49 720.769 940.253C720.769 861.019 656.537 796.786 577.302 796.786C498.067 796.786 433.835 861.019 433.835 940.253C433.835 1019.49 498.067 1083.72 577.302 1083.72Z" fill="white"/>
<path d="M835.15 965.016C881.606 965.016 919.265 927.357 919.265 880.901C919.265 834.446 881.606 796.786 835.15 796.786C788.695 796.786 751.035 834.446 751.035 880.901C751.035 927.357 788.695 965.016 835.15 965.016Z" fill="#343240"/>
<path d="M565.119 965.016C611.574 965.016 649.234 927.357 649.234 880.901C649.234 834.446 611.574 796.786 565.119 796.786C518.663 796.786 481.004 834.446 481.004 880.901C481.004 927.357 518.663 965.016 565.119 965.016Z" fill="#343240"/>
<path d="M384.865 161.935C372.515 148.183 357.079 141.166 339.397 141.166C321.715 141.166 306.559 148.183 293.929 161.935C281.86 175.407 275.686 191.967 275.686 210.771V295.252C275.686 301.707 280.176 306.198 286.632 306.198C292.806 306.198 297.578 301.707 297.578 295.252V243.048H381.497V295.252C381.497 301.707 385.987 306.198 392.443 306.198C398.898 306.198 403.389 301.707 403.389 295.252V210.771C403.389 201.229 401.985 192.528 398.898 184.389C395.53 175.969 391.039 168.671 384.865 161.935ZM381.497 220.875H297.578V210.771C297.578 197.299 301.788 186.353 310.208 176.811C318.347 167.549 328.17 163.058 339.397 163.058C350.623 163.058 360.447 167.549 368.586 176.811C377.006 186.353 381.216 197.299 381.216 210.771V220.875H381.497Z" fill="#373B56"/>
<path d="M496.288 294.971C496.288 301.426 491.517 305.917 485.342 305.917C468.783 305.917 454.749 300.023 443.242 288.515C431.735 277.008 425.841 262.694 425.841 246.415V152.392C425.841 145.937 430.331 141.446 436.787 141.446C442.961 141.446 447.733 146.218 447.733 152.392V186.914H485.342C491.797 186.914 496.288 191.405 496.288 197.86C496.288 204.316 491.517 208.806 485.342 208.806H447.452V246.415C447.452 256.8 451.101 265.501 458.679 273.079C465.976 280.657 474.677 284.025 485.342 284.025C491.797 284.025 496.288 288.796 496.288 294.971Z" fill="#373B56"/>
<path d="M686.582 204.036C675.074 192.528 660.76 186.634 644.482 186.634C628.203 186.634 613.889 192.528 602.382 204.036C590.874 215.543 584.98 229.857 584.98 246.136C584.98 262.414 590.874 276.728 602.382 288.235C613.889 299.743 628.203 305.637 644.482 305.637C658.796 305.637 671.426 301.146 682.091 292.165V294.691C682.091 301.146 686.582 305.637 693.037 305.637C699.492 305.637 703.983 301.146 703.983 294.691V245.855C704.264 229.857 698.089 215.824 686.582 204.036ZM682.091 270.554C680.688 269.992 679.565 269.992 678.442 269.992C675.636 269.992 672.829 271.115 670.864 273.36C663.286 280.657 654.866 284.025 644.201 284.025C633.816 284.025 625.116 280.377 617.538 273.079C609.96 265.782 606.311 256.801 606.311 246.416C606.311 236.032 609.96 227.331 617.538 219.753C624.835 212.456 633.816 208.807 644.201 208.807C654.586 208.807 663.286 212.456 670.864 219.753C678.442 227.05 681.81 236.032 681.81 246.416V270.554H682.091Z" fill="#373B56"/>
<path d="M529.129 208.526V246.416C529.129 256.801 532.778 265.501 540.356 273.079C547.653 280.657 556.634 284.306 567.019 284.306C573.474 284.306 577.965 288.797 577.965 295.252C577.965 301.707 573.474 306.198 567.019 306.198C550.74 306.198 536.426 300.304 524.919 288.797C513.412 277.289 507.518 262.975 507.518 246.697V152.393C507.518 145.937 512.008 141.447 518.464 141.447C524.919 141.447 529.41 145.937 529.41 152.393V186.915H567.3C573.755 186.915 578.246 191.405 578.246 197.861C578.246 204.316 573.755 208.807 567.3 208.807H529.129V208.526Z" fill="#373B56"/>
<path d="M820.177 281.217C820.177 283.182 819.616 285.988 816.809 288.795C805.302 300.302 790.988 305.916 774.99 305.916C758.711 305.916 744.397 300.022 732.89 288.514C721.382 277.007 715.488 262.693 715.488 246.414C715.488 230.136 721.382 215.822 732.89 204.314C744.678 192.807 758.711 186.913 774.99 186.913C791.268 186.913 805.302 192.526 816.809 204.034C821.3 208.244 821.299 214.98 817.09 219.47C812.599 223.961 806.144 223.961 801.653 219.751C794.075 212.454 785.655 208.805 774.99 208.805C764.605 208.805 755.904 212.454 748.326 219.751C740.748 227.329 737.1 236.03 737.1 246.414C737.1 256.799 740.748 265.5 748.046 273.078C755.624 280.375 764.324 284.024 774.709 284.024C785.094 284.024 793.794 280.656 801.092 273.358C803.898 270.552 806.986 269.99 808.67 269.99C811.757 269.99 814.283 271.113 816.528 273.358C819.054 275.604 820.177 278.41 820.177 281.217Z" fill="#373B56"/>
<path d="M878.837 193.65V143.13C878.837 135.552 872.381 129.377 864.242 129.377C856.103 129.377 849.647 135.552 849.647 143.13V209.367C849.647 212.174 849.928 214.981 850.489 217.507C856.664 206.561 866.768 198.141 878.837 193.65Z" fill="#373B56"/>
<path d="M948.724 209.087V142.849C948.724 135.271 942.268 129.097 934.129 129.097C925.99 129.097 919.534 135.271 919.534 142.849V209.087C919.534 219.752 910.272 228.453 899.046 228.453C890.906 228.453 884.451 234.627 884.451 242.205V253.993C888.942 255.397 893.994 255.958 899.046 255.958C926.27 255.958 948.724 234.908 948.724 209.087Z" fill="#373B56"/>
<path d="M899.045 222.841C907.184 222.841 913.639 216.666 913.639 209.088V197.3C909.149 195.897 904.097 195.335 899.045 195.335C871.82 195.335 849.647 216.385 849.647 242.207V308.444C849.647 316.022 856.103 322.197 864.242 322.197C872.381 322.197 878.837 316.022 878.837 308.444V242.207C878.837 231.541 887.818 222.841 899.045 222.841Z" fill="#97ADD9"/>
<path d="M1020.57 182.986V296.375C1020.57 298.34 1020.57 300.304 1020.29 302.269C1017.2 327.529 995.874 347.176 969.772 347.176C949.564 347.176 931.882 335.388 923.742 317.986C922.058 314.618 920.936 310.689 920.094 307.04C919.813 305.637 919.532 303.953 919.532 302.269V257.924C931.601 253.433 941.705 244.732 947.88 234.067C948.441 236.874 948.722 239.4 948.722 242.206V298.62C948.722 310.408 957.703 320.512 969.491 320.793H969.772C983.244 320.793 994.47 309.847 994.47 296.094V182.986C995.031 176.53 1000.64 171.198 1007.38 171.198C1007.66 171.198 1008.22 171.198 1008.5 171.198C1008.5 171.198 1008.5 171.198 1008.78 171.198C1014.68 171.478 1019.45 175.688 1020.57 181.021C1020.57 181.302 1020.85 181.302 1020.85 181.582C1020.29 181.863 1020.57 182.424 1020.57 182.986Z" fill="#97ADD9"/>
<path d="M1020.57 296.095V301.989H1020.29C1020.29 300.024 1020.57 298.059 1020.57 296.095Z" fill="#97ADD9"/>
<path d="M1022.54 144.254C1022.54 148.464 1021.13 152.112 1018.05 155.2C1014.96 158.006 1011.31 159.69 1007.38 159.69C1003.17 159.69 999.523 158.006 996.436 154.919C993.629 152.112 992.226 148.464 992.226 144.254C992.226 140.324 993.629 136.676 996.436 133.869C1002.05 127.975 1012.15 127.694 1018.05 133.588C1020.85 136.676 1022.54 140.324 1022.54 144.254Z" fill="#97ADD9"/>
<path d="M1165.12 239.119V298.901C1165.12 305.076 1160.63 309.847 1154.45 309.847C1148.28 309.847 1143.79 305.356 1143.79 298.901V239.119C1143.79 225.366 1139.58 213.859 1130.6 204.316C1121.89 194.774 1111.79 190.283 1099.72 190.283C1087.65 190.283 1077.27 194.774 1068.57 204.316C1059.87 214.14 1055.38 225.366 1055.38 239.4V299.182C1055.38 305.356 1050.89 310.128 1044.71 310.128C1038.54 310.128 1033.77 305.637 1033.77 299.182V179.337C1033.77 173.162 1038.26 168.391 1044.71 168.391C1050.89 168.391 1055.38 172.882 1055.38 179.337V186.915C1057.9 184.389 1060.71 182.144 1063.8 179.898C1074.74 172.32 1086.81 168.391 1099.72 168.391C1117.97 168.391 1133.68 175.408 1146.31 189.441C1158.94 203.194 1165.12 220.034 1165.12 239.119Z" fill="#97ADD9"/>
</svg>
