<svg width="248" height="116" viewBox="0 0 248 116" fill="none" xmlns="http://www.w3.org/2000/svg">
<path d="M46.4521 115.89V114.817C46.4521 112.318 47.1274 110.162 48.478 108.351C49.8286 106.54 51.653 105.121 53.9511 104.094C57.1751 102.616 60.5515 101.525 64.0804 100.82C67.6093 100.116 71.2635 99.7643 75.043 99.7643C78.0817 99.7643 81.0334 99.9927 83.8979 100.45C86.7625 100.901 89.42 101.568 91.8707 102.449C90.4983 104.115 89.3928 105.959 88.5541 107.98C87.7155 110.001 87.2962 112.28 87.2962 114.817V115.89H46.4521ZM95.465 115.89V114.817C95.465 112.318 96.1402 110.162 97.4908 108.351C98.8414 106.54 100.666 105.121 102.964 104.094C106.188 102.616 109.564 101.525 113.093 100.82C116.622 100.116 120.276 99.7643 124.056 99.7643C127.835 99.7643 131.487 100.114 135.01 100.812C138.55 101.522 141.932 102.616 145.156 104.094C147.443 105.126 149.265 106.545 150.621 108.351C151.977 110.157 152.652 112.313 152.647 114.817V115.89H95.465ZM160.815 115.89V114.817C160.815 112.291 160.423 110.012 159.639 107.98C158.855 105.948 157.777 104.105 156.404 102.449C158.855 101.568 161.485 100.901 164.295 100.45C167.105 99.9927 170.03 99.7643 173.069 99.7643C176.837 99.7643 180.489 100.114 184.023 100.812C187.563 101.522 190.945 102.616 194.169 104.094C196.456 105.126 198.277 106.545 199.634 108.351C200.99 110.157 201.665 112.313 201.659 114.817V115.89H160.815ZM75.043 83.6388C71.5957 83.6388 68.6931 82.4724 66.335 80.1396C63.977 77.8068 62.7952 74.9418 62.7898 71.5448C62.7843 68.1477 63.9661 65.2827 66.335 62.9499C68.704 60.6171 71.6066 59.4507 75.043 59.4507C78.4793 59.4507 81.3819 60.6171 83.7509 62.9499C86.1199 65.2827 87.3016 68.1477 87.2962 71.5448C87.2907 74.9418 86.109 77.8068 83.7509 80.1396C81.3928 82.4724 78.4902 83.6388 75.043 83.6388ZM124.056 83.6388C120.609 83.6388 117.706 82.4724 115.348 80.1396C112.99 77.8068 111.808 74.9418 111.803 71.5448C111.797 68.1477 112.979 65.2827 115.348 62.9499C117.717 60.6171 120.619 59.4507 124.056 59.4507C127.492 59.4507 130.395 60.6171 132.764 62.9499C135.133 65.2827 136.314 68.1477 136.309 71.5448C136.304 74.9418 135.122 77.8068 132.764 80.1396C130.406 82.4724 127.503 83.6388 124.056 83.6388ZM173.069 83.6388C169.621 83.6388 166.719 82.4724 164.361 80.1396C162.003 77.8068 160.821 74.9418 160.815 71.5448C160.81 68.1477 161.992 65.2827 164.361 62.9499C166.73 60.6171 169.632 59.4507 173.069 59.4507C176.505 59.4507 179.408 60.6171 181.777 62.9499C184.145 65.2827 185.327 68.1477 185.322 71.5448C185.316 74.9418 184.135 77.8068 181.777 80.1396C179.418 82.4724 176.516 83.6388 173.069 83.6388Z" fill="#162A44"/>
<path d="M221.824 82.9669L224.428 71.6607L215.769 64.0594L227.176 63.0593L231.643 52.3958L236.111 63.0571L247.515 64.0573L238.858 71.6586L241.462 82.9648L231.643 76.9637L221.824 82.9669Z" fill="#F2959B"/>
<path d="M114.825 31.2313L117.429 19.9251L108.77 12.3238L120.177 11.3237L124.644 0.660156L129.112 11.3215L140.516 12.3217L131.859 19.923L134.463 31.2292L124.644 25.2281L114.825 31.2313Z" fill="#F2959B"/>
<path d="M6.64958 82.9669L9.25402 71.6607L0.594238 64.0594L12.0013 63.0593L16.4688 52.3958L20.9362 63.0571L32.3412 64.0573L23.6835 71.6586L26.2879 82.9648L16.4688 76.9637L6.64958 82.9669Z" fill="#F2959B"/>
</svg>
