<svg width="30" height="30" viewBox="0 0 30 30" fill="none" xmlns="http://www.w3.org/2000/svg">
<path d="M14.9 29.8C23.129 29.8 29.8 23.129 29.8 14.9C29.8 6.67096 23.129 0 14.9 0C6.67096 0 0 6.67096 0 14.9C0 23.129 6.67096 29.8 14.9 29.8Z" fill="#E3E2DC"/>
<path d="M20.1668 15.6626C20.0282 15.5933 19.8896 15.4547 19.751 15.3854C19.1965 15.1082 18.7114 14.831 18.157 14.6231C20.8598 12.9598 21.3449 10.257 20.6519 8.24724C19.9589 6.09887 17.9491 4.64352 15.7314 4.57422C13.3751 4.57422 11.3654 5.96027 10.603 8.10864C9.91003 10.0491 10.3258 12.8905 13.1672 14.5538C11.9891 14.9696 11.0189 15.524 10.1872 16.2863C8.59328 17.811 7.69235 19.6821 7.62305 21.9691C7.62305 22.4542 7.76165 22.7314 8.10816 22.6621C8.45467 22.6621 8.59328 22.3849 8.59328 21.9691C8.59328 21.6919 8.66258 21.484 8.66258 21.2068C9.217 16.7021 13.9989 13.93 18.157 15.6626C18.6421 15.8705 19.0579 16.1477 19.543 16.3556C19.8203 16.4942 20.0282 16.4942 20.2361 16.217C20.444 16.0784 20.3747 15.8705 20.1668 15.6626ZM11.3654 9.8412C11.3654 7.48492 13.3058 5.61375 15.6621 5.61375C18.0184 5.61375 19.8896 7.55422 19.8896 9.9105C19.8896 12.1975 17.9491 14.1379 15.6621 14.1379C13.3058 14.1379 11.3654 12.1975 11.3654 9.8412Z" fill="#363B56"/>
<path d="M24 20C24 21.6667 22.6667 23 21 23C19.4 23 18 21.7333 18 20C18 18.3333 19.3333 17 21 17C22.6667 17.0667 23.9333 18.4 24 20Z" fill="#F76161"/>
</svg>
