<svg width="64" height="64" viewBox="0 0 64 64" fill="none" xmlns="http://www.w3.org/2000/svg">
<path d="M32.114 63.9956C49.5771 63.9956 63.7339 49.8389 63.7339 32.3757C63.7339 14.9126 49.5771 0.755859 32.114 0.755859C14.6508 0.755859 0.494141 14.9126 0.494141 32.3757C0.494141 49.8389 14.6508 63.9956 32.114 63.9956Z" fill="#E3E2DC"/>
<path d="M32.2376 49.8599C28.8422 49.6476 25.2346 49.8599 22.0514 48.3744C19.9293 47.3133 19.0804 44.9789 20.5659 43.069C21.4147 42.008 22.688 40.9469 23.9613 40.098C25.0224 39.4614 26.0835 39.037 27.3567 38.4003C29.0544 37.5515 29.4789 35.6415 28.4178 33.9438C26.2957 30.9728 25.0224 27.7896 25.8712 24.182C26.5079 21.211 29.0544 19.0889 32.2376 19.0889C35.2086 19.0889 37.9674 20.9988 38.8163 23.9698C39.8773 27.7896 38.604 30.9728 36.4819 33.9438C35.633 35.0049 35.2086 35.8538 35.8453 37.127C36.0575 37.5515 36.4819 37.9759 37.1186 38.4003C39.0285 39.6736 41.1506 40.5225 43.0605 41.7958C43.9094 42.2202 44.3339 43.2812 44.7583 44.1301C45.3949 46.2522 44.5461 47.5255 42.4239 48.3744C39.6651 49.4354 36.9064 49.6477 33.9354 49.6477C33.2987 49.8599 32.6621 49.8599 32.2376 49.8599Z" stroke="#363B56" stroke-width="0.7585" stroke-miterlimit="10"/>
<path d="M23.7489 36.2779C22.0512 37.339 20.1413 38.1878 18.6558 39.2489C17.5947 40.0978 16.7459 41.371 15.6848 42.4321C15.4726 42.6443 15.2604 42.8566 15.0482 42.8566C12.926 42.4321 10.8038 42.2199 8.89392 41.5833C6.77178 40.7344 6.13514 38.1879 7.83285 36.4901C9.10613 34.7924 11.0161 33.9436 12.7138 33.0947C13.1382 32.8825 13.7748 32.6703 14.1993 32.4581C15.4725 32.0336 15.897 30.7603 15.0482 29.6993C13.3505 27.5771 12.5016 25.2428 12.2894 22.6963C12.2894 19.7253 13.3504 16.9665 16.3214 16.1176C19.0802 15.2688 22.0512 16.1176 23.5367 18.452C23.9611 19.0886 23.9611 19.513 23.3245 20.1497C20.1413 23.5451 19.9291 27.5771 21.4146 31.8214C22.0512 33.3069 23.1122 34.7924 23.7489 36.2779Z" stroke="#363B56" stroke-width="0.75" stroke-miterlimit="10"/>
<path d="M40.5117 36.0656C42.2094 33.7313 43.4827 31.3969 43.9071 28.4259C44.3315 25.0305 43.6949 22.0595 41.1483 19.7252C40.7239 19.3007 40.7239 18.8763 40.9361 18.4519C41.9972 16.542 44.5438 15.2687 46.8781 15.6931C49.4247 16.1175 51.3346 17.603 51.759 20.1496C52.6079 23.545 51.759 26.7282 49.6369 29.487C49.4247 29.9114 49.2125 30.5481 49.0003 30.9725C48.7881 31.8213 49.2125 32.0336 50.0613 32.458C51.9713 33.5191 54.0934 34.3679 56.0033 35.6412C57.0644 36.2778 57.701 37.3389 57.701 38.8244C57.701 40.0977 57.0644 40.9465 56.0033 41.371C53.8812 42.432 51.5468 42.6443 49.4247 42.8565C49.2124 42.8565 49.0003 42.6443 49.0003 42.6443C47.3026 39.461 44.3315 37.9755 41.1483 36.7023C40.9361 36.7023 40.9361 36.4901 40.7239 36.4901C40.5117 36.2779 40.5117 36.2778 40.5117 36.0656Z" stroke="#363B56" stroke-width="0.75" stroke-miterlimit="10"/>
</svg>
