<svg width="47" height="45" viewBox="0 0 47 45" fill="none" xmlns="http://www.w3.org/2000/svg">
<path d="M24.2605 44.2702H22.1605C10.1005 44.2702 0.230469 34.4002 0.230469 22.3401C0.230469 10.2801 10.1005 0.410156 22.1605 0.410156H24.2605C36.3205 0.410156 46.1905 10.2801 46.1905 22.3401C46.1905 34.4002 36.3205 44.2702 24.2605 44.2702Z" fill="#F6F6F6"/>
<path d="M23.2219 32.14C20.9419 32.07 18.6419 32.11 16.5019 31.16C15.1019 30.54 14.6219 28.95 15.6019 27.78C16.2219 27.04 17.0619 26.45 17.8819 25.91C18.5519 25.47 19.3319 25.21 20.0719 24.88C21.2319 24.37 21.5219 23.1 20.7319 22.09C19.2819 20.24 18.4619 18.2 19.0219 15.8C19.4719 13.84 21.0819 12.58 23.1819 12.52C25.1819 12.47 26.9719 13.7 27.4619 15.58C28.0919 17.98 27.3319 20.08 25.8819 21.98C25.3919 22.62 25.1019 23.26 25.5319 24C25.7119 24.31 26.0119 24.61 26.3219 24.79C27.6119 25.54 28.9619 26.18 30.2019 27C30.6919 27.32 31.0919 27.97 31.2519 28.55C31.6219 29.87 31.0819 30.76 29.7819 31.27C28.0119 31.96 26.1419 32.04 24.2819 32.13C23.9219 32.16 23.5719 32.14 23.2219 32.14Z" fill="#878787"/>
<circle cx="39" cy="38" r="5" fill="#73FD99"/>
</svg>
