<svg width="47" height="44" viewBox="0 0 47 44" fill="none" xmlns="http://www.w3.org/2000/svg">
<path d="M24.2605 43.86H22.1605C10.1005 43.86 0.230469 33.99 0.230469 21.93C0.230469 9.86999 10.1005 0 22.1605 0H24.2605C36.3205 0 46.1905 9.86999 46.1905 21.93C46.1905 34 36.3205 43.86 24.2605 43.86Z" fill="#F6F6F6"/>
<path d="M23.2219 31.7401C20.9419 31.6701 18.6419 31.7101 16.5019 30.7601C15.1019 30.1401 14.6219 28.5501 15.6019 27.3801C16.2219 26.6401 17.0619 26.0501 17.8819 25.5101C18.5519 25.0701 19.3319 24.8101 20.0719 24.4801C21.2319 23.9701 21.5219 22.7001 20.7319 21.6901C19.2819 19.8401 18.4619 17.8001 19.0219 15.4001C19.4719 13.4401 21.0819 12.1801 23.1819 12.1201C25.1819 12.0701 26.9719 13.3001 27.4619 15.1801C28.0919 17.5801 27.3319 19.6801 25.8819 21.5801C25.3919 22.2201 25.1019 22.8601 25.5319 23.6001C25.7119 23.9101 26.0119 24.2101 26.3219 24.3901C27.6119 25.1401 28.9619 25.7801 30.2019 26.6001C30.6919 26.9201 31.0919 27.5701 31.2519 28.1501C31.6219 29.4701 31.0819 30.3601 29.7819 30.8701C28.0119 31.5601 26.1419 31.6401 24.2819 31.7301C23.9219 31.7501 23.5719 31.7401 23.2219 31.7401Z" fill="#878787"/>
</svg>
