<svg width="23" height="24" viewBox="0 0 23 24" fill="none" xmlns="http://www.w3.org/2000/svg">
<path d="M22.9 5.79961V13.7996C22.9 16.9996 20.6 19.4996 17.7 19.4996H5.2L0 23.2996V5.79961C0 2.59961 2.3 0.0996094 5.2 0.0996094H17.8C20.6 0.0996094 22.9 2.69961 22.9 5.79961Z" fill="#E3E2DC"/>
<path d="M10.1998 10.8994L9.89981 6.39941C9.79981 5.49941 9.7998 4.89941 9.7998 4.49941C9.7998 3.99941 9.89981 3.59941 10.1998 3.29941C10.4998 2.99941 10.7998 2.89941 11.2998 2.89941C11.7998 2.89941 12.1998 3.09941 12.3998 3.49941C12.5998 3.89941 12.6998 4.39941 12.6998 5.09941C12.6998 5.49941 12.6998 5.89941 12.5998 6.39941L12.1998 10.9994C12.1998 11.5994 12.0998 11.9994 11.8998 12.2994C11.6998 12.5994 11.4998 12.6994 11.1998 12.6994C10.8998 12.6994 10.5998 12.5994 10.4998 12.2994C10.2998 11.9994 10.1998 11.4994 10.1998 10.8994ZM11.1998 17.1994C10.7998 17.1994 10.4998 17.0994 10.1998 16.7994C9.89981 16.5994 9.7998 16.1994 9.7998 15.7994C9.7998 15.3994 9.89981 15.0994 10.1998 14.7994C10.4998 14.4994 10.7998 14.3994 11.1998 14.3994C11.5998 14.3994 11.8998 14.4994 12.1998 14.7994C12.4998 15.0994 12.5998 15.3994 12.5998 15.7994C12.5998 16.1994 12.4998 16.5994 12.1998 16.7994C11.8998 17.0994 11.5998 17.1994 11.1998 17.1994Z" fill="#363B56"/>
</svg>
