<svg width="30" height="31" viewBox="0 0 30 31" fill="none" xmlns="http://www.w3.org/2000/svg">
<path opacity="0.99" d="M24.7 2.5H3.79999C1.69999 2.5 0 4.2 0 6.3V25.6C0 27.7 1.69999 29.4 3.79999 29.4H24.7C26.8 29.4 28.5 27.7 28.5 25.6V6.3C28.5 4.2 26.8 2.5 24.7 2.5ZM26.8 24.9C26.8 26.4 25.6 27.7 24 27.7H4.19998C2.69998 27.7 1.39999 26.4 1.39999 24.9V7C1.39999 5.5 2.69998 4.2 4.19998 4.2H24C25.5 4.2 26.8 5.5 26.8 7V24.9Z" fill="#373B56"/>
<path d="M6.60001 5.9998C6.60001 5.8998 6.60001 5.8998 6.60001 5.7998V1.6998C6.60001 1.1998 6.19998 0.799805 5.69998 0.799805C5.19998 0.799805 4.79999 1.1998 4.79999 1.6998V5.7998C4.79999 5.8998 4.79999 5.9998 4.79999 5.9998C3.79999 6.3998 3 7.2998 3 8.4998C3 9.8998 4.20001 11.0998 5.60001 11.0998C7.00001 11.0998 8.19998 9.8998 8.19998 8.4998C8.29998 7.2998 7.60001 6.2998 6.60001 5.9998ZM5.69998 9.1998C5.19998 9.1998 4.89999 8.7998 4.89999 8.3998C4.89999 7.8998 5.29998 7.59981 5.69998 7.59981C6.19998 7.59981 6.5 7.9998 6.5 8.3998C6.6 8.7998 6.19998 9.1998 5.69998 9.1998Z" fill="#373B56"/>
<path d="M15.1 5.9998C15.1 5.8998 15.1 5.8998 15.1 5.7998V1.6998C15.1 1.1998 14.7 0.799805 14.2 0.799805C13.7 0.799805 13.3 1.1998 13.3 1.6998V5.7998C13.3 5.8998 13.3 5.9998 13.3 5.9998C12.3 6.3998 11.5 7.2998 11.5 8.4998C11.5 9.8998 12.7 11.0998 14.1 11.0998C15.5 11.0998 16.7 9.8998 16.7 8.4998C16.8 7.2998 16.1 6.2998 15.1 5.9998ZM14.2 9.1998C13.7 9.1998 13.4 8.7998 13.4 8.3998C13.4 7.8998 13.8 7.59981 14.2 7.59981C14.7 7.59981 15 7.9998 15 8.3998C15.1 8.7998 14.7 9.1998 14.2 9.1998Z" fill="#373B56"/>
<path d="M23.3998 5.9998C23.3998 5.8998 23.3998 5.8998 23.3998 5.7998V1.6998C23.3998 1.1998 22.9998 0.799805 22.4998 0.799805C21.9998 0.799805 21.5998 1.1998 21.5998 1.6998V5.7998C21.5998 5.8998 21.5998 5.9998 21.5998 5.9998C20.5998 6.3998 19.7998 7.2998 19.7998 8.4998C19.7998 9.8998 20.9998 11.0998 22.3998 11.0998C23.7998 11.0998 24.9998 9.8998 24.9998 8.4998C25.1998 7.2998 24.3998 6.2998 23.3998 5.9998ZM22.5998 9.1998C22.0998 9.1998 21.7998 8.7998 21.7998 8.3998C21.7998 7.8998 22.1998 7.59981 22.5998 7.59981C23.0998 7.59981 23.3998 7.9998 23.3998 8.3998C23.3998 8.7998 22.9998 9.1998 22.5998 9.1998Z" fill="#373B56"/>
<path d="M20.7996 30.9996C25.8806 30.9996 29.9996 26.8806 29.9996 21.7996C29.9996 16.7186 25.8806 12.5996 20.7996 12.5996C15.7186 12.5996 11.5996 16.7186 11.5996 21.7996C11.5996 26.8806 15.7186 30.9996 20.7996 30.9996Z" fill="#373B56"/>
<path d="M20.8002 29.4002C24.9976 29.4002 28.4002 25.9976 28.4002 21.8002C28.4002 17.6028 24.9976 14.2002 20.8002 14.2002C16.6028 14.2002 13.2002 17.6028 13.2002 21.8002C13.2002 25.9976 16.6028 29.4002 20.8002 29.4002Z" fill="#E3E2DC"/>
<path d="M20.7998 16.8994V21.7994L23.8998 24.7994" stroke="#373B56" stroke-width="2" stroke-miterlimit="10" stroke-linecap="round" stroke-linejoin="round"/>
</svg>
