<svg width="25" height="25" viewBox="0 0 25 25" fill="none" xmlns="http://www.w3.org/2000/svg">
<path d="M24.5139 8.88442C19.4444 1.48262 10.5556 1.63367 5.625 5.9388C5.90278 6.31644 6.11111 6.61856 6.45833 7.07173C4.30555 7.5249 2.22222 7.97808 0 8.43125C0.763889 6.16539 1.45833 4.20165 2.22222 2.01132C2.63889 2.54002 2.98611 2.91766 3.26389 3.37083C12.0833 -3.72885 21.7361 1.48262 24.5139 8.88442Z" fill="#363B56"/>
<path d="M0.555664 16.2109C5.34733 23.1596 14.1668 23.5372 19.3751 19.0055C19.1668 18.6278 18.889 18.3257 18.6112 17.8726C20.764 17.4194 22.8473 16.9662 25.0001 16.513C24.2362 18.7034 23.5418 20.7426 22.7779 22.933C22.3612 22.4798 22.014 22.1022 21.5973 21.649C17.5696 24.8967 13.1251 25.9541 8.264 24.0659C4.58344 22.5553 2.22233 19.6853 0.555664 16.2109Z" fill="#363B56"/>
</svg>
