<svg width="26" height="27" viewBox="0 0 26 27" fill="none" xmlns="http://www.w3.org/2000/svg">
<path d="M16.4559 6.02697L16.9721 6.54314L20.5201 10.0911L17.7297 12.8815L10.3054 20.3058L10.3053 20.3056L10.3004 20.3111C9.71495 20.9697 8.98355 21.3362 8.17449 21.4833L8.17447 21.4831L8.16874 21.4845C7.18309 21.7119 6.27332 21.9394 5.36478 22.1665C5.36473 22.1665 5.36468 22.1665 5.36463 22.1665L5.3635 22.1668L4.39203 22.391C4.33036 22.3955 4.27571 22.4231 4.24568 22.4383C4.24346 22.4394 4.24138 22.4405 4.23943 22.4414C4.21931 22.4515 4.20633 22.4578 4.19463 22.4622C4.18563 22.4656 4.18174 22.4661 4.18137 22.4661H4.07943V22.3005C4.15352 21.9317 4.22744 21.6391 4.37352 21.2739L4.37617 21.2673L4.37805 21.2604C4.60569 20.4257 4.83324 19.5155 5.06039 18.6069L5.06054 18.6063L5.06056 18.6063L5.06108 18.6041C5.28298 17.6425 5.72568 16.8302 6.46644 16.0892C8.24043 14.3659 10.0151 12.5741 11.7661 10.8062C12.6328 9.93114 13.4937 9.06194 14.3458 8.2098L14.3473 8.20829L16.4559 6.02697ZM16.5428 4.6997L16.4544 4.61131L16.366 4.6997L16.3621 4.70366C16.2902 4.77547 16.1364 4.9292 16.0493 5.09217L5.68422 15.4573C4.83807 16.3034 4.21726 17.3088 3.98379 18.4736C3.833 19.1142 3.6633 19.7365 3.49305 20.3513C3.47231 20.4262 3.45155 20.501 3.43082 20.5758C3.28142 21.1142 3.1333 21.6481 2.99983 22.182L2.99609 22.1969V22.2123V22.2145V22.2168V22.219V22.2212V22.2234V22.2257V22.2279V22.2301V22.2324V22.2346V22.2368V22.2391V22.2413V22.2436V22.2458V22.2481V22.2503V22.2526V22.2548V22.2571V22.2593V22.2616V22.2638V22.2661V22.2683V22.2706V22.2729V22.2751V22.2774V22.2797V22.2819V22.2842V22.2865V22.2887V22.291V22.2933V22.2956V22.2979V22.3001V22.3024V22.3047V22.307V22.3093V22.3116V22.3139V22.3161V22.3184V22.3207V22.323V22.3253V22.3276V22.3299V22.3322V22.3345V22.3368V22.3391V22.3414V22.3438V22.3461V22.3484V22.3507V22.353V22.3553V22.3576V22.3599V22.3623V22.3646V22.3669V22.3692V22.3715V22.3739V22.3762V22.3785V22.3809V22.3832V22.3855V22.3878V22.3902V22.3925V22.3949V22.3972V22.3995V22.4019V22.4042V22.4066V22.4089V22.4112V22.4136V22.4159V22.4183V22.4206V22.423V22.4253V22.4277V22.43V22.4324V22.4347V22.4371V22.4395V22.4418V22.4442V22.4465V22.4489V22.4513V22.4536V22.456V22.4584V22.4607V22.4631V22.4655V22.4678V22.4702V22.4726V22.4749V22.4773V22.4797V22.4821V22.4844V22.4868V22.4892V22.4916V22.494V22.4963V22.4987V22.5011V22.5035V22.5059V22.5083V22.5106V22.513V22.5154V22.5178V22.5202V22.5226V22.525V22.5274V22.5298V22.5322V22.5345V22.5369V22.5393V22.5417V22.5441V22.5465V22.5489V22.5513V22.5537V22.5561V22.5585V22.5609V22.5633V22.5658V22.5682V22.5706V22.573V22.5754V22.5778V22.5802V22.5826V22.585V22.5874V22.5898V22.5922V22.5947V22.5971V22.5995V22.6019V22.6043V22.6067V22.6091V22.6116V22.614V22.6164V22.6188V22.6212V22.6237V22.6261V22.6285V22.6309V22.6333V22.6358V22.6382V22.6406V22.643V22.6455V22.6479V22.6503V22.6527V22.6552V22.6576V22.66V22.6624V22.6649V22.6673V22.6697V22.6721V22.6746V22.677V22.6794V22.6819V22.6843V22.6867V22.6892V22.6916V22.694V22.6965V22.6989V22.7013V22.7038V22.7062V22.7086V22.7111V22.7135V22.7159V22.7184V22.7208V22.7232V22.7257V22.7281V22.7305V22.733V22.7354V22.7379V22.7403V22.7427V22.7452V22.7476V22.7501V22.7525V22.7549V22.7574V22.7598V22.7622V22.7647V22.7671V22.7696V22.772V22.7744V22.7769V22.7793V22.7818V22.7842V22.7866V22.7891V22.7915V22.794V22.7964V22.7989V22.8013V22.8037V22.8062V22.8086V22.8111V22.8135V22.8159V22.8184V22.8208V22.8233V22.8257V22.8282V22.8306V22.833V22.8355V22.8379V22.8404V22.8428V22.8452V22.8477V22.8501V22.8526V22.855V22.8574V22.8599V22.8623V22.8648V22.8672V22.8696V22.8721V22.8745V22.877V22.8794V22.8818V22.8843V22.8867V22.8892V22.8916V22.894V22.8965V22.8989V22.9014V22.9038V22.9062V22.9087V22.9111V22.9135V22.916V22.9184V22.9208V22.9233V22.9257V22.9281V22.9306V22.933V22.9354V22.9379V22.9403V22.9427V22.9452V22.9476V22.95V22.9525V22.9549V22.9573V22.9598V22.9622V22.9646V22.9671V22.9695V22.9719V22.9743V22.9768V22.9792V22.9816V22.984V22.9865V22.9889V22.9913V22.9937V22.9962V22.9986V23.001V23.0034V23.0059V23.0083V23.0107V23.0131V23.0155V23.018V23.0204V23.0228V23.0252V23.0276V23.03V23.0325V23.0349V23.0373V23.0397V23.0421V23.0445V23.0469V23.0494V23.0518V23.0542V23.0566V23.059V23.0614V23.0638V23.0662V23.0686V23.071V23.0734V23.0758V23.0782V23.0806V23.083V23.0854V23.0878V23.0902V23.0926V23.095V23.0974V23.0998V23.1022V23.1046V23.107V23.1094V23.1118V23.1142V23.1166V23.119V23.1214V23.1237V23.1261V23.1285V23.1309V23.1333V23.1357V23.1381V23.1404V23.1428V23.1452V23.1476V23.15V23.1523V23.1547V23.1571V23.1595V23.1618V23.1642V23.1666V23.1689V23.1713V23.1737V23.1761V23.1784V23.1808V23.1832V23.1855V23.1879V23.1902V23.1926V23.195V23.1973V23.1997V23.202V23.2044V23.2067V23.2091V23.2114V23.2138V23.2161V23.2185V23.2208V23.2232V23.2255V23.2279V23.2302V23.2326V23.2349V23.2372V23.2396V23.2419V23.2443V23.2466V23.2489V23.2513V23.2536V23.2559V23.2582V23.2606V23.2629V23.2652V23.2675V23.2699V23.2722V23.2745V23.2768V23.2791V23.2815V23.2838V23.2861V23.2884V23.2907V23.293V23.2953V23.2976V23.2999V23.3022V23.3045V23.3068V23.3091V23.3114V23.3137V23.316V23.3183V23.3206V23.3229V23.3252V23.3275V23.3298V23.3321V23.3344V23.3366V23.3389V23.3412V23.3435V23.3458V23.348V23.3503V23.3526V23.3548V23.3571V23.3594V23.3616V23.3639V23.3662V23.3684V23.3707V23.373V23.3752V23.3775V23.3797V23.382V23.3842V23.3865V23.3887V23.391V23.3932V23.3954V23.3977V23.3999V23.4022V23.4044V23.4066V23.4089V23.4111V23.4133V23.4156V23.4178V23.42V23.4222V23.4244V23.5494H3.12109H3.12331H3.12554H3.12776H3.12999H3.13221H3.13444H3.13667H3.1389H3.14114H3.14337H3.14561H3.14785H3.15009H3.15233H3.15458H3.15682H3.15907H3.16132H3.16357H3.16582H3.16807H3.17033H3.17259H3.17484H3.1771H3.17937H3.18163H3.18389H3.18616H3.18843H3.1907H3.19297H3.19524H3.19751H3.19979H3.20207H3.20434H3.20662H3.2089H3.21119H3.21347H3.21576H3.21804H3.22033H3.22262H3.22491H3.22721H3.2295H3.2318H3.23409H3.23639H3.23869H3.24099H3.24329H3.2456H3.2479H3.25021H3.25252H3.25483H3.25714H3.25945H3.26176H3.26408H3.26639H3.26871H3.27103H3.27335H3.27567H3.27799H3.28032H3.28264H3.28497H3.2873H3.28962H3.29195H3.29428H3.29662H3.29895H3.30129H3.30362H3.30596H3.3083H3.31064H3.31298H3.31532H3.31766H3.32001H3.32235H3.3247H3.32704H3.32939H3.33174H3.33409H3.33645H3.3388H3.34115H3.34351H3.34586H3.34822H3.35058H3.35294H3.3553H3.35766H3.36003H3.36239H3.36475H3.36712H3.36949H3.37185H3.37422H3.37659H3.37896H3.38133H3.38371H3.38608H3.38846H3.39083H3.39321H3.39558H3.39796H3.40034H3.40272H3.4051H3.40749H3.40987H3.41225H3.41464H3.41702H3.41941H3.4218H3.42418H3.42657H3.42896H3.43135H3.43374H3.43614H3.43853H3.44092H3.44332H3.44571H3.44811H3.45051H3.4529H3.4553H3.4577H3.4601H3.4625H3.4649H3.46731H3.46971H3.47211H3.47452H3.47692H3.47933H3.48174H3.48414H3.48655H3.48896H3.49137H3.49378H3.49619H3.4986H3.50101H3.50342H3.50584H3.50825H3.51067H3.51308H3.5155H3.51791H3.52033H3.52275H3.52516H3.52758H3.53H3.53242H3.53484H3.53726H3.53968H3.5421H3.54453H3.54695H3.54937H3.55179H3.55422H3.55664H3.55907H3.56149H3.56392H3.56635H3.56877H3.5712H3.57363H3.57606H3.57849H3.58091H3.58334H3.58577H3.5882H3.59063H3.59307H3.5955H3.59793H3.60036H3.60279H3.60523H3.60766H3.61009H3.61253H3.61496H3.61739H3.61983H3.62226H3.6247H3.62714H3.62957H3.63201H3.63444H3.63688H3.63932H3.64175H3.64419H3.64663H3.64907H3.65151H3.65394H3.65638H3.65882H3.66126H3.6637H3.66614H3.66858H3.67102H3.67346H3.6759H3.67834H3.68078H3.68322H3.68566H3.6881H3.69054H3.69298H3.69542H3.69786H3.7003H3.70274H3.70518H3.70762H3.71007H3.71251H3.71495H3.71739H3.71983H3.72227H3.72471H3.72716H3.7296H3.73204H3.73448H3.73692H3.73936H3.7418H3.74424H3.74669H3.74913H3.75157H3.75401H3.75645H3.75889H3.76133H3.76377H3.76621H3.76865H3.77109H3.77353H3.77597H3.77841H3.78085H3.78329H3.78573H3.78817H3.79061H3.79305H3.79549H3.79793H3.80037H3.80281H3.80524H3.80768H3.81012H3.81256H3.81499H3.81743H3.81987H3.8223H3.82474H3.82718H3.82961H3.83205H3.83448H3.83692H3.83935H3.84178H3.84422H3.84665H3.84908H3.85152H3.85395H3.85638H3.85881H3.86124H3.86368H3.86611H3.86854H3.87097H3.8734H3.87582H3.87825H3.88068H3.88311H3.88554H3.88796H3.89039H3.89282H3.89524H3.89767H3.90009H3.90252H3.90494H3.90736H3.90978H3.91221H3.91463H3.91705H3.91947H3.92189H3.92431H3.92673H3.92915H3.93156H3.93398H3.9364H3.93881H3.94123H3.94364H3.94606H3.94847H3.95089H3.9533H3.95571H3.95812H3.96053H3.96294H3.96535H3.96776H3.97017H3.97257H3.97498H3.97739H3.97979H3.9822H3.9846H3.987H3.98941H3.99181H3.99421H3.99661H3.99901H4.00141H4.0038H4.0062H4.0086H4.01099H4.01339H4.01578H4.01817H4.02057H4.02296H4.02535H4.02774H4.03013H4.03251H4.0349H4.03729H4.03967H4.04206H4.04444H4.04682H4.04921H4.05159H4.05397H4.05635H4.05873H4.0611H4.06348H4.06585H4.06823H4.0706H4.07298H4.07535H4.07772H4.08009H4.08246H4.08482H4.08719H4.08956H4.09192H4.09429H4.09665H4.09901H4.10137H4.10373H4.10609H4.10845H4.1108H4.11316H4.11551H4.11786H4.12022H4.12257H4.12492H4.12727H4.12961H4.13196H4.1343H4.13665H4.13899H4.14133H4.14367H4.14601H4.14835H4.15069H4.15302H4.15536H4.15769H4.16003H4.16236H4.16469H4.16701H4.16934H4.17167H4.17399H4.17632H4.17864H4.18096H4.18328H4.1856H4.18792H4.19023H4.19255H4.19486H4.19717H4.19948H4.20179H4.2041H4.20641H4.20871H4.21102H4.21332H4.21562H4.21792H4.22022H4.22251H4.22481H4.2271H4.2294H4.23169H4.23398H4.23627H4.23855H4.24084H4.24312H4.24541H4.24769H4.24997H4.25225H4.25452H4.2568H4.25907H4.26134H4.26361H4.26588H4.26815H4.27042H4.27268H4.27494H4.27721H4.27947H4.28172H4.28398H4.28624H4.28849H4.29074H4.29299H4.29524H4.29749H4.29973H4.30198H4.30422H4.30646H4.3087H4.31094H4.31317H4.31541H4.31764H4.31987H4.3221H4.32432H4.32655H4.32877H4.331H4.33322C4.40171 23.5494 4.46376 23.5181 4.49651 23.5015C4.49873 23.5004 4.50081 23.4993 4.50275 23.4984C4.52288 23.4883 4.53586 23.482 4.54756 23.4776C4.5565 23.4742 4.56039 23.4737 4.56081 23.4737H4.575L4.58912 23.4704C5.23521 23.3183 5.86199 23.1474 6.48635 22.9771L6.48732 22.9769C7.11253 22.8063 7.73533 22.6365 8.37667 22.4856C9.38886 22.252 10.2406 21.7078 11.0077 21.0174L11.0079 21.0175L11.0135 21.0119C13.3389 18.6359 15.6975 16.2942 18.0456 13.963C19.2157 12.8012 20.3833 11.642 21.5428 10.4825L21.5441 10.4813C21.5815 10.4439 21.6415 10.3838 21.6925 10.3227C21.7182 10.2918 21.7442 10.2576 21.7645 10.2234C21.7821 10.1935 21.8067 10.1453 21.8067 10.0911V10.0409L21.7719 10.0046C20.0286 8.18548 18.2854 6.44227 16.5433 4.70013L16.5428 4.6997Z" fill="#363B56" stroke="#363B56" stroke-width="0.25"/>
<path d="M24.1479 3.18192L24.1476 3.18212L24.1532 3.19055C24.2206 3.29173 24.2734 3.41316 24.3295 3.56283C24.3487 3.61394 24.3686 3.66928 24.3896 3.72784C24.4282 3.83535 24.4707 3.95372 24.5199 4.07673L24.5195 4.07689L24.5242 4.0862C24.5578 4.15354 24.5745 4.20325 24.5932 4.25922L24.5935 4.26019C24.6105 4.31123 24.6291 4.36723 24.6625 4.43785V5.08123C24.5211 5.97743 23.919 6.61428 23.1965 7.33834L19.2025 3.34431C19.8488 2.63852 20.4934 2.09485 21.4675 1.88258H22.1227C23.1523 2.10569 23.7933 2.54352 24.1479 3.18192ZM22.2363 0.877427L22.2241 0.875H22.2117H22.21H22.2082H22.2064H22.2046H22.2029H22.2011H22.1993H22.1975H22.1958H22.194H22.1922H22.1904H22.1887H22.1869H22.1851H22.1833H22.1816H22.1798H22.178H22.1762H22.1745H22.1727H22.1709H22.1691H22.1674H22.1656H22.1638H22.162H22.1602H22.1585H22.1567H22.1549H22.1531H22.1514H22.1496H22.1478H22.146H22.1443H22.1425H22.1407H22.1389H22.1372H22.1354H22.1336H22.1318H22.1301H22.1283H22.1265H22.1247H22.123H22.1212H22.1194H22.1176H22.1159H22.1141H22.1123H22.1105H22.1088H22.107H22.1052H22.1034H22.1017H22.0999H22.0981H22.0963H22.0946H22.0928H22.091H22.0892H22.0874H22.0857H22.0839H22.0821H22.0803H22.0786H22.0768H22.075H22.0732H22.0715H22.0697H22.0679H22.0661H22.0644H22.0626H22.0608H22.059H22.0573H22.0555H22.0537H22.0519H22.0502H22.0484H22.0466H22.0448H22.0431H22.0413H22.0395H22.0377H22.036H22.0342H22.0324H22.0306H22.0289H22.0271H22.0253H22.0235H22.0218H22.02H22.0182H22.0164H22.0147H22.0129H22.0111H22.0093H22.0075H22.0058H22.004H22.0022H22.0004H21.9987H21.9969H21.9951H21.9933H21.9916H21.9898H21.988H21.9862H21.9845H21.9827H21.9809H21.9791H21.9774H21.9756H21.9738H21.972H21.9703H21.9685H21.9667H21.9649H21.9632H21.9614H21.9596H21.9578H21.9561H21.9543H21.9525H21.9507H21.949H21.9472H21.9454H21.9436H21.9419H21.9401H21.9383H21.9365H21.9348H21.933H21.9312H21.9294H21.9276H21.9259H21.9241H21.9223H21.9205H21.9188H21.917H21.9152H21.9134H21.9117H21.9099H21.9081H21.9063H21.9046H21.9028H21.901H21.8992H21.8975H21.8957H21.8939H21.8921H21.8904H21.8886H21.8868H21.885H21.8833H21.8815H21.8797H21.8779H21.8762H21.8744H21.8726H21.8708H21.8691H21.8673H21.8655H21.8637H21.862H21.8602H21.8584H21.8566H21.8548H21.8531H21.8513H21.8495H21.8477H21.846H21.8442H21.8424H21.8406H21.8389H21.8371H21.8353H21.8335H21.8318H21.83H21.8282H21.8264H21.8247H21.8229H21.8211H21.8193H21.8176H21.8158H21.814H21.8122H21.8105H21.8087H21.8069H21.8051H21.8034H21.8016H21.7998H21.798H21.7963H21.7945H21.7927H21.7909H21.7892H21.7874H21.7856H21.7838H21.7821H21.7803H21.7785H21.7767H21.7749H21.7732H21.7714H21.7696H21.7678H21.7661H21.7643H21.7625H21.7607H21.759H21.7572H21.7554H21.7536H21.7519H21.7501H21.7483H21.7465H21.7448H21.743H21.7412H21.7394H21.7377H21.7359H21.7341H21.7323H21.7306H21.7288H21.727H21.7252H21.7235H21.7217H21.7199H21.7181H21.7164H21.7146H21.7128H21.711H21.7093H21.7075H21.7057H21.7039H21.7021H21.7004H21.6986H21.6968H21.695H21.6933H21.6915H21.6897H21.6879H21.6862H21.6844H21.6826H21.6808H21.6791H21.6773H21.6755H21.6737H21.672H21.6702H21.6684H21.6666H21.6649H21.6631H21.6613H21.6595H21.6578H21.656H21.6542H21.6524H21.6507H21.6489H21.6471H21.6453H21.6436H21.6418H21.64H21.6382H21.6365H21.6347H21.6329H21.6311H21.6294H21.6276H21.6258H21.624H21.6222H21.6205H21.6187H21.6169H21.6151H21.6134H21.6116H21.6098H21.608H21.6063H21.6045H21.6027H21.6009H21.5992H21.5974H21.5956H21.5938H21.5921H21.5903H21.5885H21.5867H21.585H21.5832H21.5814H21.5796H21.5779H21.5761H21.5743H21.5725H21.5708H21.569H21.5672H21.5654H21.5637H21.5619H21.5601H21.5583H21.5566H21.5548H21.553H21.5512H21.5494H21.5477H21.5459H21.5441H21.5423H21.5406H21.5388H21.537H21.5352H21.5335H21.5317H21.5299H21.5281H21.5264H21.5246H21.5228H21.521H21.5193H21.5175H21.5157H21.5139H21.5122H21.5104H21.5086H21.5068H21.5051H21.5033H21.5015H21.4997H21.498H21.4962H21.4944H21.4926H21.4909H21.4891H21.4873H21.4855H21.4838H21.482H21.4802H21.4784H21.4767H21.4749H21.4731H21.4713H21.4695H21.4678H21.466H21.4642H21.4624H21.4607H21.4589H21.4571H21.4553H21.4536H21.4518H21.45H21.4482H21.4465H21.4447H21.4429H21.4411H21.4394H21.4376H21.4358H21.434H21.4323H21.4305H21.4287H21.4269H21.4252H21.4234H21.4216H21.4198H21.4181H21.4163H21.4145H21.4127H21.411H21.4092H21.4074H21.4056H21.4039H21.4021H21.4003H21.3985H21.3968H21.395H21.3932H21.3914H21.3896H21.3879H21.3861H21.3843H21.3825H21.3808H21.379H21.3772H21.3754H21.3737H21.3719H21.3701H21.3683H21.3666H21.3648H21.363H21.3612H21.3595H21.3577H21.3559H21.3541H21.3524H21.3506H21.3488H21.347H21.3453H21.3435H21.3417H21.3399H21.3382H21.3364H21.3346H21.3328H21.3311H21.3293H21.3275H21.3257H21.324H21.3222H21.3204H21.3186H21.3168H21.3151H21.3133H21.3115H21.3097H21.308H21.3062H21.3044H21.3026H21.2933L21.2841 0.876383C19.7915 1.10028 18.7999 2.1785 17.9305 3.12383C17.8873 3.17083 17.8444 3.21749 17.8017 3.2637L17.7202 3.35195L17.8052 3.43687L23.0324 8.66415L23.1174 8.74907L23.2056 8.66761C23.2518 8.62495 23.2985 8.58204 23.3455 8.53883C24.2908 7.66944 25.369 6.67785 25.5929 5.18521L25.5943 5.17599V5.16667V5.16489V5.16312V5.16134V5.15957V5.15779V5.15602V5.15424V5.15246V5.15069V5.14891V5.14714V5.14536V5.14359V5.14181V5.14004V5.13826V5.13648V5.13471V5.13293V5.13116V5.12938V5.12761V5.12583V5.12406V5.12228V5.1205V5.11873V5.11695V5.11518V5.1134V5.11163V5.10985V5.10808V5.1063V5.10452V5.10275V5.10097V5.0992V5.09742V5.09565V5.09387V5.09209V5.09032V5.08854V5.08677V5.08499V5.08322V5.08144V5.07967V5.07789V5.07611V5.07434V5.07256V5.07079V5.06901V5.06724V5.06546V5.06369V5.06191V5.06013V5.05836V5.05658V5.05481V5.05303V5.05126V5.04948V5.04771V5.04593V5.04415V5.04238V5.0406V5.03883V5.03705V5.03528V5.0335V5.03173V5.02995V5.02817V5.0264V5.02462V5.02285V5.02107V5.0193V5.01752V5.01575V5.01397V5.01219V5.01042V5.00864V5.00687V5.00509V5.00332V5.00154V4.99977V4.99799V4.99621V4.99444V4.99266V4.99089V4.98911V4.98734V4.98556V4.98378V4.98201V4.98023V4.97846V4.97668V4.97491V4.97313V4.97136V4.96958V4.9678V4.96603V4.96425V4.96248V4.9607V4.95893V4.95715V4.95538V4.9536V4.95182V4.95005V4.94827V4.9465V4.94472V4.94295V4.94117V4.9394V4.93762V4.93584V4.93407V4.93229V4.93052V4.92874V4.92697V4.92519V4.92342V4.92164V4.91986V4.91809V4.91631V4.91454V4.91276V4.91099V4.90921V4.90744V4.90566V4.90388V4.90211V4.90033V4.89856V4.89678V4.89501V4.89323V4.89146V4.88968V4.8879V4.88613V4.88435V4.88258V4.8808V4.87903V4.87725V4.87547V4.8737V4.87192V4.87015V4.86837V4.8666V4.86482V4.86305V4.86127V4.85949V4.85772V4.85594V4.85417V4.85239V4.85062V4.84884V4.84707V4.84529V4.84351V4.84174V4.83996V4.83819V4.83641V4.83464V4.83286V4.83109V4.82931V4.82753V4.82576V4.82398V4.82221V4.82043V4.81866V4.81688V4.81511V4.81333V4.81155V4.80978V4.808V4.80623V4.80445V4.80268V4.8009V4.79912V4.79735V4.79557V4.7938V4.79202V4.79025V4.78847V4.7867V4.78492V4.78314V4.78137V4.77959V4.77782V4.77604V4.77427V4.77249V4.77072V4.76894V4.76716V4.76539V4.76361V4.76184V4.76006V4.75829V4.75651V4.75474V4.75296V4.75118V4.74941V4.74763V4.74586V4.74408V4.74231V4.74053V4.73876V4.73698V4.7352V4.73343V4.73165V4.72988V4.7281V4.72633V4.72455V4.72278V4.721V4.71922V4.71745V4.71567V4.7139V4.71212V4.71035V4.70857V4.70679V4.70502V4.70324V4.70147V4.69969V4.69792V4.69614V4.69437V4.69259V4.69081V4.68904V4.68726V4.68549V4.68371V4.68194V4.68016V4.67839V4.67661V4.67483V4.67306V4.67128V4.66951V4.66773V4.66596V4.66418V4.66241V4.66063V4.65885V4.65708V4.6553V4.65353V4.65175V4.64998V4.6482V4.64643V4.64465V4.64287V4.6411V4.63932V4.63755V4.63577V4.634V4.63222V4.63045V4.62867V4.62689V4.62512V4.62334V4.62157V4.61979V4.61802V4.61624V4.61446V4.61269V4.61091V4.60914V4.60736V4.60559V4.60381V4.60204V4.60026V4.59848V4.59671V4.59493V4.59316V4.59138V4.58961V4.58783V4.58606V4.58428V4.5825V4.58073V4.57895V4.57718V4.5754V4.57363V4.57185V4.57008V4.5683V4.56652V4.56475V4.56297V4.5612V4.55942V4.55765V4.55587V4.5541V4.55232V4.55054V4.54877V4.54699V4.54522V4.54344V4.54167V4.53989V4.53812V4.53634V4.53456V4.53279V4.53101V4.52924V4.52746V4.52569V4.52391V4.52214V4.52036V4.51858V4.51681V4.51503V4.51326V4.51148V4.50971V4.50793V4.50615V4.50438V4.5026V4.50083V4.49905V4.49728V4.4955V4.49373V4.49195V4.49017V4.4884V4.48662V4.48485V4.48307V4.4813V4.47952V4.47775V4.47597V4.47419V4.47242V4.47064V4.46887V4.46709V4.46532V4.46354V4.46177V4.45999V4.45821V4.45644V4.45466V4.45289V4.45111V4.44934V4.44756V4.44579V4.44401V4.44223V4.44046V4.43868V4.43691V4.43513V4.43336V4.43158V4.42981V4.42803V4.42625V4.42448V4.4227V4.42093V4.41915V4.41738V4.4156V4.41382V4.41205V4.41027V4.4085V4.40672V4.40495V4.40317V4.4014V4.39962V4.39784V4.39607V4.39429V4.39252V4.39074V4.38897V4.38719V4.38542V4.38364V4.38186V4.38009V4.37831V4.37654V4.37476V4.37299V4.37121V4.36944V4.36766V4.36588V4.36411V4.36233V4.36056V4.35878V4.35701V4.35523V4.35346V4.35168V4.3499V4.34813V4.34635V4.34458V4.3428V4.34103V4.33925V4.33748V4.3357V4.33392V4.33215V4.33037V4.3286V4.32682V4.32505V4.32327V4.3215V4.31972V4.31794V4.31617V4.31439V4.31262V4.31084V4.30907V4.30729V4.30551V4.30374V4.30196V4.30019V4.29841V4.29664V4.29486V4.29309V4.29131V4.28953V4.28776V4.28598V4.28421V4.28243V4.28066V4.27888V4.27711V4.27533V4.27355V4.27178V4.27V4.26823V4.26645V4.26468V4.2629V4.26113V4.25935V4.25757V4.24007L25.5895 4.22323L25.5869 4.2141C25.4377 3.69187 25.2822 3.14768 24.9705 2.67799C24.4156 1.65203 23.3918 1.10855 22.2363 0.877427Z" fill="#363B56" stroke="#363B56" stroke-width="0.25"/>
<path d="M14.3333 2.28809H1V26.0002H21.6818V12.7426" stroke="#363B56" stroke-width="2" stroke-miterlimit="10" stroke-linecap="round" stroke-linejoin="round"/>
</svg>
