<svg width="372" height="211" viewBox="0 0 372 211" fill="none" xmlns="http://www.w3.org/2000/svg">
<path d="M1.52444 173.673V211H370.591L370.591 172.425C374.471 141.24 370.559 111.43 356.554 87.3624C315.988 17.6893 203.186 17.0962 187.351 17.0025C170.002 16.9089 62.8778 19.0315 18.6529 85.864C0.515045 113.302 -2.38702 144.58 1.52444 173.673Z" fill="#F2959B"/>
<path d="M223.226 28.9998C243.539 28.9998 260.006 45.2954 260.006 65.3971C260.006 85.4988 243.539 101.794 223.226 101.794C202.912 101.794 186.445 85.4988 186.445 65.3971C186.445 45.2954 202.912 28.9998 223.226 28.9998Z" fill="white"/>
<path d="M217.927 30.0608C229.843 30.0608 239.503 39.6202 239.503 51.4122C239.503 63.2043 229.843 72.7637 217.927 72.7637C206.01 72.7637 196.35 63.2043 196.35 51.4122C196.35 39.6202 206.01 30.0608 217.927 30.0608Z" fill="#162A43"/>
<path d="M132.226 28.9998C152.539 28.9998 169.006 45.2954 169.006 65.3971C169.006 85.4988 152.539 101.794 132.226 101.794C111.912 101.794 95.4451 85.4988 95.4451 65.3971C95.4451 45.2954 111.912 28.9998 132.226 28.9998Z" fill="white"/>
<path d="M129.071 30.0608C140.987 30.0608 150.647 39.6202 150.647 51.4122C150.647 63.2043 140.987 72.7637 129.071 72.7637C117.155 72.7637 107.495 63.2043 107.495 51.4122C107.495 39.6202 117.155 30.0608 129.071 30.0608Z" fill="#162A43"/>
<path d="M188.356 5.99256L191.696 15.0826C201.406 10.9426 209.916 9.72256 217.246 10.2526C239.736 11.8926 252.426 29.0226 253.046 30.0226L263.006 23.9026C262.866 23.6726 256.856 14.6126 241.916 6.64256C229.196 -0.167436 211.256 -3.77744 188.356 5.99256Z" fill="#1A1D36"/>
<path d="M151.916 7.91229L148.776 17.0723C138.986 13.1523 130.446 12.1123 123.126 12.8023C100.676 14.9323 88.3663 32.3323 87.7563 33.3523L77.6663 27.4523C77.7963 27.2223 83.6163 18.0323 98.3763 9.74229C110.946 2.65229 128.806 -1.34771 151.916 7.91229Z" fill="#1A1D36"/>
</svg>
