<svg width="43" height="44" viewBox="0 0 43 44" fill="none" xmlns="http://www.w3.org/2000/svg">
<path d="M21.5907 43.5388C33.351 43.5388 42.8845 34.0052 42.8845 22.245C42.8845 10.4847 33.351 0.951172 21.5907 0.951172C9.83047 0.951172 0.296875 10.4847 0.296875 22.245C0.296875 34.0052 9.83047 43.5388 21.5907 43.5388Z" fill="#E3E2DC"/>
<path fill-rule="evenodd" clip-rule="evenodd" d="M26.6206 8.04944L29.0726 12.1792C29.0726 12.1792 29.0726 12.1792 29.0726 12.3082H26.1044L25.0719 10.5015V12.3082H18.2321V10.7596L17.3287 12.3082H14.3605L16.9416 8.04944C17.0706 7.92039 17.1997 7.79134 17.4578 7.66228C17.5868 7.53323 17.7159 7.53323 17.845 7.53323H25.7172C26.1044 7.53323 26.4915 7.79134 26.6206 8.04944ZM30.2341 15.6636V35.925H31.6537V37.8608H11.6504V35.925H13.07V15.6636H30.2341ZM27.1368 19.4061V32.9568H16.1673V19.4061H27.1368ZM11.6504 15.1474H31.6537V12.5663H11.6504V15.1474ZM26.1044 20.3095V31.9243H17.0706V20.3095H26.1044ZM21.7166 7.14607C23.0071 7.14607 24.1686 6.11364 24.1686 4.82311C24.1686 3.53257 23.1361 2.37109 21.7166 2.37109C20.426 2.37109 19.3936 3.40352 19.3936 4.82311C19.2645 6.11364 20.426 7.14607 21.7166 7.14607Z" fill="#373B56"/>
</svg>
