<svg width="64" height="64" viewBox="0 0 64 64" fill="none" xmlns="http://www.w3.org/2000/svg">
<path d="M63.3373 32.3757C63.3373 49.8769 49.2187 63.9956 31.7175 63.9956C20.099 63.9956 9.95128 57.6716 4.36266 48.2592C1.71542 43.7 0.0976562 38.2585 0.0976562 32.3757C0.0976562 15.0216 14.2163 0.755859 31.7175 0.755859C37.1591 0.755859 42.3065 2.07948 46.8656 4.57965C56.7192 10.0212 63.3373 20.4631 63.3373 32.3757Z" fill="#E3E2DC"/>
<path d="M44.955 36.789C47.3918 36.789 49.3671 34.8136 49.3671 32.3769C49.3671 29.9402 47.3918 27.9648 44.955 27.9648C42.5183 27.9648 40.543 29.9402 40.543 32.3769C40.543 34.8136 42.5183 36.789 44.955 36.789Z" fill="#162A44"/>
<path d="M31.7187 36.789C34.1554 36.789 36.1308 34.8136 36.1308 32.3769C36.1308 29.9402 34.1554 27.9648 31.7187 27.9648C29.282 27.9648 27.3066 29.9402 27.3066 32.3769C27.3066 34.8136 29.282 36.789 31.7187 36.789Z" fill="#162A44"/>
<path d="M18.4824 36.789C20.9191 36.789 22.8945 34.8136 22.8945 32.3769C22.8945 29.9402 20.9191 27.9648 18.4824 27.9648C16.0457 27.9648 14.0703 29.9402 14.0703 32.3769C14.0703 34.8136 16.0457 36.789 18.4824 36.789Z" fill="#162A44"/>
</svg>
