<svg width="138" height="137" viewBox="0 0 138 137" fill="none" xmlns="http://www.w3.org/2000/svg">
<path d="M69.3843 137C107.216 137 137.884 106.332 137.884 68.5C137.884 30.6685 107.216 0 69.3843 0C31.5528 0 0.884277 30.6685 0.884277 68.5C0.884277 106.332 31.5528 137 69.3843 137Z" fill="#373B56"/>
<path d="M66.8299 46.8308H64.4569V54.6311C64.4569 55.0803 64.3568 55.4148 64.1566 55.6345C63.9564 55.8494 63.6976 55.9568 63.3802 55.9568C63.058 55.9568 62.7943 55.8469 62.5892 55.6272C62.389 55.4075 62.2889 55.0754 62.2889 54.6311V46.8308H59.9159C59.5448 46.8308 59.2689 46.7502 59.0882 46.5891C58.9076 46.4231 58.8172 46.2058 58.8172 45.9373C58.8172 45.6589 58.91 45.4392 59.0956 45.2781C59.286 45.1169 59.5594 45.0364 59.9159 45.0364H66.8299C67.2059 45.0364 67.4842 45.1194 67.6649 45.2854C67.8504 45.4514 67.9432 45.6687 67.9432 45.9373C67.9432 46.2058 67.8504 46.4231 67.6649 46.5891C67.4794 46.7502 67.201 46.8308 66.8299 46.8308ZM70.8436 46.0691V49.0354C71.0975 48.7424 71.3441 48.5105 71.5834 48.3396C71.8275 48.1687 72.0961 48.0417 72.389 47.9587C72.682 47.8708 72.9969 47.8269 73.3338 47.8269C73.8417 47.8269 74.2909 47.9343 74.6815 48.1492C75.077 48.364 75.3871 48.6765 75.6117 49.0867C75.7533 49.3259 75.8485 49.5945 75.8973 49.8923C75.9461 50.1853 75.9706 50.5247 75.9706 50.9104V54.741C75.9706 55.1414 75.8778 55.4441 75.6922 55.6492C75.5116 55.8542 75.2699 55.9568 74.9671 55.9568C74.308 55.9568 73.9784 55.5515 73.9784 54.741V51.3645C73.9784 50.7249 73.8832 50.2341 73.6927 49.8923C73.5023 49.5457 73.141 49.3723 72.6087 49.3723C72.2523 49.3723 71.93 49.4749 71.6419 49.6799C71.3587 49.8801 71.1463 50.156 71.0047 50.5076C70.8973 50.8054 70.8436 51.3352 70.8436 52.0969V54.741C70.8436 55.1365 70.7533 55.4392 70.5726 55.6492C70.3968 55.8542 70.1502 55.9568 69.8329 55.9568C69.1737 55.9568 68.8441 55.5515 68.8441 54.741V46.0691C68.8441 45.6638 68.9295 45.3611 69.1004 45.1609C69.2762 44.9558 69.5204 44.8533 69.8329 44.8533C70.1502 44.8533 70.3968 44.9558 70.5726 45.1609C70.7533 45.366 70.8436 45.6687 70.8436 46.0691ZM83.5365 52.3826H79.6253C79.6302 52.8367 79.7206 53.2371 79.8963 53.5837C80.077 53.9304 80.3138 54.1917 80.6068 54.3674C80.9046 54.5432 81.2318 54.6311 81.5882 54.6311C81.8275 54.6311 82.0448 54.6042 82.2401 54.5505C82.4403 54.4919 82.6332 54.4041 82.8187 54.2869C83.0043 54.1648 83.1752 54.0354 83.3314 53.8987C83.4877 53.762 83.6903 53.5764 83.9393 53.342C84.0419 53.2542 84.1883 53.2102 84.3788 53.2102C84.5838 53.2102 84.7499 53.2664 84.8768 53.3787C85.0038 53.491 85.0672 53.6497 85.0672 53.8547C85.0672 54.0354 84.9964 54.2478 84.8548 54.4919C84.7132 54.7312 84.4984 54.9631 84.2103 55.1877C83.9271 55.4075 83.5682 55.5906 83.1336 55.7371C82.704 55.8835 82.2084 55.9568 81.6468 55.9568C80.3627 55.9568 79.3641 55.5906 78.6512 54.8582C77.9383 54.1257 77.5819 53.1321 77.5819 51.8772C77.5819 51.2864 77.6698 50.7395 77.8456 50.2366C78.0213 49.7288 78.2777 49.2942 78.6146 48.9329C78.9515 48.5715 79.3666 48.2957 79.8597 48.1052C80.3529 47.9099 80.8998 47.8123 81.5003 47.8123C82.2816 47.8123 82.9505 47.9783 83.5072 48.3103C84.0687 48.6375 84.4886 49.0623 84.7669 49.5847C85.0453 50.1072 85.1844 50.6394 85.1844 51.1814C85.1844 51.6843 85.0404 52.0115 84.7523 52.1628C84.4642 52.3093 84.0589 52.3826 83.5365 52.3826ZM79.6253 51.2473H83.2508C83.202 50.5637 83.0165 50.0535 82.6942 49.7166C82.3768 49.3748 81.9569 49.2039 81.4344 49.2039C80.9364 49.2039 80.5262 49.3772 80.204 49.7239C79.8866 50.0657 79.6937 50.5735 79.6253 51.2473ZM36.8373 68.3352V63.1716C36.8373 62.7322 36.9349 62.4026 37.1302 62.1829C37.3304 61.9631 37.5917 61.8533 37.9139 61.8533C38.2508 61.8533 38.5169 61.9631 38.7123 62.1829C38.9125 62.4026 39.0126 62.7322 39.0126 63.1716V68.4524C39.0126 69.053 39.0785 69.5559 39.2103 69.9612C39.347 70.3616 39.5863 70.6741 39.9281 70.8987C40.2699 71.1184 40.7484 71.2283 41.3636 71.2283C42.2132 71.2283 42.8138 71.0037 43.1654 70.5544C43.5169 70.1003 43.6927 69.4143 43.6927 68.4963V63.1716C43.6927 62.7273 43.7904 62.3977 43.9857 62.1829C44.181 61.9631 44.4422 61.8533 44.7694 61.8533C45.0965 61.8533 45.3602 61.9631 45.5604 62.1829C45.7655 62.3977 45.868 62.7273 45.868 63.1716V68.3352C45.868 69.175 45.785 69.8757 45.619 70.4373C45.4579 70.9988 45.1502 71.4919 44.6961 71.9167C44.3055 72.2781 43.8514 72.5417 43.3338 72.7078C42.8163 72.8738 42.2108 72.9568 41.5174 72.9568C40.6922 72.9568 39.9818 72.8689 39.3861 72.6931C38.7904 72.5125 38.3045 72.2366 37.9286 71.8655C37.5526 71.4895 37.2767 71.011 37.1009 70.4299C36.9252 69.844 36.8373 69.1458 36.8373 68.3352ZM49.8963 65.9329V66.1746C50.2479 65.7107 50.6312 65.3713 51.0462 65.1565C51.4662 64.9368 51.9471 64.8269 52.4891 64.8269C53.0165 64.8269 53.4877 64.9417 53.9027 65.1711C54.3177 65.4006 54.6278 65.7253 54.8329 66.1453C54.9647 66.3894 55.0502 66.6531 55.0892 66.9363C55.1283 67.2195 55.1478 67.5808 55.1478 68.0203V71.741C55.1478 72.1414 55.055 72.4441 54.8695 72.6492C54.6888 72.8542 54.452 72.9568 54.159 72.9568C53.8612 72.9568 53.6195 72.8518 53.4339 72.6418C53.2484 72.4319 53.1556 72.1316 53.1556 71.741V68.4084C53.1556 67.7493 53.0628 67.2463 52.8773 66.8997C52.6966 66.5481 52.3329 66.3723 51.786 66.3723C51.4295 66.3723 51.1048 66.4797 50.8119 66.6946C50.5189 66.9045 50.3041 67.1951 50.1673 67.5662C50.0697 67.864 50.0209 68.4207 50.0209 69.2361V71.741C50.0209 72.1462 49.9256 72.4514 49.7352 72.6565C49.5497 72.8567 49.308 72.9568 49.0101 72.9568C48.722 72.9568 48.4852 72.8518 48.2997 72.6418C48.1141 72.4319 48.0213 72.1316 48.0213 71.741V65.9622C48.0213 65.5813 48.1044 65.2981 48.2704 65.1125C48.4364 64.9221 48.6634 64.8269 48.9515 64.8269C49.1273 64.8269 49.286 64.8684 49.4276 64.9514C49.5692 65.0344 49.6815 65.1589 49.7645 65.325C49.8524 65.491 49.8963 65.6936 49.8963 65.9329ZM59.1468 65.9622V71.741C59.1468 72.1414 59.0516 72.4441 58.8612 72.6492C58.6708 72.8542 58.4291 72.9568 58.1361 72.9568C57.8431 72.9568 57.6039 72.8518 57.4183 72.6418C57.2377 72.4319 57.1473 72.1316 57.1473 71.741V66.0208C57.1473 65.6252 57.2377 65.3274 57.4183 65.1272C57.6039 64.927 57.8431 64.8269 58.1361 64.8269C58.4291 64.8269 58.6708 64.927 58.8612 65.1272C59.0516 65.3274 59.1468 65.6057 59.1468 65.9622ZM58.1581 63.8967C57.8797 63.8967 57.6405 63.8113 57.4403 63.6404C57.245 63.4695 57.1473 63.2278 57.1473 62.9153C57.1473 62.6321 57.2474 62.4001 57.4476 62.2195C57.6527 62.0339 57.8895 61.9412 58.1581 61.9412C58.4169 61.9412 58.6463 62.0242 58.8465 62.1902C59.0467 62.3562 59.1468 62.5979 59.1468 62.9153C59.1468 63.2229 59.0492 63.4646 58.8539 63.6404C58.6586 63.8113 58.4266 63.8967 58.1581 63.8967ZM62.6332 66.072L64.2518 70.613L65.995 65.8743C66.1317 65.4934 66.266 65.2249 66.3978 65.0686C66.5296 64.9075 66.7298 64.8269 66.9984 64.8269C67.2523 64.8269 67.4671 64.9124 67.6429 65.0833C67.8236 65.2542 67.9139 65.4519 67.9139 65.6765C67.9139 65.7644 67.8968 65.8669 67.8627 65.9841C67.8334 66.1013 67.7967 66.2112 67.7528 66.3137C67.7137 66.4163 67.6673 66.5334 67.6136 66.6653L65.6947 71.426C65.641 71.5627 65.5702 71.7361 65.4823 71.946C65.3993 72.156 65.3041 72.3367 65.1966 72.488C65.0941 72.6345 64.9647 72.7493 64.8085 72.8323C64.6571 72.9153 64.4715 72.9568 64.2518 72.9568C63.9686 72.9568 63.7416 72.8933 63.5707 72.7664C63.4046 72.6345 63.2801 72.4929 63.1971 72.3416C63.119 72.1853 62.9847 71.8801 62.7943 71.426L60.89 66.7166C60.8461 66.5994 60.7997 66.4822 60.7508 66.365C60.7069 66.2478 60.6678 66.1282 60.6336 66.0061C60.6044 65.884 60.5897 65.7791 60.5897 65.6912C60.5897 65.5544 60.6312 65.4202 60.7142 65.2883C60.7972 65.1516 60.912 65.0417 61.0585 64.9587C61.2049 64.8708 61.3636 64.8269 61.5345 64.8269C61.8666 64.8269 62.0936 64.9221 62.2157 65.1125C62.3426 65.303 62.4818 65.6228 62.6332 66.072ZM74.7254 69.3826H70.8143C70.8192 69.8367 70.9095 70.2371 71.0853 70.5837C71.266 70.9304 71.5028 71.1917 71.7958 71.3674C72.0936 71.5432 72.4208 71.6311 72.7772 71.6311C73.0165 71.6311 73.2337 71.6042 73.4291 71.5505C73.6293 71.4919 73.8221 71.4041 74.0077 71.2869C74.1932 71.1648 74.3641 71.0354 74.5204 70.8987C74.6766 70.762 74.8793 70.5764 75.1283 70.342C75.2308 70.2542 75.3773 70.2102 75.5677 70.2102C75.7728 70.2102 75.9388 70.2664 76.0658 70.3787C76.1927 70.491 76.2562 70.6497 76.2562 70.8547C76.2562 71.0354 76.1854 71.2478 76.0438 71.4919C75.9022 71.7312 75.6874 71.9631 75.3993 72.1877C75.1161 72.4075 74.7572 72.5906 74.3226 72.7371C73.8929 72.8835 73.3973 72.9568 72.8358 72.9568C71.5516 72.9568 70.5531 72.5906 69.8402 71.8582C69.1273 71.1257 68.7709 70.1321 68.7709 68.8772C68.7709 68.2864 68.8587 67.7395 69.0345 67.2366C69.2103 66.7288 69.4667 66.2942 69.8036 65.9329C70.1405 65.5715 70.5555 65.2957 71.0487 65.1052C71.5419 64.9099 72.0887 64.8123 72.6893 64.8123C73.4706 64.8123 74.1395 64.9783 74.6961 65.3103C75.2577 65.6375 75.6776 66.0623 75.9559 66.5847C76.2342 67.1072 76.3734 67.6394 76.3734 68.1814C76.3734 68.6843 76.2294 69.0115 75.9413 69.1628C75.6532 69.3093 75.2479 69.3826 74.7254 69.3826ZM70.8143 68.2473H74.4398C74.391 67.5637 74.2054 67.0535 73.8832 66.7166C73.5658 66.3748 73.1459 66.2039 72.6234 66.2039C72.1253 66.2039 71.7152 66.3772 71.3929 66.7239C71.0755 67.0657 70.8827 67.5735 70.8143 68.2473ZM80.0502 70.071V71.741C80.0502 72.1462 79.9549 72.4514 79.7645 72.6565C79.5741 72.8567 79.3324 72.9568 79.0394 72.9568C78.7513 72.9568 78.5145 72.8542 78.329 72.6492C78.1434 72.4441 78.0506 72.1414 78.0506 71.741V66.1746C78.0506 65.2761 78.3753 64.8269 79.0248 64.8269C79.3568 64.8269 79.5961 64.9319 79.7425 65.1418C79.889 65.3518 79.9696 65.6619 79.9842 66.072C80.2235 65.6619 80.4676 65.3518 80.7167 65.1418C80.9706 64.9319 81.3075 64.8269 81.7274 64.8269C82.1473 64.8269 82.555 64.9319 82.9505 65.1418C83.3461 65.3518 83.5438 65.6301 83.5438 65.9768C83.5438 66.2209 83.4584 66.4236 83.2875 66.5847C83.1214 66.741 82.9408 66.8191 82.7455 66.8191C82.6722 66.8191 82.494 66.7751 82.2108 66.6873C81.9325 66.5945 81.6859 66.5481 81.4711 66.5481C81.1781 66.5481 80.9388 66.6262 80.7533 66.7825C80.5677 66.9338 80.4237 67.1609 80.3211 67.4636C80.2186 67.7664 80.1478 68.1277 80.1087 68.5476C80.0697 68.9626 80.0502 69.4705 80.0502 70.071ZM90.6996 70.342C90.6996 70.8938 90.5653 71.3674 90.2967 71.7629C90.0282 72.1536 89.6302 72.4514 89.1029 72.6565C88.5804 72.8567 87.9432 72.9568 87.1913 72.9568C86.4735 72.9568 85.8583 72.8469 85.3456 72.6272C84.8329 72.4075 84.4544 72.134 84.2103 71.8069C83.9662 71.4749 83.8441 71.1428 83.8441 70.8108C83.8441 70.5911 83.9222 70.4031 84.0785 70.2468C84.2347 70.0906 84.4325 70.0125 84.6717 70.0125C84.8817 70.0125 85.0428 70.0637 85.1551 70.1663C85.2674 70.2688 85.3749 70.4128 85.4774 70.5984C85.6825 70.9548 85.9266 71.2209 86.2098 71.3967C86.4979 71.5725 86.8885 71.6604 87.3817 71.6604C87.7821 71.6604 88.1092 71.5725 88.3631 71.3967C88.6219 71.2161 88.7513 71.011 88.7513 70.7815C88.7513 70.4299 88.617 70.1736 88.3485 70.0125C88.0848 69.8513 87.6478 69.6975 87.0375 69.551C86.349 69.3801 85.7875 69.2019 85.3529 69.0164C84.9232 68.8259 84.579 68.5769 84.3202 68.2693C84.0614 67.9617 83.932 67.5833 83.932 67.134C83.932 66.7336 84.0516 66.3552 84.2909 65.9988C84.5301 65.6423 84.8817 65.3591 85.3456 65.1492C85.8143 64.9343 86.3783 64.8269 87.0375 64.8269C87.555 64.8269 88.0189 64.8806 88.4291 64.988C88.8441 65.0955 89.1883 65.2395 89.4618 65.4202C89.7401 65.6008 89.9501 65.801 90.0917 66.0208C90.2381 66.2405 90.3114 66.4553 90.3114 66.6653C90.3114 66.8948 90.2333 67.0828 90.077 67.2292C89.9256 67.3757 89.7084 67.449 89.4252 67.449C89.2201 67.449 89.0443 67.3904 88.8978 67.2732C88.7562 67.156 88.5926 66.9802 88.4071 66.7458C88.2557 66.5505 88.0775 66.3943 87.8724 66.2771C87.6673 66.1599 87.389 66.1013 87.0375 66.1013C86.6761 66.1013 86.3758 66.1794 86.1366 66.3357C85.8973 66.4871 85.7777 66.6775 85.7777 66.907C85.7777 67.1169 85.8656 67.2903 86.0414 67.427C86.2171 67.5588 86.454 67.6687 86.7518 67.7566C87.0497 67.8445 87.4598 67.9519 87.9823 68.0789C88.6024 68.2302 89.1078 68.4109 89.4984 68.6208C89.8939 68.8308 90.1918 69.0798 90.3919 69.3679C90.597 69.6511 90.6996 69.9758 90.6996 70.342ZM94.391 65.9622V71.741C94.391 72.1414 94.2958 72.4441 94.1053 72.6492C93.9149 72.8542 93.6732 72.9568 93.3802 72.9568C93.0873 72.9568 92.848 72.8518 92.6625 72.6418C92.4818 72.4319 92.3915 72.1316 92.3915 71.741V66.0208C92.3915 65.6252 92.4818 65.3274 92.6625 65.1272C92.848 64.927 93.0873 64.8269 93.3802 64.8269C93.6732 64.8269 93.9149 64.927 94.1053 65.1272C94.2958 65.3274 94.391 65.6057 94.391 65.9622ZM93.4022 63.8967C93.1239 63.8967 92.8846 63.8113 92.6844 63.6404C92.4891 63.4695 92.3915 63.2278 92.3915 62.9153C92.3915 62.6321 92.4916 62.4001 92.6918 62.2195C92.8968 62.0339 93.1337 61.9412 93.4022 61.9412C93.661 61.9412 93.8905 62.0242 94.0907 62.1902C94.2909 62.3562 94.391 62.5979 94.391 62.9153C94.391 63.2229 94.2933 63.4646 94.098 63.6404C93.9027 63.8113 93.6708 63.8967 93.4022 63.8967ZM96.5736 65.0027H96.7933V63.8015C96.7933 63.4792 96.8006 63.2278 96.8153 63.0471C96.8348 62.8616 96.8837 62.7029 96.9618 62.571C97.0399 62.4343 97.1522 62.3245 97.2987 62.2415C97.4452 62.1536 97.6087 62.1096 97.7894 62.1096C98.0433 62.1096 98.2728 62.2048 98.4779 62.3953C98.6146 62.5222 98.7001 62.6785 98.7342 62.864C98.7733 63.0447 98.7928 63.3035 98.7928 63.6404V65.0027H99.5253C99.8085 65.0027 100.023 65.071 100.17 65.2078C100.321 65.3396 100.397 65.5105 100.397 65.7205C100.397 65.989 100.289 66.177 100.075 66.2844C99.8646 66.3918 99.5619 66.4456 99.1664 66.4456H98.7928V70.1223C98.7928 70.4348 98.8026 70.6765 98.8221 70.8474C98.8465 71.0134 98.9051 71.1501 98.9979 71.2576C99.0956 71.3601 99.2518 71.4114 99.4667 71.4114C99.5838 71.4114 99.7425 71.3918 99.9427 71.3528C100.143 71.3088 100.299 71.2869 100.411 71.2869C100.573 71.2869 100.717 71.3528 100.844 71.4846C100.975 71.6116 101.041 71.7703 101.041 71.9607C101.041 72.283 100.866 72.5295 100.514 72.7004C100.162 72.8713 99.6571 72.9568 98.9979 72.9568C98.3729 72.9568 97.8993 72.8518 97.577 72.6418C97.2547 72.4319 97.0423 72.1414 96.9398 71.7703C96.8421 71.3992 96.7933 70.9036 96.7933 70.2834V66.4456H96.5296C96.2416 66.4456 96.0218 66.3772 95.8705 66.2405C95.7191 66.1038 95.6434 65.9304 95.6434 65.7205C95.6434 65.5105 95.7215 65.3396 95.8778 65.2078C96.0389 65.071 96.2709 65.0027 96.5736 65.0027ZM103.627 73.2058L103.81 72.759L101.349 66.5627C101.198 66.2063 101.122 65.9475 101.122 65.7864C101.122 65.6155 101.166 65.4568 101.254 65.3103C101.342 65.1638 101.461 65.0466 101.613 64.9587C101.769 64.8708 101.93 64.8269 102.096 64.8269C102.384 64.8269 102.601 64.9197 102.748 65.1052C102.894 65.2859 103.024 65.5471 103.136 65.8889L104.828 70.8108L106.432 66.2332C106.559 65.8621 106.674 65.5715 106.776 65.3616C106.879 65.1516 106.986 65.01 107.098 64.9368C107.216 64.8635 107.379 64.8269 107.589 64.8269C107.741 64.8269 107.885 64.8684 108.021 64.9514C108.163 65.0295 108.27 65.137 108.344 65.2737C108.422 65.4104 108.461 65.5544 108.461 65.7058C108.441 65.7986 108.41 65.9304 108.366 66.1013C108.322 66.2722 108.268 66.4456 108.204 66.6213L105.597 73.4475C105.372 74.0481 105.153 74.5193 104.938 74.8611C104.723 75.2029 104.437 75.4641 104.081 75.6448C103.729 75.8303 103.253 75.9231 102.653 75.9231C102.067 75.9231 101.627 75.8596 101.334 75.7327C101.041 75.6057 100.895 75.3738 100.895 75.0369C100.895 74.8074 100.963 74.6292 101.1 74.5022C101.242 74.3801 101.449 74.3191 101.723 74.3191C101.83 74.3191 101.935 74.3337 102.037 74.363C102.164 74.3923 102.274 74.407 102.367 74.407C102.597 74.407 102.777 74.3728 102.909 74.3044C103.041 74.2361 103.158 74.1165 103.261 73.9456C103.368 73.7795 103.49 73.533 103.627 73.2058ZM57.6966 88.741V80.0691C57.6966 79.6687 57.7845 79.366 57.9603 79.1609C58.141 78.9558 58.3827 78.8533 58.6854 78.8533C58.9881 78.8533 59.2323 78.9558 59.4178 79.1609C59.6034 79.3611 59.6961 79.6638 59.6961 80.0691V88.741C59.6961 89.1462 59.6009 89.4514 59.4105 89.6565C59.225 89.8567 58.9833 89.9568 58.6854 89.9568C58.3924 89.9568 58.1532 89.8518 57.9676 89.6418C57.787 89.4319 57.6966 89.1316 57.6966 88.741ZM69.2543 85.8918C69.2543 86.4875 69.1615 87.0369 68.9759 87.5398C68.7904 88.0427 68.5218 88.4749 68.1703 88.8362C67.8187 89.1975 67.3988 89.4758 66.9105 89.6711C66.4222 89.8616 65.8729 89.9568 65.2626 89.9568C64.6571 89.9568 64.1127 89.8591 63.6293 89.6638C63.1459 89.4685 62.7259 89.1902 62.3695 88.8289C62.0179 88.4626 61.7494 88.033 61.5638 87.5398C61.3832 87.0417 61.2928 86.4924 61.2928 85.8918C61.2928 85.2864 61.3856 84.7322 61.5711 84.2292C61.7567 83.7263 62.0228 83.2966 62.3695 82.9402C62.7162 82.5837 63.1361 82.3103 63.6293 82.1199C64.1224 81.9246 64.6669 81.8269 65.2626 81.8269C65.868 81.8269 66.4173 81.9246 66.9105 82.1199C67.4037 82.3152 67.826 82.5935 68.1776 82.9548C68.5292 83.3162 68.7953 83.7458 68.9759 84.2439C69.1615 84.7419 69.2543 85.2913 69.2543 85.8918ZM67.2474 85.8918C67.2474 85.0764 67.0668 84.4417 66.7054 83.9875C66.349 83.5334 65.868 83.3064 65.2626 83.3064C64.8719 83.3064 64.5277 83.4089 64.2298 83.614C63.932 83.8142 63.7025 84.1121 63.5414 84.5076C63.3802 84.9031 63.2997 85.3645 63.2997 85.8918C63.2997 86.4143 63.3778 86.8708 63.534 87.2615C63.6952 87.6521 63.9222 87.9524 64.2152 88.1624C64.513 88.3674 64.8622 88.47 65.2626 88.47C65.868 88.47 66.349 88.2429 66.7054 87.7888C67.0668 87.3298 67.2474 86.6975 67.2474 85.8918ZM78.1898 83.2917V89.0999C78.1898 89.7639 78.119 90.3352 77.9774 90.8137C77.8358 91.2922 77.6087 91.6877 77.2962 92.0002C76.9837 92.3127 76.5736 92.5447 76.0658 92.696C75.5628 92.8474 74.9354 92.9231 74.1835 92.9231C73.495 92.9231 72.8797 92.8254 72.3377 92.6301C71.7958 92.4397 71.3783 92.1907 71.0853 91.8831C70.7923 91.5803 70.6459 91.2678 70.6459 90.9456C70.6459 90.7014 70.7289 90.5012 70.8949 90.345C71.0609 90.1936 71.2611 90.1179 71.4955 90.1179C71.7884 90.1179 72.0448 90.2473 72.2645 90.5061C72.3719 90.6379 72.4818 90.7698 72.5941 90.9016C72.7113 91.0383 72.8382 91.1531 72.975 91.2458C73.1166 91.3435 73.285 91.4143 73.4803 91.4583C73.6756 91.5071 73.9002 91.5315 74.1542 91.5315C74.6717 91.5315 75.0721 91.4583 75.3553 91.3118C75.6434 91.1702 75.8436 90.97 75.9559 90.7112C76.0731 90.4524 76.1415 90.1741 76.161 89.8762C76.1805 89.5833 76.1952 89.1096 76.2049 88.4553C75.8973 88.885 75.5409 89.2122 75.1356 89.4368C74.7352 89.6614 74.2567 89.7737 73.7001 89.7737C73.0311 89.7737 72.4452 89.6028 71.9422 89.261C71.4442 88.9192 71.0609 88.4407 70.7923 87.8254C70.5238 87.2102 70.3895 86.4998 70.3895 85.6941C70.3895 85.0935 70.4701 84.5515 70.6312 84.0681C70.7972 83.5847 71.0316 83.177 71.3343 82.845C71.6371 82.5129 71.9862 82.2639 72.3817 82.0979C72.7772 81.927 73.2118 81.8416 73.6854 81.8416C74.2518 81.8416 74.7425 81.9514 75.1576 82.1711C75.5726 82.386 75.9584 82.7253 76.3148 83.1892V82.9182C76.3148 82.5715 76.4002 82.303 76.5711 82.1125C76.742 81.9221 76.9618 81.8269 77.2303 81.8269C77.6161 81.8269 77.8724 81.9539 77.9994 82.2078C78.1263 82.4568 78.1898 82.8181 78.1898 83.2917ZM72.3963 85.8259C72.3963 86.6365 72.5721 87.2493 72.9237 87.6643C73.2801 88.0793 73.7391 88.2869 74.3006 88.2869C74.6327 88.2869 74.9452 88.199 75.2381 88.0232C75.536 87.8425 75.7777 87.574 75.9632 87.2175C76.1488 86.8562 76.2416 86.4192 76.2416 85.9065C76.2416 85.0911 76.0609 84.4563 75.6996 84.0022C75.3431 83.5481 74.8719 83.321 74.286 83.321C73.7147 83.321 73.2557 83.5383 72.909 83.9729C72.5672 84.4075 72.3963 85.0251 72.3963 85.8259ZM87.3158 85.8918C87.3158 86.4875 87.223 87.0369 87.0375 87.5398C86.8519 88.0427 86.5834 88.4749 86.2318 88.8362C85.8802 89.1975 85.4603 89.4758 84.972 89.6711C84.4837 89.8616 83.9344 89.9568 83.3241 89.9568C82.7186 89.9568 82.1742 89.8591 81.6908 89.6638C81.2074 89.4685 80.7875 89.1902 80.431 88.8289C80.0794 88.4626 79.8109 88.033 79.6253 87.5398C79.4447 87.0417 79.3544 86.4924 79.3544 85.8918C79.3544 85.2864 79.4471 84.7322 79.6327 84.2292C79.8182 83.7263 80.0843 83.2966 80.431 82.9402C80.7777 82.5837 81.1976 82.3103 81.6908 82.1199C82.1839 81.9246 82.7284 81.8269 83.3241 81.8269C83.9295 81.8269 84.4789 81.9246 84.972 82.1199C85.4652 82.3152 85.8876 82.5935 86.2391 82.9548C86.5907 83.3162 86.8568 83.7458 87.0375 84.2439C87.223 84.7419 87.3158 85.2913 87.3158 85.8918ZM85.3089 85.8918C85.3089 85.0764 85.1283 84.4417 84.7669 83.9875C84.4105 83.5334 83.9295 83.3064 83.3241 83.3064C82.9335 83.3064 82.5892 83.4089 82.2914 83.614C81.9935 83.8142 81.764 84.1121 81.6029 84.5076C81.4418 84.9031 81.3612 85.3645 81.3612 85.8918C81.3612 86.4143 81.4393 86.8708 81.5956 87.2615C81.7567 87.6521 81.9837 87.9524 82.2767 88.1624C82.5746 88.3674 82.9237 88.47 83.3241 88.47C83.9295 88.47 84.4105 88.2429 84.7669 87.7888C85.1283 87.3298 85.3089 86.6975 85.3089 85.8918Z" fill="white"/>
</svg>
