<svg width="574" height="226" viewBox="0 0 574 226" fill="none" xmlns="http://www.w3.org/2000/svg">
<path d="M6.25017 8.375C5.33351 5.04167 6.29184 3.375 9.12517 3.375H20.6877C22.646 3.375 23.9585 4.75 24.6252 7.5L36.5002 56.625C37.3752 60.2083 37.9377 62.6667 38.1877 64C38.4793 65.2917 38.7293 67.3958 38.9377 70.3125H39.2502C39.4585 67.3958 39.6668 65.1875 39.8752 63.6875C40.0835 62.1875 40.6877 59.7083 41.6877 56.25L55.6252 8C56.5002 4.91667 58.2502 3.375 60.8752 3.375H72.3752C75.0002 3.375 76.7502 4.91667 77.6252 8L91.5627 56.25C92.5627 59.7083 93.1668 62.1875 93.3752 63.6875C93.5835 65.1875 93.7918 67.3958 94.0002 70.3125H94.3127C94.521 67.3958 94.7502 65.2917 95.0002 64C95.2918 62.6667 95.8752 60.2083 96.7502 56.625L108.625 7.5C109.292 4.75 110.604 3.375 112.563 3.375H124.125C126.959 3.375 127.917 5.04167 127 8.375L105.75 86.9375C104.667 90.9792 102.709 93 99.8752 93H88.9377C86.521 93 84.7502 91 83.6252 87L68.6252 34.625C67.7918 31.7917 67.3127 29.9583 67.1877 29.125C67.0627 28.25 66.896 26.6458 66.6877 24.3125H66.5627C66.3543 26.6458 66.1877 28.25 66.0627 29.125C65.9377 29.9583 65.4585 31.7917 64.6252 34.625L49.6252 87C48.5002 91 46.7293 93 44.3127 93H33.3752C30.5418 93 28.5835 90.9792 27.5002 86.9375L6.25017 8.375Z" fill="#F2959B"/>
<path d="M140.688 93C138.188 93 136.938 91.75 136.938 89.25V4.5C136.938 2 138.188 0.75 140.688 0.75H150.688C153.188 0.75 154.438 2 154.438 4.5V29.75C154.438 31.4167 154.354 33.0833 154.188 34.75H154.563C156.479 31.4583 158.917 29.2083 161.875 28C164.833 26.75 168.396 26.125 172.563 26.125C179.063 26.125 184.438 28.1667 188.688 32.25C192.938 36.3333 195.063 43.7917 195.063 54.625V89.25C195.063 91.75 193.813 93 191.313 93H181.313C178.813 93 177.563 91.75 177.563 89.25V59.125C177.563 50.0417 176.938 44.3125 175.688 41.9375C174.438 39.5625 171.75 38.375 167.625 38.375C163.25 38.375 159.958 40.0833 157.75 43.5C155.542 46.875 154.438 53.9167 154.438 64.625V89.25C154.438 91.75 153.188 93 150.688 93H140.688Z" fill="#F2959B"/>
<path d="M208.438 60.1875C208.438 49.5625 211.167 41.2292 216.625 35.1875C222.125 29.1458 230.292 26.125 241.125 26.125C251.958 26.125 260.104 29.1458 265.563 35.1875C271.063 41.2292 273.813 49.5625 273.813 60.1875C273.813 70.8125 271.063 79.1458 265.563 85.1875C260.104 91.2292 251.958 94.25 241.125 94.25C230.292 94.25 222.125 91.2292 216.625 85.1875C211.167 79.1458 208.438 70.8125 208.438 60.1875ZM226.938 60.1875C226.938 68.1042 228.146 73.7292 230.563 77.0625C233.021 80.3542 236.542 82 241.125 82C245.708 82 249.208 80.3542 251.625 77.0625C254.083 73.7292 255.313 68.1042 255.313 60.1875C255.313 52.2708 254.083 46.6667 251.625 43.375C249.208 40.0417 245.708 38.375 241.125 38.375C236.542 38.375 233.021 40.0417 230.563 43.375C228.146 46.6667 226.938 52.2708 226.938 60.1875Z" fill="#F2959B"/>
<path d="M334.813 93C332.313 93 331.063 91.75 331.063 89.25V31.125C331.063 28.625 332.313 27.375 334.813 27.375H344.813C347.313 27.375 348.563 28.625 348.563 31.125V89.25C348.563 91.75 347.313 93 344.813 93H334.813ZM334.813 17.75C332.313 17.75 331.063 16.5 331.063 14V6C331.063 3.5 332.313 2.25 334.813 2.25H344.813C347.313 2.25 348.563 3.5 348.563 6V14C348.563 16.5 347.313 17.75 344.813 17.75H334.813Z" fill="#F2959B"/>
<path d="M364.25 88.625C362.209 87.1667 361.646 85.6042 362.563 83.9375L365.75 78.125C366.875 76.0417 368.625 75.7917 371 77.375C373.375 78.9583 376.167 80.125 379.375 80.875C382.625 81.625 385.584 82 388.25 82C390.125 82 391.875 81.8125 393.5 81.4375C395.125 81.0625 396.5 80.3333 397.625 79.25C398.75 78.1667 399.313 76.5833 399.313 74.5C399.313 73.25 398.979 72.1875 398.313 71.3125C397.646 70.4375 396.792 69.7708 395.75 69.3125C394.709 68.8542 393.604 68.4792 392.438 68.1875C390.896 67.8125 388.667 67.1875 385.75 66.3125C382.875 65.4375 380.104 64.4167 377.438 63.25C375.229 62.2917 373.063 60.9583 370.938 59.25C368.854 57.5 367.313 55.5625 366.313 53.4375C365.354 51.3125 364.875 48.6875 364.875 45.5625C364.875 41.3542 366.084 37.6667 368.5 34.5C370.959 31.3333 374.125 29.1458 378 27.9375C381.875 26.7292 386.709 26.125 392.5 26.125C396.417 26.125 400.229 26.6875 403.938 27.8125C407.646 28.9375 410.292 30 411.875 31C414.375 32.5833 415 34.2708 413.75 36.0625L409.938 41.625C408.771 43.2917 406.896 43.4167 404.313 42C402.354 40.9167 400.417 40.0417 398.5 39.375C396.625 38.7083 394.521 38.375 392.188 38.375C390.604 38.375 389.084 38.5417 387.625 38.875C386.167 39.2083 384.917 39.8333 383.875 40.75C382.875 41.6667 382.375 42.875 382.375 44.375C382.375 45.9583 382.834 47.2083 383.75 48.125C384.709 49 385.792 49.6458 387 50.0625C388.25 50.4792 389.438 50.875 390.563 51.25C392.896 52 395.25 52.7292 397.625 53.4375C400 54.1042 402.417 54.9167 404.875 55.875C407 56.7083 409.063 57.8958 411.063 59.4375C413.063 60.9792 414.521 62.9375 415.438 65.3125C416.354 67.6875 416.813 70.3958 416.813 73.4375C416.813 77.4792 415.604 81.2292 413.188 84.6875C410.771 88.1458 407.584 90.6042 403.625 92.0625C399.667 93.5208 395.063 94.25 389.813 94.25C383.938 94.25 378.938 93.8333 374.813 93C370.688 92.1667 367.167 90.7083 364.25 88.625Z" fill="#F2959B"/>
<path d="M448.906 201C447.448 201 446.719 200.219 446.719 198.656V158.531C446.719 156.969 447.448 156.188 448.906 156.188H473.625C475.188 156.188 475.969 156.865 475.969 158.219V161.906C475.969 163.26 475.188 163.938 473.625 163.938H455.844V174.812H471.062C472.625 174.812 473.406 175.49 473.406 176.844V180.531C473.406 181.885 472.625 182.562 471.062 182.562H455.844V198.656C455.844 200.219 455.115 201 453.656 201H448.906Z" fill="#363B56"/>
<path d="M480.969 184.594C480.969 179.281 482.333 175.115 485.062 172.094C487.812 169.073 491.896 167.562 497.312 167.562C502.729 167.562 506.802 169.073 509.531 172.094C512.281 175.115 513.656 179.281 513.656 184.594C513.656 189.906 512.281 194.073 509.531 197.094C506.802 200.115 502.729 201.625 497.312 201.625C491.896 201.625 487.812 200.115 485.062 197.094C482.333 194.073 480.969 189.906 480.969 184.594ZM490.219 184.594C490.219 188.552 490.823 191.365 492.031 193.031C493.26 194.677 495.021 195.5 497.312 195.5C499.604 195.5 501.354 194.677 502.562 193.031C503.792 191.365 504.406 188.552 504.406 184.594C504.406 180.635 503.792 177.833 502.562 176.188C501.354 174.521 499.604 173.688 497.312 173.688C495.021 173.688 493.26 174.521 492.031 176.188C490.823 177.833 490.219 180.635 490.219 184.594Z" fill="#363B56"/>
<path d="M522.281 201C521.031 201 520.406 200.375 520.406 199.125V170.062C520.406 168.812 521.031 168.188 522.281 168.188H527.219C528.469 168.188 529.094 168.812 529.094 170.062V172.625H529.219C529.76 171.292 530.667 170.115 531.938 169.094C533.208 168.073 534.708 167.562 536.438 167.562C537.625 167.562 538.604 167.708 539.375 168C540.104 168.271 540.385 168.771 540.219 169.5L539.344 173.219C539.156 174.052 538.594 174.302 537.656 173.969C537.115 173.781 536.594 173.688 536.094 173.688C534.094 173.688 532.438 174.885 531.125 177.281C529.812 179.677 529.156 183.167 529.156 187.75V199.125C529.156 200.375 528.531 201 527.281 201H522.281Z" fill="#363B56"/>
<path d="M545.5 164.812C544.417 164.125 544.281 163.062 545.094 161.625C545.948 160.125 547.562 158.667 549.938 157.25C552.312 155.833 555.312 155.125 558.938 155.125C563.875 155.125 567.51 156.24 569.844 158.469C572.198 160.698 573.375 163.75 573.375 167.625C573.375 170.562 571.646 173.74 568.188 177.156C564.75 180.552 563.031 183.354 563.031 185.562V186.062C563.031 187.417 562.354 188.094 561 188.094H556.312C554.958 188.094 554.281 187.417 554.281 186.062V185.125C554.281 181.708 555.896 178.312 559.125 174.938C562.375 171.562 564 169.062 564 167.438C564 165.75 563.604 164.448 562.812 163.531C562.042 162.594 560.646 162.125 558.625 162.125C556.833 162.125 555.385 162.531 554.281 163.344C553.177 164.156 552.271 165.146 551.562 166.312C550.875 167.458 549.948 167.656 548.781 166.906L545.5 164.812ZM556.281 201C554.823 201 554.094 200.219 554.094 198.656V194.469C554.094 192.906 554.823 192.125 556.281 192.125H561.031C562.49 192.125 563.219 192.906 563.219 194.469V198.656C563.219 200.219 562.49 201 561.031 201H556.281Z" fill="#363B56"/>
<path d="M51.8677 137.507C45.9843 131.01 38.689 127.715 30.3111 127.715C21.9332 127.715 14.6849 131.057 8.70737 137.507C2.91814 143.91 0 151.725 0 160.67V200.78C0 203.793 2.21214 206.006 5.22442 206.006C8.2367 206.006 10.4018 203.793 10.4018 200.78V175.923H50.1733V200.78C50.1733 203.793 52.3854 206.006 55.3506 206.006C58.3629 206.006 60.575 203.793 60.575 200.78V160.67C60.575 156.197 59.822 152.007 58.3629 148.147C56.9509 144.239 54.7858 140.708 51.8677 137.507ZM50.1733 165.472H10.4018V160.67C10.4018 154.314 12.3786 149.041 16.3793 144.616C20.2858 140.238 24.8513 138.119 30.264 138.119C35.6767 138.119 40.1951 140.238 44.1487 144.616C48.1494 149.088 50.1262 154.361 50.1262 160.67V165.472H50.1733Z" fill="#363B56"/>
<path d="M104.818 200.781C104.818 203.794 102.606 206.006 99.5462 206.006C91.7331 206.006 85.0025 203.229 79.5428 197.673C74.0359 192.165 71.2119 185.386 71.2119 177.618V132.941C71.2119 129.928 73.4241 127.668 76.4363 127.668C79.4486 127.668 81.6137 129.881 81.6137 132.941V149.277H99.5932C102.605 149.277 104.865 151.49 104.865 154.503C104.865 157.516 102.653 159.775 99.5932 159.775H81.5666V177.618C81.5666 182.561 83.3081 186.751 86.8852 190.282C90.3681 193.86 94.5571 195.555 99.5462 195.555C102.558 195.508 104.818 197.768 104.818 200.781Z" fill="#363B56"/>
<path d="M195.092 157.61C189.585 152.102 182.855 149.277 175.089 149.277C167.323 149.277 160.545 152.054 155.085 157.61C149.578 163.118 146.754 169.897 146.754 177.618C146.754 185.386 149.531 192.165 155.085 197.673C160.592 203.181 167.276 206.006 175.089 206.006C181.913 206.006 187.891 203.841 192.974 199.604V200.781C192.974 203.794 195.186 206.006 198.198 206.006C201.211 206.006 203.47 203.794 203.47 200.781V177.618C203.423 169.85 200.599 163.118 195.092 157.61ZM192.974 189.105C192.362 188.87 191.703 188.823 191.233 188.823C189.868 188.823 188.55 189.435 187.655 190.376C184.078 193.813 179.984 195.508 175.042 195.508C170.052 195.508 165.911 193.813 162.381 190.235C158.804 186.704 157.062 182.561 157.062 177.571C157.062 172.628 158.804 168.485 162.381 164.907C165.911 161.376 170.052 159.681 175.042 159.681C179.984 159.681 184.173 161.376 187.703 164.907C191.28 168.438 192.974 172.581 192.974 177.571V189.105Z" fill="#363B56"/>
<path d="M120.35 159.728V177.665C120.35 182.608 122.091 186.751 125.621 190.282C129.151 193.86 133.293 195.555 138.282 195.555C141.294 195.555 143.507 197.768 143.507 200.781C143.507 203.794 141.294 206.006 138.282 206.006C130.516 206.006 123.739 203.229 118.232 197.673C112.725 192.165 109.901 185.386 109.901 177.665V132.941C109.901 129.928 112.113 127.715 115.125 127.715C118.138 127.715 120.303 129.928 120.303 132.941V149.324H138.282C141.294 149.324 143.507 151.537 143.507 154.55C143.507 157.563 141.294 159.775 138.282 159.775H120.35V159.728Z" fill="#363B56"/>
<path d="M258.491 194.237C258.444 195.131 258.161 196.496 256.891 197.815C251.384 203.229 244.7 206.006 236.981 206.006C229.215 206.006 222.438 203.229 216.931 197.673C211.424 192.165 208.6 185.386 208.6 177.618C208.6 169.85 211.377 163.118 216.931 157.61C222.485 152.102 229.215 149.277 236.981 149.277C244.7 149.277 251.384 152.007 256.844 157.421C258.962 159.493 259.009 162.6 256.985 164.719C254.82 166.837 251.713 166.931 249.595 164.907C246.018 161.376 241.923 159.728 236.981 159.728C231.992 159.728 227.85 161.423 224.32 164.954C220.743 168.532 219.049 172.628 219.049 177.618C219.049 182.561 220.79 186.751 224.32 190.282C227.897 193.813 231.992 195.508 236.981 195.508C241.923 195.508 246.018 193.86 249.501 190.423C250.866 189.011 252.372 188.823 253.125 188.823C254.537 188.823 255.808 189.341 256.891 190.423C257.973 191.506 258.538 192.871 258.491 194.237Z" fill="#363B56"/>
<path d="M286.355 152.572V128.562C286.355 124.937 283.248 122.019 279.436 122.019C275.624 122.019 272.517 124.937 272.517 128.562V159.964C272.517 161.282 272.658 162.6 272.894 163.871C275.859 158.787 280.613 154.785 286.355 152.572Z" fill="#363B56"/>
<path d="M319.537 160.011V128.61C319.537 124.985 316.431 122.066 312.618 122.066C308.806 122.066 305.699 124.985 305.699 128.61V160.011C305.699 165.048 301.369 169.144 296.051 169.144C292.238 169.144 289.132 172.063 289.132 175.688V181.243C291.344 181.902 293.65 182.232 296.051 182.232C308.994 182.232 319.537 172.251 319.537 160.011Z" fill="#363B56"/>
<path d="M296.05 166.555C299.863 166.555 302.969 163.636 302.969 160.011V154.455C300.757 153.796 298.451 153.467 296.05 153.467C283.107 153.467 272.564 163.447 272.564 175.688V207.089C272.564 210.714 275.67 213.633 279.483 213.633C283.295 213.633 286.402 210.714 286.402 207.089V175.688C286.355 170.65 290.685 166.555 296.05 166.555Z" fill="#97ADD9"/>
<path d="M353.66 147.488V201.298C353.66 202.24 353.613 203.182 353.519 204.123C352.107 216.128 341.893 225.45 329.515 225.45C319.866 225.45 311.582 219.8 307.676 211.656C306.876 210.008 306.311 208.266 305.887 206.383C305.746 205.677 305.652 204.923 305.652 204.17V183.079C311.441 180.913 316.195 176.865 319.16 171.733C319.395 173.004 319.49 174.323 319.49 175.641V202.475C319.49 208.031 323.82 212.88 329.374 212.974H329.468C335.916 212.974 341.14 207.701 341.14 201.298V147.629C341.47 144.522 344.011 142.074 347.212 141.98C347.4 141.98 347.541 141.98 347.73 142.027C347.777 142.027 347.777 142.027 347.824 142.027C350.601 142.215 352.813 144.098 353.425 146.641C353.472 146.735 353.519 146.782 353.519 146.829C353.613 147.017 353.66 147.252 353.66 147.488Z" fill="#97ADD9"/>
<path d="M353.66 201.298V204.123H353.519C353.613 203.181 353.66 202.24 353.66 201.298Z" fill="#97ADD9"/>
<path d="M354.601 129.174C354.601 131.152 353.895 132.941 352.483 134.353C351.071 135.718 349.283 136.472 347.353 136.472C345.329 136.472 343.541 135.671 342.176 134.259C340.858 132.894 340.152 131.152 340.152 129.174C340.152 127.291 340.858 125.549 342.176 124.184C344.859 121.359 349.565 121.218 352.436 124.09L352.483 124.137C353.848 125.502 354.601 127.244 354.601 129.174Z" fill="#97ADD9"/>
<path d="M422.378 174.228V202.664C422.378 205.677 420.213 207.842 417.248 207.842C414.282 207.842 412.164 205.677 412.164 202.664V174.228C412.164 167.685 410.141 162.271 405.905 157.657C401.763 153.137 396.962 150.972 391.22 150.972C385.43 150.972 380.63 153.137 376.488 157.657C372.299 162.271 370.275 167.732 370.228 174.276V202.664C370.228 205.677 368.11 207.842 365.145 207.842C362.132 207.842 359.967 205.677 359.967 202.664V145.84C359.967 142.827 362.132 140.662 365.145 140.662C368.11 140.662 370.228 142.827 370.228 145.84V149.418C371.452 148.241 372.769 147.111 374.229 146.123C379.406 142.545 385.101 140.709 391.22 140.709C399.833 140.709 407.269 144.051 413.341 150.689C419.366 157.139 422.378 165.095 422.378 174.228Z" fill="#97ADD9"/>
</svg>
